<svg xmlns="http://www.w3.org/2000/svg" width="610" height="185" viewBox="0 0 610 185">
  <g id="Group_1072291" data-name="Group 1072291" transform="translate(-495 -4637)">
    <g id="Group_1072278" data-name="Group 1072278">
      <rect id="Rectangle_377781" data-name="Rectangle 377781" width="610" height="185" transform="translate(495 4637)" fill="#ebfbf3"/>
      <g id="Group_1072240" data-name="Group 1072240" transform="translate(-18 -9.113)">
        <path id="Path_839079" data-name="Path 839079" d="M-10165.5-9970v90.748" transform="translate(10884.035 14671.955)" fill="none" stroke="#12263f" stroke-width="2"/>
        <path id="Path_839104" data-name="Path 839104" d="M2.939-3.507V0H.889V-9.953H4.771a4.492,4.492,0,0,1,1.972.41A3.022,3.022,0,0,1,8.053-8.377a3.25,3.25,0,0,1,.458,1.719,2.858,2.858,0,0,1-1,2.307,4.171,4.171,0,0,1-2.772.844Zm0-1.661H4.771a1.8,1.8,0,0,0,1.241-.383,1.392,1.392,0,0,0,.427-1.094,1.642,1.642,0,0,0-.431-1.183,1.609,1.609,0,0,0-1.189-.465H2.939ZM14.506,0H12.53V-7.615l-2.358.731V-8.49l4.122-1.477h.212Z" transform="translate(737 4735.113)" fill="#12263f"/>
        <path id="Path_839105" data-name="Path 839105" d="M-59.82-3.609A4.185,4.185,0,0,1-61.152-.824a4.365,4.365,0,0,1-2.98.98,4.008,4.008,0,0,1-3.23-1.445,5.815,5.815,0,0,1-1.215-3.867V-6.25a6.481,6.481,0,0,1,.566-2.789,4.231,4.231,0,0,1,1.605-1.848A4.47,4.47,0,0,1-64-11.531a4.11,4.11,0,0,1,2.906,1.012,4.235,4.235,0,0,1,1.273,2.8h-1.508a3.268,3.268,0,0,0-.848-1.975A2.565,2.565,0,0,0-64-10.3a2.684,2.684,0,0,0-2.254,1.063,4.882,4.882,0,0,0-.816,3.026v1.1A5.018,5.018,0,0,0-66.3-2.165,2.5,2.5,0,0,0-64.133-1.07a2.887,2.887,0,0,0,1.918-.566,3.143,3.143,0,0,0,.887-1.973ZM-52.781,0a3.036,3.036,0,0,1-.2-.891A3.225,3.225,0,0,1-55.391.156a2.984,2.984,0,0,1-2.051-.707,2.287,2.287,0,0,1-.8-1.793,2.39,2.39,0,0,1,1-2.051,4.733,4.733,0,0,1,2.824-.73h1.406v-.664A1.623,1.623,0,0,0-53.461-7,1.821,1.821,0,0,0-54.8-7.445a2.107,2.107,0,0,0-1.3.391,1.151,1.151,0,0,0-.523.945H-58.07a2,2,0,0,1,.449-1.223A3.066,3.066,0,0,1-56.4-8.266a4.1,4.1,0,0,1,1.691-.344,3.342,3.342,0,0,1,2.289.73,2.635,2.635,0,0,1,.859,2.012v3.891a4.757,4.757,0,0,0,.3,1.852V0Zm-2.4-1.1a2.54,2.54,0,0,0,1.289-.352,2.127,2.127,0,0,0,.883-.914V-4.1h-1.133Q-56.8-4.1-56.8-2.547a1.316,1.316,0,0,0,.453,1.063A1.742,1.742,0,0,0-55.18-1.1Zm7.844-9.4v2.047h1.578v1.117h-1.578v5.249a1.173,1.173,0,0,0,.211.763.888.888,0,0,0,.719.254,3.5,3.5,0,0,0,.688-.094V0a4.215,4.215,0,0,1-1.109.155A1.8,1.8,0,0,1-48.289-.43a2.517,2.517,0,0,1-.492-1.664V-7.336H-50.32V-8.453h1.539V-10.5ZM-40.562.156a3.693,3.693,0,0,1-2.8-1.129,4.19,4.19,0,0,1-1.078-3.02v-.266a5.073,5.073,0,0,1,.48-2.246,3.748,3.748,0,0,1,1.344-1.547,3.378,3.378,0,0,1,1.871-.559A3.166,3.166,0,0,1-38.18-7.523a4.7,4.7,0,0,1,.914,3.109v.6h-5.727a3,3,0,0,0,.73,2.02,2.3,2.3,0,0,0,1.777.77,2.517,2.517,0,0,0,1.3-.312,3.259,3.259,0,0,0,.93-.828l.883.688A3.55,3.55,0,0,1-40.562.156Zm-.18-7.578a1.928,1.928,0,0,0-1.469.637A3.1,3.1,0,0,0-42.945-5h4.234v-.109A2.753,2.753,0,0,0-39.3-6.816,1.815,1.815,0,0,0-40.742-7.422Zm4.8,3.125a4.968,4.968,0,0,1,.914-3.145A2.923,2.923,0,0,1-32.6-8.609a2.908,2.908,0,0,1,2.414,1.094l.07-.937h1.32V-.2a3.439,3.439,0,0,1-.973,2.586,3.589,3.589,0,0,1-2.613.945,4.348,4.348,0,0,1-1.789-.391,3.08,3.08,0,0,1-1.336-1.07l.75-.867a2.826,2.826,0,0,0,2.273,1.148,2.214,2.214,0,0,0,1.645-.594,2.269,2.269,0,0,0,.59-1.672V-.844a2.971,2.971,0,0,1-2.367,1,2.887,2.887,0,0,1-2.4-1.2A5.224,5.224,0,0,1-35.937-4.3Zm1.453.164A3.79,3.79,0,0,0-33.9-1.887a1.9,1.9,0,0,0,1.641.816A2.117,2.117,0,0,0-30.25-2.312V-6.172a2.142,2.142,0,0,0-1.992-1.211,1.921,1.921,0,0,0-1.648.82A4.128,4.128,0,0,0-34.484-4.133ZM-27-4.3a4.993,4.993,0,0,1,.488-2.234A3.643,3.643,0,0,1-25.152-8.07a3.7,3.7,0,0,1,1.988-.539,3.565,3.565,0,0,1,2.793,1.2A4.6,4.6,0,0,1-19.3-4.234v.1a5.036,5.036,0,0,1-.473,2.215A3.589,3.589,0,0,1-21.129-.391a3.743,3.743,0,0,1-2.02.547,3.556,3.556,0,0,1-2.785-1.2A4.575,4.575,0,0,1-27-4.2Zm1.453.172a3.616,3.616,0,0,0,.652,2.258,2.088,2.088,0,0,0,1.746.852,2.075,2.075,0,0,0,1.75-.863A3.955,3.955,0,0,0-20.75-4.3a3.61,3.61,0,0,0-.66-2.254,2.1,2.1,0,0,0-1.754-.863,2.075,2.075,0,0,0-1.727.852A3.925,3.925,0,0,0-25.547-4.133Zm12.141-3.023a4.331,4.331,0,0,0-.711-.055A1.9,1.9,0,0,0-16.047-6V0h-1.445V-8.453h1.406l.023.977a2.251,2.251,0,0,1,2.016-1.133,1.477,1.477,0,0,1,.641.109ZM-10.508,0h-1.453V-8.453h1.453Zm.016-11.992h1.75l-2.094,2.3L-12-9.7ZM-2.906,0a3.036,3.036,0,0,1-.2-.891A3.225,3.225,0,0,1-5.516.156,2.984,2.984,0,0,1-7.566-.551a2.287,2.287,0,0,1-.8-1.793,2.39,2.39,0,0,1,1-2.051,4.733,4.733,0,0,1,2.824-.73h1.406v-.664A1.623,1.623,0,0,0-3.586-7a1.821,1.821,0,0,0-1.336-.449,2.107,2.107,0,0,0-1.3.391,1.151,1.151,0,0,0-.523.945H-8.2a2,2,0,0,1,.449-1.223,3.066,3.066,0,0,1,1.219-.934,4.1,4.1,0,0,1,1.691-.344,3.342,3.342,0,0,1,2.289.73,2.635,2.635,0,0,1,.859,2.012v3.891a4.757,4.757,0,0,0,.3,1.852V0ZM-5.3-1.1a2.54,2.54,0,0,0,1.289-.352,2.127,2.127,0,0,0,.883-.914V-4.1H-4.266q-2.656,0-2.656,1.555a1.316,1.316,0,0,0,.453,1.063A1.742,1.742,0,0,0-5.3-1.1ZM4.188-4.3a4.952,4.952,0,0,1,.922-3.129A2.915,2.915,0,0,1,7.523-8.609,2.932,2.932,0,0,1,9.875-7.594V-12H11.32V0H9.992l-.07-.906A2.943,2.943,0,0,1,7.508.156a2.887,2.887,0,0,1-2.395-1.2,5.008,5.008,0,0,1-.926-3.141Zm1.445.164a3.749,3.749,0,0,0,.594,2.25,1.92,1.92,0,0,0,1.641.813A2.108,2.108,0,0,0,9.875-2.3V-6.187a2.125,2.125,0,0,0-1.992-1.2,1.929,1.929,0,0,0-1.656.82A4.128,4.128,0,0,0,5.633-4.133ZM17.07.156a3.693,3.693,0,0,1-2.8-1.129A4.19,4.19,0,0,1,13.2-3.992v-.266a5.073,5.073,0,0,1,.48-2.246A3.748,3.748,0,0,1,15.02-8.051a3.378,3.378,0,0,1,1.871-.559,3.166,3.166,0,0,1,2.563,1.086,4.7,4.7,0,0,1,.914,3.109v.6H14.641a3,3,0,0,0,.73,2.02,2.3,2.3,0,0,0,1.777.77,2.517,2.517,0,0,0,1.3-.312,3.259,3.259,0,0,0,.93-.828l.883.688A3.55,3.55,0,0,1,17.07.156Zm-.18-7.578a1.928,1.928,0,0,0-1.469.637A3.1,3.1,0,0,0,14.688-5h4.234v-.109a2.753,2.753,0,0,0-.594-1.707A1.815,1.815,0,0,0,16.891-7.422ZM27.359-8.453l.039.938a3.122,3.122,0,0,1,2.508-1.094A2.417,2.417,0,0,1,32.32-7.25a3.2,3.2,0,0,1,1.1-.984,3.242,3.242,0,0,1,1.6-.375q2.781,0,2.828,2.945V0H36.4V-5.578a1.941,1.941,0,0,0-.414-1.355,1.823,1.823,0,0,0-1.391-.449,1.917,1.917,0,0,0-1.336.48,1.949,1.949,0,0,0-.617,1.293V0H31.188V-5.539a1.613,1.613,0,0,0-1.8-1.844,1.934,1.934,0,0,0-1.945,1.211V0H25.992V-8.453ZM45.242,0a3.036,3.036,0,0,1-.2-.891A3.225,3.225,0,0,1,42.633.156a2.984,2.984,0,0,1-2.051-.707,2.287,2.287,0,0,1-.8-1.793,2.39,2.39,0,0,1,1-2.051,4.733,4.733,0,0,1,2.824-.73h1.406v-.664A1.623,1.623,0,0,0,44.563-7a1.821,1.821,0,0,0-1.336-.449,2.107,2.107,0,0,0-1.3.391,1.151,1.151,0,0,0-.523.945H39.953A2,2,0,0,1,40.4-7.332a3.066,3.066,0,0,1,1.219-.934,4.1,4.1,0,0,1,1.691-.344,3.342,3.342,0,0,1,2.289.73,2.635,2.635,0,0,1,.859,2.012v3.891a4.757,4.757,0,0,0,.3,1.852V0Zm-2.4-1.1a2.54,2.54,0,0,0,1.289-.352,2.127,2.127,0,0,0,.883-.914V-4.1H43.883q-2.656,0-2.656,1.555a1.316,1.316,0,0,0,.453,1.063A1.742,1.742,0,0,0,42.844-1.1Zm8.531-1.016,1.969-6.336h1.547L51.492,1.3Q50.7,3.414,48.984,3.414l-.273-.023-.539-.1V2.117l.391.031a1.923,1.923,0,0,0,1.145-.3A2.148,2.148,0,0,0,50.383.766l.32-.859L47.688-8.453h1.578ZM55.68-4.3a4.993,4.993,0,0,1,.488-2.234A3.643,3.643,0,0,1,57.527-8.07a3.7,3.7,0,0,1,1.988-.539,3.565,3.565,0,0,1,2.793,1.2,4.6,4.6,0,0,1,1.066,3.18v.1A5.036,5.036,0,0,1,62.9-1.918,3.589,3.589,0,0,1,61.551-.391a3.743,3.743,0,0,1-2.02.547,3.556,3.556,0,0,1-2.785-1.2A4.575,4.575,0,0,1,55.68-4.2Zm1.453.172a3.616,3.616,0,0,0,.652,2.258,2.088,2.088,0,0,0,1.746.852,2.075,2.075,0,0,0,1.75-.863A3.955,3.955,0,0,0,61.93-4.3a3.61,3.61,0,0,0-.66-2.254,2.1,2.1,0,0,0-1.754-.863,2.075,2.075,0,0,0-1.727.852A3.925,3.925,0,0,0,57.133-4.133ZM69.273-7.156a4.331,4.331,0,0,0-.711-.055A1.9,1.9,0,0,0,66.633-6V0H65.188V-8.453h1.406l.023.977a2.251,2.251,0,0,1,2.016-1.133,1.477,1.477,0,0,1,.641.109Zm-99.637,18.7v9.43q0,2.438-2.211,2.438a2.7,2.7,0,0,1-.883-.14V22.125a2.794,2.794,0,0,0,.656.063.982.982,0,0,0,.738-.262,1.3,1.3,0,0,0,.254-.911V11.547ZM-31.957,9.3a.867.867,0,0,1,.215-.59.79.79,0,0,1,.629-.246.819.819,0,0,1,.641.242.854.854,0,0,1,.219.594.826.826,0,0,1-.219.586.834.834,0,0,1-.641.234.808.808,0,0,1-.633-.234A.843.843,0,0,1-31.957,9.3Zm7.43,10.852a3.693,3.693,0,0,1-2.8-1.129,4.19,4.19,0,0,1-1.078-3.02v-.266a5.073,5.073,0,0,1,.48-2.246,3.748,3.748,0,0,1,1.344-1.547,3.378,3.378,0,0,1,1.871-.559,3.166,3.166,0,0,1,2.563,1.086,4.7,4.7,0,0,1,.914,3.109v.6h-5.727a3,3,0,0,0,.73,2.02,2.3,2.3,0,0,0,1.777.77,2.517,2.517,0,0,0,1.3-.312,3.259,3.259,0,0,0,.93-.828l.883.688A3.55,3.55,0,0,1-24.527,20.156Zm-.18-7.578a1.928,1.928,0,0,0-1.469.637A3.1,3.1,0,0,0-26.91,15h4.234v-.109a2.753,2.753,0,0,0-.594-1.707A1.815,1.815,0,0,0-24.707,12.578Zm9.234.266a4.331,4.331,0,0,0-.711-.055A1.9,1.9,0,0,0-18.113,14v6h-1.445V11.547h1.406l.023.977a2.251,2.251,0,0,1,2.016-1.133,1.477,1.477,0,0,1,.641.109ZM-9.238,20a3.036,3.036,0,0,1-.2-.891,3.225,3.225,0,0,1-2.406,1.047,2.984,2.984,0,0,1-2.051-.707,2.287,2.287,0,0,1-.8-1.793,2.39,2.39,0,0,1,1-2.051,4.733,4.733,0,0,1,2.824-.73h1.406v-.664A1.623,1.623,0,0,0-9.918,13a1.821,1.821,0,0,0-1.336-.449,2.107,2.107,0,0,0-1.3.391,1.151,1.151,0,0,0-.523.945h-1.453a2,2,0,0,1,.449-1.223,3.066,3.066,0,0,1,1.219-.934,4.1,4.1,0,0,1,1.691-.344,3.342,3.342,0,0,1,2.289.73,2.635,2.635,0,0,1,.859,2.012v3.891a4.757,4.757,0,0,0,.3,1.852V20Zm-2.4-1.1a2.54,2.54,0,0,0,1.289-.352,2.127,2.127,0,0,0,.883-.914V15.9H-10.6q-2.656,0-2.656,1.555a1.316,1.316,0,0,0,.453,1.063A1.742,1.742,0,0,0-11.637,18.9Zm9.969-6.055a4.331,4.331,0,0,0-.711-.055A1.9,1.9,0,0,0-4.309,14v6H-5.754V11.547h1.406l.023.977a2.251,2.251,0,0,1,2.016-1.133,1.477,1.477,0,0,1,.641.109ZM-.84,15.7a4.961,4.961,0,0,1,.914-3.152,2.962,2.962,0,0,1,2.453-1.16A2.96,2.96,0,0,1,4.895,12.4l.063-.852H6.285v11.7H4.84V19.219a3.033,3.033,0,0,1-2.328.938A2.915,2.915,0,0,1,.07,18.965,5.072,5.072,0,0,1-.84,15.8Zm1.445.164a3.761,3.761,0,0,0,.613,2.281,1.951,1.951,0,0,0,1.652.828A2.164,2.164,0,0,0,4.84,17.836V13.7a2.171,2.171,0,0,0-1.953-1.117,1.965,1.965,0,0,0-1.664.832A4.094,4.094,0,0,0,.605,15.867Zm13.219,3.3a3.07,3.07,0,0,1-2.477.992,2.628,2.628,0,0,1-2.059-.785,3.4,3.4,0,0,1-.715-2.324v-5.5H10.02v5.461q0,1.922,1.563,1.922a2.163,2.163,0,0,0,2.2-1.234V11.547H15.23V20H13.855ZM19,20H17.543V11.547H19Zm.016-11.992h1.75l-2.094,2.3-1.164,0ZM26.6,20a3.036,3.036,0,0,1-.2-.891,3.225,3.225,0,0,1-2.406,1.047,2.984,2.984,0,0,1-2.051-.707,2.287,2.287,0,0,1-.8-1.793,2.39,2.39,0,0,1,1-2.051,4.733,4.733,0,0,1,2.824-.73h1.406v-.664A1.623,1.623,0,0,0,25.918,13a1.821,1.821,0,0,0-1.336-.449,2.107,2.107,0,0,0-1.3.391,1.151,1.151,0,0,0-.523.945H21.309a2,2,0,0,1,.449-1.223,3.066,3.066,0,0,1,1.219-.934,4.1,4.1,0,0,1,1.691-.344,3.342,3.342,0,0,1,2.289.73,2.635,2.635,0,0,1,.859,2.012v3.891a4.757,4.757,0,0,0,.3,1.852V20Zm-2.4-1.1a2.54,2.54,0,0,0,1.289-.352,2.127,2.127,0,0,0,.883-.914V15.9H25.238q-2.656,0-2.656,1.555a1.316,1.316,0,0,0,.453,1.063A1.742,1.742,0,0,0,24.2,18.9Z" transform="translate(950 4691.113)" fill="#12263f"/>
        <path id="Path_839106" data-name="Path 839106" d="M-35.8-4.6h-2.672V0H-39.98V-11.375h3.766a4.457,4.457,0,0,1,2.957.875,3.148,3.148,0,0,1,1.035,2.547A3.062,3.062,0,0,1-32.8-6.1a3.428,3.428,0,0,1-1.6,1.18l2.672,4.828V0h-1.609Zm-2.672-1.227h2.3a2.6,2.6,0,0,0,1.777-.579,1.959,1.959,0,0,0,.66-1.55,2.062,2.062,0,0,0-.629-1.62,2.663,2.663,0,0,0-1.816-.571h-2.3ZM-26.84.156a3.693,3.693,0,0,1-2.8-1.129,4.19,4.19,0,0,1-1.078-3.02v-.266a5.073,5.073,0,0,1,.48-2.246,3.748,3.748,0,0,1,1.344-1.547,3.378,3.378,0,0,1,1.871-.559,3.166,3.166,0,0,1,2.563,1.086,4.7,4.7,0,0,1,.914,3.109v.6H-29.27a3,3,0,0,0,.73,2.02,2.3,2.3,0,0,0,1.777.77,2.517,2.517,0,0,0,1.3-.312,3.259,3.259,0,0,0,.93-.828l.883.688A3.55,3.55,0,0,1-26.84.156Zm-.18-7.578a1.928,1.928,0,0,0-1.469.637A3.1,3.1,0,0,0-29.223-5h4.234v-.109a2.753,2.753,0,0,0-.594-1.707A1.815,1.815,0,0,0-27.02-7.422ZM-20.3,0h-1.445V-12H-20.3Zm7.531,0a3.036,3.036,0,0,1-.2-.891A3.225,3.225,0,0,1-15.379.156,2.984,2.984,0,0,1-17.43-.551a2.287,2.287,0,0,1-.8-1.793,2.39,2.39,0,0,1,1-2.051,4.733,4.733,0,0,1,2.824-.73H-13v-.664A1.623,1.623,0,0,0-13.449-7a1.821,1.821,0,0,0-1.336-.449,2.107,2.107,0,0,0-1.3.391,1.151,1.151,0,0,0-.523.945h-1.453a2,2,0,0,1,.449-1.223,3.066,3.066,0,0,1,1.219-.934A4.1,4.1,0,0,1-14.7-8.609a3.342,3.342,0,0,1,2.289.73,2.635,2.635,0,0,1,.859,2.012v3.891a4.757,4.757,0,0,0,.3,1.852V0Zm-2.4-1.1a2.54,2.54,0,0,0,1.289-.352A2.127,2.127,0,0,0-13-2.367V-4.1h-1.133q-2.656,0-2.656,1.555a1.316,1.316,0,0,0,.453,1.063A1.742,1.742,0,0,0-15.168-1.1Zm9.273.078a2.082,2.082,0,0,0,1.352-.469A1.649,1.649,0,0,0-3.9-2.664h1.367a2.621,2.621,0,0,1-.5,1.383A3.293,3.293,0,0,1-4.266-.234,3.55,3.55,0,0,1-5.895.156,3.482,3.482,0,0,1-8.641-1,4.59,4.59,0,0,1-9.66-4.148v-.242a5.089,5.089,0,0,1,.453-2.2,3.451,3.451,0,0,1,1.3-1.492,3.7,3.7,0,0,1,2-.531,3.39,3.39,0,0,1,2.363.852,3.043,3.043,0,0,1,1,2.211H-3.9a1.992,1.992,0,0,0-.621-1.348A1.932,1.932,0,0,0-5.9-7.422a2.023,2.023,0,0,0-1.707.793,3.724,3.724,0,0,0-.605,2.293v.273a3.65,3.65,0,0,0,.6,2.25A2.033,2.033,0,0,0-5.895-1.023ZM.66,0H-.785V-8.453H.66ZM-.9-10.7a.863.863,0,0,1,.215-.594.807.807,0,0,1,.637-.242.819.819,0,0,1,.641.242.854.854,0,0,1,.219.594.826.826,0,0,1-.219.586.834.834,0,0,1-.641.234.821.821,0,0,1-.637-.234A.834.834,0,0,1-.9-10.7ZM2.59-4.3a4.993,4.993,0,0,1,.488-2.234A3.643,3.643,0,0,1,4.438-8.07a3.7,3.7,0,0,1,1.988-.539,3.565,3.565,0,0,1,2.793,1.2,4.6,4.6,0,0,1,1.066,3.18v.1a5.036,5.036,0,0,1-.473,2.215A3.589,3.589,0,0,1,8.461-.391a3.743,3.743,0,0,1-2.02.547,3.556,3.556,0,0,1-2.785-1.2A4.575,4.575,0,0,1,2.59-4.2Zm1.453.172A3.616,3.616,0,0,0,4.7-1.875a2.088,2.088,0,0,0,1.746.852,2.075,2.075,0,0,0,1.75-.863A3.955,3.955,0,0,0,8.84-4.3a3.61,3.61,0,0,0-.66-2.254,2.1,2.1,0,0,0-1.754-.863A2.075,2.075,0,0,0,4.7-6.57,3.925,3.925,0,0,0,4.043-4.133ZM7.082-12h1.75L6.738-9.7l-1.164,0Zm6.383,3.547.047,1.063a3.08,3.08,0,0,1,2.531-1.219q2.68,0,2.7,3.023V0H17.3V-5.594a1.946,1.946,0,0,0-.418-1.352,1.675,1.675,0,0,0-1.277-.437,2.086,2.086,0,0,0-1.234.375,2.546,2.546,0,0,0-.828.984V0H12.1V-8.453ZM24.535-4.3a4.952,4.952,0,0,1,.922-3.129,2.915,2.915,0,0,1,2.414-1.184,2.932,2.932,0,0,1,2.352,1.016V-12h1.445V0H30.34l-.07-.906A2.943,2.943,0,0,1,27.855.156a2.887,2.887,0,0,1-2.395-1.2,5.008,5.008,0,0,1-.926-3.141Zm1.445.164a3.749,3.749,0,0,0,.594,2.25,1.92,1.92,0,0,0,1.641.813A2.108,2.108,0,0,0,30.223-2.3V-6.187a2.125,2.125,0,0,0-1.992-1.2,1.929,1.929,0,0,0-1.656.82A4.128,4.128,0,0,0,25.98-4.133ZM37.418.156a3.693,3.693,0,0,1-2.8-1.129,4.19,4.19,0,0,1-1.078-3.02v-.266a5.073,5.073,0,0,1,.48-2.246,3.748,3.748,0,0,1,1.344-1.547,3.378,3.378,0,0,1,1.871-.559A3.166,3.166,0,0,1,39.8-7.523a4.7,4.7,0,0,1,.914,3.109v.6H34.988a3,3,0,0,0,.73,2.02,2.3,2.3,0,0,0,1.777.77,2.517,2.517,0,0,0,1.3-.312,3.259,3.259,0,0,0,.93-.828l.883.688A3.55,3.55,0,0,1,37.418.156Zm-.18-7.578a1.928,1.928,0,0,0-1.469.637A3.1,3.1,0,0,0,35.035-5H39.27v-.109a2.753,2.753,0,0,0-.594-1.707A1.815,1.815,0,0,0,37.238-7.422ZM-51.43,17.758a1.064,1.064,0,0,0-.441-.91,4.249,4.249,0,0,0-1.539-.559,7.277,7.277,0,0,1-1.742-.562,2.479,2.479,0,0,1-.953-.781,1.869,1.869,0,0,1-.309-1.078,2.193,2.193,0,0,1,.879-1.758,3.432,3.432,0,0,1,2.246-.719,3.532,3.532,0,0,1,2.332.742,2.357,2.357,0,0,1,.895,1.9h-1.453a1.3,1.3,0,0,0-.5-1.023,1.888,1.888,0,0,0-1.27-.43,1.976,1.976,0,0,0-1.234.344,1.082,1.082,0,0,0-.445.9.877.877,0,0,0,.414.789,5.1,5.1,0,0,0,1.5.508A7.8,7.8,0,0,1-51.3,15.7a2.558,2.558,0,0,1,1,.809,1.988,1.988,0,0,1,.324,1.152,2.163,2.163,0,0,1-.906,1.816,3.8,3.8,0,0,1-2.352.684,4.257,4.257,0,0,1-1.8-.359,2.922,2.922,0,0,1-1.223-1A2.42,2.42,0,0,1-56.7,17.4h1.445a1.5,1.5,0,0,0,.582,1.152,2.258,2.258,0,0,0,1.434.426,2.331,2.331,0,0,0,1.316-.332A1.02,1.02,0,0,0-51.43,17.758Zm8.547,1.406a3.07,3.07,0,0,1-2.477.992,2.628,2.628,0,0,1-2.059-.785,3.4,3.4,0,0,1-.715-2.324v-5.5h1.445v5.461q0,1.922,1.563,1.922a2.163,2.163,0,0,0,2.2-1.234V11.547h1.445V20h-1.375Zm10.742-3.3a5.062,5.062,0,0,1-.883,3.109,2.829,2.829,0,0,1-2.391,1.18,3.1,3.1,0,0,1-2.422-.977v4.07h-1.445v-11.7h1.32l.07.938a2.977,2.977,0,0,1,2.453-1.094,2.882,2.882,0,0,1,2.41,1.148,5.117,5.117,0,0,1,.887,3.2Zm-1.445-.164a3.735,3.735,0,0,0-.609-2.258,1.963,1.963,0,0,0-1.672-.828,2.125,2.125,0,0,0-1.969,1.164V17.82a2.129,2.129,0,0,0,1.984,1.156,1.954,1.954,0,0,0,1.652-.824A4.077,4.077,0,0,0-33.586,15.7Zm7.367-2.859a4.331,4.331,0,0,0-.711-.055A1.9,1.9,0,0,0-28.859,14v6H-30.3V11.547H-28.9l.023.977a2.251,2.251,0,0,1,2.016-1.133,1.477,1.477,0,0,1,.641.109ZM-19.984,20a3.036,3.036,0,0,1-.2-.891,3.225,3.225,0,0,1-2.406,1.047,2.984,2.984,0,0,1-2.051-.707,2.287,2.287,0,0,1-.8-1.793,2.39,2.39,0,0,1,1-2.051,4.733,4.733,0,0,1,2.824-.73h1.406v-.664A1.623,1.623,0,0,0-20.664,13,1.821,1.821,0,0,0-22,12.555a2.107,2.107,0,0,0-1.3.391,1.151,1.151,0,0,0-.523.945h-1.453a2,2,0,0,1,.449-1.223,3.066,3.066,0,0,1,1.219-.934,4.1,4.1,0,0,1,1.691-.344,3.342,3.342,0,0,1,2.289.73,2.635,2.635,0,0,1,.859,2.012v3.891a4.757,4.757,0,0,0,.3,1.852V20Zm-2.4-1.1a2.54,2.54,0,0,0,1.289-.352,2.127,2.127,0,0,0,.883-.914V15.9h-1.133Q-24,15.9-24,17.453a1.316,1.316,0,0,0,.453,1.063A1.742,1.742,0,0,0-22.383,18.9Zm5.5-3.2a4.993,4.993,0,0,1,.488-2.234,3.643,3.643,0,0,1,1.359-1.531,3.7,3.7,0,0,1,1.988-.539,3.565,3.565,0,0,1,2.793,1.2,4.6,4.6,0,0,1,1.066,3.18v.1a5.036,5.036,0,0,1-.473,2.215,3.589,3.589,0,0,1-1.352,1.527,3.743,3.743,0,0,1-2.02.547,3.556,3.556,0,0,1-2.785-1.2A4.575,4.575,0,0,1-16.883,15.8Zm1.453.172a3.616,3.616,0,0,0,.652,2.258,2.088,2.088,0,0,0,1.746.852,2.075,2.075,0,0,0,1.75-.863,3.955,3.955,0,0,0,.648-2.418,3.61,3.61,0,0,0-.66-2.254,2.1,2.1,0,0,0-1.754-.863,2.075,2.075,0,0,0-1.727.852A3.925,3.925,0,0,0-15.43,15.867Zm12.141-3.023A4.331,4.331,0,0,0-4,12.789,1.9,1.9,0,0,0-5.93,14v6H-7.375V11.547h1.406l.023.977A2.251,2.251,0,0,1-3.93,11.391a1.477,1.477,0,0,1,.641.109Zm.828,2.859a4.952,4.952,0,0,1,.922-3.129A2.915,2.915,0,0,1,.875,11.391a2.932,2.932,0,0,1,2.352,1.016V8H4.672V20H3.344l-.07-.906A2.943,2.943,0,0,1,.859,20.156a2.887,2.887,0,0,1-2.395-1.2,5.008,5.008,0,0,1-.926-3.141Zm1.445.164a3.749,3.749,0,0,0,.594,2.25,1.92,1.92,0,0,0,1.641.813A2.108,2.108,0,0,0,3.227,17.7V13.813a2.125,2.125,0,0,0-1.992-1.2,1.929,1.929,0,0,0-1.656.82A4.128,4.128,0,0,0-1.016,15.867ZM8.484,20H7.039V11.547H8.484ZM6.922,9.3a.863.863,0,0,1,.215-.594.807.807,0,0,1,.637-.242.819.819,0,0,1,.641.242.854.854,0,0,1,.219.594.826.826,0,0,1-.219.586.834.834,0,0,1-.641.234.821.821,0,0,1-.637-.234A.834.834,0,0,1,6.922,9.3Zm5.242,2.242.047,1.063a3.08,3.08,0,0,1,2.531-1.219q2.68,0,2.7,3.023V20H16V14.406a1.946,1.946,0,0,0-.418-1.352,1.675,1.675,0,0,0-1.277-.437,2.086,2.086,0,0,0-1.234.375,2.546,2.546,0,0,0-.828.984V20H10.8V11.547ZM24.844,20a3.036,3.036,0,0,1-.2-.891,3.225,3.225,0,0,1-2.406,1.047,2.984,2.984,0,0,1-2.051-.707,2.287,2.287,0,0,1-.8-1.793,2.39,2.39,0,0,1,1-2.051,4.733,4.733,0,0,1,2.824-.73h1.406v-.664A1.623,1.623,0,0,0,24.164,13a1.821,1.821,0,0,0-1.336-.449,2.107,2.107,0,0,0-1.3.391,1.151,1.151,0,0,0-.523.945H19.555A2,2,0,0,1,20,12.668a3.066,3.066,0,0,1,1.219-.934,4.1,4.1,0,0,1,1.691-.344,3.342,3.342,0,0,1,2.289.73,2.635,2.635,0,0,1,.859,2.012v3.891a4.757,4.757,0,0,0,.3,1.852V20Zm-2.4-1.1a2.54,2.54,0,0,0,1.289-.352,2.127,2.127,0,0,0,.883-.914V15.9H23.484q-2.656,0-2.656,1.555a1.316,1.316,0,0,0,.453,1.063A1.742,1.742,0,0,0,22.445,18.9Zm9.273.078a2.082,2.082,0,0,0,1.352-.469,1.649,1.649,0,0,0,.641-1.172h1.367a2.621,2.621,0,0,1-.5,1.383,3.293,3.293,0,0,1-1.23,1.047,3.55,3.55,0,0,1-1.629.391A3.482,3.482,0,0,1,28.973,19a4.59,4.59,0,0,1-1.02-3.152v-.242a5.089,5.089,0,0,1,.453-2.2,3.451,3.451,0,0,1,1.3-1.492,3.7,3.7,0,0,1,2-.531,3.39,3.39,0,0,1,2.363.852,3.043,3.043,0,0,1,1,2.211H33.711a1.992,1.992,0,0,0-.621-1.348,1.932,1.932,0,0,0-1.379-.527A2.023,2.023,0,0,0,30,13.371a3.724,3.724,0,0,0-.605,2.293v.273a3.65,3.65,0,0,0,.6,2.25A2.033,2.033,0,0,0,31.719,18.977ZM38.273,20H36.828V11.547h1.445ZM36.711,9.3a.863.863,0,0,1,.215-.594.807.807,0,0,1,.637-.242.819.819,0,0,1,.641.242.854.854,0,0,1,.219.594.826.826,0,0,1-.219.586.834.834,0,0,1-.641.234.821.821,0,0,1-.637-.234A.834.834,0,0,1,36.711,9.3ZM40.2,15.7a4.993,4.993,0,0,1,.488-2.234,3.643,3.643,0,0,1,1.359-1.531,3.7,3.7,0,0,1,1.988-.539,3.565,3.565,0,0,1,2.793,1.2,4.6,4.6,0,0,1,1.066,3.18v.1a5.036,5.036,0,0,1-.473,2.215,3.589,3.589,0,0,1-1.352,1.527,3.743,3.743,0,0,1-2.02.547,3.556,3.556,0,0,1-2.785-1.2A4.575,4.575,0,0,1,40.2,15.8Zm1.453.172a3.616,3.616,0,0,0,.652,2.258,2.211,2.211,0,0,0,3.5-.012,3.955,3.955,0,0,0,.648-2.418,3.61,3.61,0,0,0-.66-2.254,2.1,2.1,0,0,0-1.754-.863,2.075,2.075,0,0,0-1.727.852A3.925,3.925,0,0,0,41.656,15.867ZM44.7,8h1.75l-2.094,2.3-1.164,0Zm6.383,3.547.047,1.063a3.08,3.08,0,0,1,2.531-1.219q2.68,0,2.7,3.023V20H54.914V14.406a1.946,1.946,0,0,0-.418-1.352,1.675,1.675,0,0,0-1.277-.437,2.086,2.086,0,0,0-1.234.375,2.546,2.546,0,0,0-.828.984V20H49.711V11.547Z" transform="translate(950 4778.113)" fill="#12263f"/>
        <path id="Path_839107" data-name="Path 839107" d="M5,0l5,9H0Z" transform="translate(857.498 4686.613) rotate(90)" fill="#12263f"/>
        <path id="Path_839108" data-name="Path 839108" d="M5,0l5,9H0Z" transform="translate(857.498 4773.613) rotate(90)" fill="#12263f"/>
        <path id="Path_839080" data-name="Path 839080" d="M-10261-9892.5h131.119" transform="translate(10980.536 14584.113)" fill="none" stroke="#12263f" stroke-width="2"/>
        <path id="Path_839081" data-name="Path 839081" d="M-10261-9892.5h131.119" transform="translate(10980.536 14671.113)" fill="none" stroke="#12263f" stroke-width="2"/>
        <g id="Group_1072238" data-name="Group 1072238" transform="translate(616.333 4667.71)">
          <rect id="Rectangle_377755" data-name="Rectangle 377755" width="204" height="47" rx="10" transform="translate(-0.333 0.403)" fill="#e6ff48"/>
          <text id="Género_narrativo" data-name="Género narrativo" transform="translate(39.667 30.404)" fill="#12263f" font-size="17" font-family="Roboto-Bold, Roboto" font-weight="700"><tspan x="0" y="0">Género narrativo</tspan></text>
        </g>
        <g id="Group_1072239" data-name="Group 1072239" transform="translate(63 413)">
          <g id="Group_1072232" data-name="Group 1072232">
            <g id="Group_1072231" data-name="Group 1072231" transform="translate(-149.001 2560.25)">
              <g id="Group_1072178" data-name="Group 1072178" transform="translate(748.632 1777.28)">
                <rect id="Rectangle_377754" data-name="Rectangle 377754" width="105" height="59" rx="10" transform="translate(0.369 -0.281)" fill="#0a5e6b"/>
                <text id="Cuento" transform="translate(25.869 35.719)" fill="#fff" font-size="17" font-family="Roboto-Bold, Roboto" font-weight="700"><tspan x="0" y="0">Cuento</tspan></text>
              </g>
            </g>
          </g>
        </g>
      </g>
    </g>
  </g>
</svg>
