<svg xmlns="http://www.w3.org/2000/svg" width="610" height="438" viewBox="0 0 610 438">
  <g id="Group_1072293" data-name="Group 1072293" transform="translate(11678 6141)">
    <g id="Group_1072287" data-name="Group 1072287" transform="translate(0 37)">
      <rect id="Rectangle_377787" data-name="Rectangle 377787" width="610" height="438" transform="translate(-11678 -6178)" fill="#ebfbf3"/>
      <g id="Group_1072284" data-name="Group 1072284" transform="translate(-12187.734 -11707)">
        <g id="Group_1072254" data-name="Group 1072254" transform="translate(-104 3.005)">
          <path id="Path_839079" data-name="Path 839079" d="M-10165.5-9970v149.681" transform="translate(11111.035 15563.837)" fill="none" stroke="#12263f" stroke-width="2"/>
          <path id="Path_839085" data-name="Path 839085" d="M-10165.5-9970v19.636" transform="translate(11227.035 15630.676)" fill="none" stroke="#12263f" stroke-width="2"/>
          <path id="Path_839086" data-name="Path 839086" d="M-10165.5-9970v19.636" transform="translate(11220.035 15630.676)" fill="none" stroke="#12263f" stroke-width="2"/>
          <path id="Path_839121" data-name="Path 839121" d="M2.939-3.507V0H.889V-9.953H4.771a4.492,4.492,0,0,1,1.972.41A3.022,3.022,0,0,1,8.053-8.377a3.25,3.25,0,0,1,.458,1.719,2.858,2.858,0,0,1-1,2.307,4.171,4.171,0,0,1-2.772.844Zm0-1.661H4.771a1.8,1.8,0,0,0,1.241-.383,1.392,1.392,0,0,0,.427-1.094,1.642,1.642,0,0,0-.431-1.183,1.609,1.609,0,0,0-1.189-.465H2.939ZM14.506,0H12.53V-7.615l-2.358.731V-8.49l4.122-1.477h.212Z" transform="translate(964 5628.996)" fill="#12263f"/>
          <path id="Path_839122" data-name="Path 839122" d="M2.939-3.507V0H.889V-9.953H4.771a4.492,4.492,0,0,1,1.972.41A3.022,3.022,0,0,1,8.053-8.377a3.25,3.25,0,0,1,.458,1.719,2.858,2.858,0,0,1-1,2.307,4.171,4.171,0,0,1-2.772.844Zm0-1.661H4.771a1.8,1.8,0,0,0,1.241-.383,1.392,1.392,0,0,0,.427-1.094,1.642,1.642,0,0,0-.431-1.183,1.609,1.609,0,0,0-1.189-.465H2.939Zm8.777-.684H12.77a1.483,1.483,0,0,0,1.114-.376,1.378,1.378,0,0,0,.362-1,1.218,1.218,0,0,0-.359-.937A1.391,1.391,0,0,0,12.9-8.5a1.458,1.458,0,0,0-.95.311,1,1,0,0,0-.383.81H9.591a2.43,2.43,0,0,1,.42-1.4,2.8,2.8,0,0,1,1.176-.967,3.924,3.924,0,0,1,1.665-.349,3.722,3.722,0,0,1,2.475.755,2.577,2.577,0,0,1,.9,2.082A2.094,2.094,0,0,1,15.8-6a2.709,2.709,0,0,1-1.094.882,2.473,2.473,0,0,1,1.254.9,2.448,2.448,0,0,1,.414,1.422,2.62,2.62,0,0,1-.967,2.126,3.889,3.889,0,0,1-2.56.8,3.688,3.688,0,0,1-2.437-.786,2.567,2.567,0,0,1-.947-2.078h1.976a1.145,1.145,0,0,0,.42.916,1.549,1.549,0,0,0,1.036.355A1.556,1.556,0,0,0,14-1.829a1.286,1.286,0,0,0,.4-.988q0-1.49-1.641-1.49H11.717Z" transform="translate(964 5721.519)" fill="#12263f"/>
          <path id="Path_839123" data-name="Path 839123" d="M2.939-3.507V0H.889V-9.953H4.771a4.492,4.492,0,0,1,1.972.41A3.022,3.022,0,0,1,8.053-8.377a3.25,3.25,0,0,1,.458,1.719,2.858,2.858,0,0,1-1,2.307,4.171,4.171,0,0,1-2.772.844Zm0-1.661H4.771a1.8,1.8,0,0,0,1.241-.383,1.392,1.392,0,0,0,.427-1.094,1.642,1.642,0,0,0-.431-1.183,1.609,1.609,0,0,0-1.189-.465H2.939ZM10-4.895l.574-5.059h5.578v1.647H12.2l-.246,2.14a3.132,3.132,0,0,1,1.5-.376,2.869,2.869,0,0,1,2.229.882,3.522,3.522,0,0,1,.807,2.468,3.609,3.609,0,0,1-.407,1.726A2.871,2.871,0,0,1,14.909-.284a3.639,3.639,0,0,1-1.791.42,3.864,3.864,0,0,1-1.675-.366,2.971,2.971,0,0,1-1.22-1.029,2.8,2.8,0,0,1-.475-1.511H11.7a1.46,1.46,0,0,0,.434.967,1.376,1.376,0,0,0,.974.345,1.215,1.215,0,0,0,1.032-.482A2.233,2.233,0,0,0,14.506-3.3a1.846,1.846,0,0,0-.417-1.3,1.53,1.53,0,0,0-1.183-.451,1.71,1.71,0,0,0-1.142.369l-.191.178Z" transform="translate(1058.653 5777.019)" fill="#12263f"/>
          <path id="Path_839124" data-name="Path 839124" d="M2.939-3.507V0H.889V-9.953H4.771a4.492,4.492,0,0,1,1.972.41A3.022,3.022,0,0,1,8.053-8.377a3.25,3.25,0,0,1,.458,1.719,2.858,2.858,0,0,1-1,2.307,4.171,4.171,0,0,1-2.772.844Zm0-1.661H4.771a1.8,1.8,0,0,0,1.241-.383,1.392,1.392,0,0,0,.427-1.094,1.642,1.642,0,0,0-.431-1.183,1.609,1.609,0,0,0-1.189-.465H2.939ZM15.552-3.746H16.68v1.593H15.552V0H13.576V-2.153H9.5L9.406-3.4l4.149-6.556h2Zm-4.177,0h2.2V-7.26l-.13.226Z" transform="translate(807.199 5777.019)" fill="#12263f"/>
          <path id="Path_839125" data-name="Path 839125" d="M2.939-3.507V0H.889V-9.953H4.771a4.492,4.492,0,0,1,1.972.41A3.022,3.022,0,0,1,8.053-8.377a3.25,3.25,0,0,1,.458,1.719,2.858,2.858,0,0,1-1,2.307,4.171,4.171,0,0,1-2.772.844Zm0-1.661H4.771a1.8,1.8,0,0,0,1.241-.383,1.392,1.392,0,0,0,.427-1.094,1.642,1.642,0,0,0-.431-1.183,1.609,1.609,0,0,0-1.189-.465H2.939ZM16.529,0H9.707V-1.354l3.22-3.432a7.943,7.943,0,0,0,.981-1.265,2.032,2.032,0,0,0,.318-1.025,1.52,1.52,0,0,0-.335-1.042,1.209,1.209,0,0,0-.957-.379,1.3,1.3,0,0,0-1.056.461,1.828,1.828,0,0,0-.386,1.213H9.509a3.263,3.263,0,0,1,.434-1.661A3.059,3.059,0,0,1,11.17-9.663a3.73,3.73,0,0,1,1.8-.427,3.531,3.531,0,0,1,2.389.738,2.612,2.612,0,0,1,.851,2.085,3.347,3.347,0,0,1-.383,1.5,8.357,8.357,0,0,1-1.312,1.784L12.25-1.593h4.279Z" transform="translate(866.199 5655.131)" fill="#12263f"/>
          <g id="Group_1072248" data-name="Group 1072248" transform="translate(131.734)">
            <text id="_" data-name="●
●
●
  " transform="translate(553 5634.416)" fill="#12263f" font-size="16" font-family="SegoeUI-Bold, Segoe UI" font-weight="700"><tspan x="0" y="17">●</tspan><tspan y="17" font-family="Roboto-Bold, Roboto"></tspan><tspan x="0" y="37">●</tspan><tspan y="37" font-family="Roboto-Bold, Roboto"></tspan><tspan x="0" y="57">●</tspan><tspan y="57" font-family="Roboto-Bold, Roboto"></tspan></text>
            <text id="Relativamente_corto_Tiene_inicio_nudo_y_desenlace_Real_o_imaginario" data-name="Relativamente corto
Tiene inicio, nudo y 
desenlace
Real o imaginario" transform="translate(573 5654.865)" fill="#12263f" font-size="16" font-family="Roboto-Regular, Roboto"><tspan x="0" y="0">Relativamente corto</tspan><tspan x="0" y="20">Tiene inicio, nudo y </tspan><tspan x="0" y="40">desenlace</tspan><tspan x="0" y="60">Real o imaginario</tspan></text>
          </g>
          <path id="Path_839126" data-name="Path 839126" d="M-35.8-4.6h-2.672V0H-39.98V-11.375h3.766a4.457,4.457,0,0,1,2.957.875,3.148,3.148,0,0,1,1.035,2.547A3.062,3.062,0,0,1-32.8-6.1a3.428,3.428,0,0,1-1.6,1.18l2.672,4.828V0h-1.609Zm-2.672-1.227h2.3a2.6,2.6,0,0,0,1.777-.579,1.959,1.959,0,0,0,.66-1.55,2.062,2.062,0,0,0-.629-1.62,2.663,2.663,0,0,0-1.816-.571h-2.3ZM-26.84.156a3.693,3.693,0,0,1-2.8-1.129,4.19,4.19,0,0,1-1.078-3.02v-.266a5.073,5.073,0,0,1,.48-2.246,3.748,3.748,0,0,1,1.344-1.547,3.378,3.378,0,0,1,1.871-.559,3.166,3.166,0,0,1,2.563,1.086,4.7,4.7,0,0,1,.914,3.109v.6H-29.27a3,3,0,0,0,.73,2.02,2.3,2.3,0,0,0,1.777.77,2.517,2.517,0,0,0,1.3-.312,3.259,3.259,0,0,0,.93-.828l.883.688A3.55,3.55,0,0,1-26.84.156Zm-.18-7.578a1.928,1.928,0,0,0-1.469.637A3.1,3.1,0,0,0-29.223-5h4.234v-.109a2.753,2.753,0,0,0-.594-1.707A1.815,1.815,0,0,0-27.02-7.422ZM-20.3,0h-1.445V-12H-20.3Zm7.531,0a3.036,3.036,0,0,1-.2-.891A3.225,3.225,0,0,1-15.379.156,2.984,2.984,0,0,1-17.43-.551a2.287,2.287,0,0,1-.8-1.793,2.39,2.39,0,0,1,1-2.051,4.733,4.733,0,0,1,2.824-.73H-13v-.664A1.623,1.623,0,0,0-13.449-7a1.821,1.821,0,0,0-1.336-.449,2.107,2.107,0,0,0-1.3.391,1.151,1.151,0,0,0-.523.945h-1.453a2,2,0,0,1,.449-1.223,3.066,3.066,0,0,1,1.219-.934A4.1,4.1,0,0,1-14.7-8.609a3.342,3.342,0,0,1,2.289.73,2.635,2.635,0,0,1,.859,2.012v3.891a4.757,4.757,0,0,0,.3,1.852V0Zm-2.4-1.1a2.54,2.54,0,0,0,1.289-.352A2.127,2.127,0,0,0-13-2.367V-4.1h-1.133q-2.656,0-2.656,1.555a1.316,1.316,0,0,0,.453,1.063A1.742,1.742,0,0,0-15.168-1.1Zm9.273.078a2.082,2.082,0,0,0,1.352-.469A1.649,1.649,0,0,0-3.9-2.664h1.367a2.621,2.621,0,0,1-.5,1.383A3.293,3.293,0,0,1-4.266-.234,3.55,3.55,0,0,1-5.895.156,3.482,3.482,0,0,1-8.641-1,4.59,4.59,0,0,1-9.66-4.148v-.242a5.089,5.089,0,0,1,.453-2.2,3.451,3.451,0,0,1,1.3-1.492,3.7,3.7,0,0,1,2-.531,3.39,3.39,0,0,1,2.363.852,3.043,3.043,0,0,1,1,2.211H-3.9a1.992,1.992,0,0,0-.621-1.348A1.932,1.932,0,0,0-5.9-7.422a2.023,2.023,0,0,0-1.707.793,3.724,3.724,0,0,0-.605,2.293v.273a3.65,3.65,0,0,0,.6,2.25A2.033,2.033,0,0,0-5.895-1.023ZM.66,0H-.785V-8.453H.66ZM-.9-10.7a.863.863,0,0,1,.215-.594.807.807,0,0,1,.637-.242.819.819,0,0,1,.641.242.854.854,0,0,1,.219.594.826.826,0,0,1-.219.586.834.834,0,0,1-.641.234.821.821,0,0,1-.637-.234A.834.834,0,0,1-.9-10.7ZM2.59-4.3a4.993,4.993,0,0,1,.488-2.234A3.643,3.643,0,0,1,4.438-8.07a3.7,3.7,0,0,1,1.988-.539,3.565,3.565,0,0,1,2.793,1.2,4.6,4.6,0,0,1,1.066,3.18v.1a5.036,5.036,0,0,1-.473,2.215A3.589,3.589,0,0,1,8.461-.391a3.743,3.743,0,0,1-2.02.547,3.556,3.556,0,0,1-2.785-1.2A4.575,4.575,0,0,1,2.59-4.2Zm1.453.172A3.616,3.616,0,0,0,4.7-1.875a2.088,2.088,0,0,0,1.746.852,2.075,2.075,0,0,0,1.75-.863A3.955,3.955,0,0,0,8.84-4.3a3.61,3.61,0,0,0-.66-2.254,2.1,2.1,0,0,0-1.754-.863A2.075,2.075,0,0,0,4.7-6.57,3.925,3.925,0,0,0,4.043-4.133ZM7.082-12h1.75L6.738-9.7l-1.164,0Zm6.383,3.547.047,1.063a3.08,3.08,0,0,1,2.531-1.219q2.68,0,2.7,3.023V0H17.3V-5.594a1.946,1.946,0,0,0-.418-1.352,1.675,1.675,0,0,0-1.277-.437,2.086,2.086,0,0,0-1.234.375,2.546,2.546,0,0,0-.828.984V0H12.1V-8.453ZM24.535-4.3a4.952,4.952,0,0,1,.922-3.129,2.915,2.915,0,0,1,2.414-1.184,2.932,2.932,0,0,1,2.352,1.016V-12h1.445V0H30.34l-.07-.906A2.943,2.943,0,0,1,27.855.156a2.887,2.887,0,0,1-2.395-1.2,5.008,5.008,0,0,1-.926-3.141Zm1.445.164a3.749,3.749,0,0,0,.594,2.25,1.92,1.92,0,0,0,1.641.813A2.108,2.108,0,0,0,30.223-2.3V-6.187a2.125,2.125,0,0,0-1.992-1.2,1.929,1.929,0,0,0-1.656.82A4.128,4.128,0,0,0,25.98-4.133ZM37.418.156a3.693,3.693,0,0,1-2.8-1.129,4.19,4.19,0,0,1-1.078-3.02v-.266a5.073,5.073,0,0,1,.48-2.246,3.748,3.748,0,0,1,1.344-1.547,3.378,3.378,0,0,1,1.871-.559A3.166,3.166,0,0,1,39.8-7.523a4.7,4.7,0,0,1,.914,3.109v.6H34.988a3,3,0,0,0,.73,2.02,2.3,2.3,0,0,0,1.777.77,2.517,2.517,0,0,0,1.3-.312,3.259,3.259,0,0,0,.93-.828l.883.688A3.55,3.55,0,0,1,37.418.156Zm-.18-7.578a1.928,1.928,0,0,0-1.469.637A3.1,3.1,0,0,0,35.035-5H39.27v-.109a2.753,2.753,0,0,0-.594-1.707A1.815,1.815,0,0,0,37.238-7.422ZM-50.891,20h-1.445V11.547h1.445ZM-52.453,9.3a.863.863,0,0,1,.215-.594.807.807,0,0,1,.637-.242.819.819,0,0,1,.641.242.854.854,0,0,1,.219.594.826.826,0,0,1-.219.586.834.834,0,0,1-.641.234.821.821,0,0,1-.637-.234A.834.834,0,0,1-52.453,9.3Zm5.242,2.242.047,1.063a3.08,3.08,0,0,1,2.531-1.219q2.68,0,2.7,3.023V20h-1.445V14.406a1.946,1.946,0,0,0-.418-1.352,1.675,1.675,0,0,0-1.277-.437,2.086,2.086,0,0,0-1.234.375,2.546,2.546,0,0,0-.828.984V20h-1.445V11.547ZM-39.039,20V12.664h-1.336V11.547h1.336V10.68a2.878,2.878,0,0,1,.727-2.1,2.745,2.745,0,0,1,2.055-.742,3.816,3.816,0,0,1,.992.132l-.078,1.165a4.151,4.151,0,0,0-.781-.07,1.41,1.41,0,0,0-1.086.411,1.669,1.669,0,0,0-.383,1.18v.893h1.8v1.117h-1.8V20Zm8.93-7.156a4.331,4.331,0,0,0-.711-.055A1.9,1.9,0,0,0-32.75,14v6H-34.2V11.547h1.406l.023.977a2.251,2.251,0,0,1,2.016-1.133,1.477,1.477,0,0,1,.641.109ZM-23.875,20a3.036,3.036,0,0,1-.2-.891,3.225,3.225,0,0,1-2.406,1.047,2.984,2.984,0,0,1-2.051-.707,2.287,2.287,0,0,1-.8-1.793,2.39,2.39,0,0,1,1-2.051,4.733,4.733,0,0,1,2.824-.73H-24.1v-.664A1.623,1.623,0,0,0-24.555,13a1.821,1.821,0,0,0-1.336-.449,2.107,2.107,0,0,0-1.3.391,1.151,1.151,0,0,0-.523.945h-1.453a2,2,0,0,1,.449-1.223,3.066,3.066,0,0,1,1.219-.934,4.1,4.1,0,0,1,1.691-.344,3.342,3.342,0,0,1,2.289.73,2.635,2.635,0,0,1,.859,2.012v3.891a4.757,4.757,0,0,0,.3,1.852V20Zm-2.4-1.1a2.54,2.54,0,0,0,1.289-.352,2.127,2.127,0,0,0,.883-.914V15.9h-1.133q-2.656,0-2.656,1.555a1.316,1.316,0,0,0,.453,1.063A1.742,1.742,0,0,0-26.273,18.9Zm5.5-3.2a4.993,4.993,0,0,1,.488-2.234,3.643,3.643,0,0,1,1.359-1.531,3.7,3.7,0,0,1,1.988-.539,3.565,3.565,0,0,1,2.793,1.2,4.6,4.6,0,0,1,1.066,3.18v.1a5.036,5.036,0,0,1-.473,2.215A3.589,3.589,0,0,1-14.9,19.609a3.743,3.743,0,0,1-2.02.547,3.556,3.556,0,0,1-2.785-1.2A4.575,4.575,0,0,1-20.773,15.8Zm1.453.172a3.616,3.616,0,0,0,.652,2.258,2.088,2.088,0,0,0,1.746.852,2.075,2.075,0,0,0,1.75-.863,3.955,3.955,0,0,0,.648-2.418,3.61,3.61,0,0,0-.66-2.254,2.1,2.1,0,0,0-1.754-.863,2.075,2.075,0,0,0-1.727.852A3.925,3.925,0,0,0-19.32,15.867ZM-7.18,12.844a4.331,4.331,0,0,0-.711-.055A1.9,1.9,0,0,0-9.82,14v6h-1.445V11.547h1.406l.023.977A2.251,2.251,0,0,1-7.82,11.391a1.477,1.477,0,0,1,.641.109Zm.828,2.859a4.952,4.952,0,0,1,.922-3.129,2.915,2.915,0,0,1,2.414-1.184A2.932,2.932,0,0,1-.664,12.406V8H.781V20H-.547l-.07-.906a2.943,2.943,0,0,1-2.414,1.063,2.887,2.887,0,0,1-2.395-1.2,5.008,5.008,0,0,1-.926-3.141Zm1.445.164a3.749,3.749,0,0,0,.594,2.25,1.92,1.92,0,0,0,1.641.813A2.108,2.108,0,0,0-.664,17.7V13.813a2.125,2.125,0,0,0-1.992-1.2,1.929,1.929,0,0,0-1.656.82A4.128,4.128,0,0,0-4.906,15.867ZM4.594,20H3.148V11.547H4.594ZM3.031,9.3a.863.863,0,0,1,.215-.594.807.807,0,0,1,.637-.242.819.819,0,0,1,.641.242.854.854,0,0,1,.219.594.826.826,0,0,1-.219.586.834.834,0,0,1-.641.234.821.821,0,0,1-.637-.234A.834.834,0,0,1,3.031,9.3Zm5.242,2.242.047,1.063a3.08,3.08,0,0,1,2.531-1.219q2.68,0,2.7,3.023V20H12.109V14.406a1.946,1.946,0,0,0-.418-1.352,1.675,1.675,0,0,0-1.277-.437,2.086,2.086,0,0,0-1.234.375,2.546,2.546,0,0,0-.828.984V20H6.906V11.547ZM20.953,20a3.036,3.036,0,0,1-.2-.891,3.225,3.225,0,0,1-2.406,1.047,2.984,2.984,0,0,1-2.051-.707,2.287,2.287,0,0,1-.8-1.793,2.39,2.39,0,0,1,1-2.051,4.733,4.733,0,0,1,2.824-.73h1.406v-.664A1.623,1.623,0,0,0,20.273,13a1.821,1.821,0,0,0-1.336-.449,2.107,2.107,0,0,0-1.3.391,1.151,1.151,0,0,0-.523.945H15.664a2,2,0,0,1,.449-1.223,3.066,3.066,0,0,1,1.219-.934,4.1,4.1,0,0,1,1.691-.344,3.342,3.342,0,0,1,2.289.73,2.635,2.635,0,0,1,.859,2.012v3.891a4.757,4.757,0,0,0,.3,1.852V20Zm-2.4-1.1a2.54,2.54,0,0,0,1.289-.352,2.127,2.127,0,0,0,.883-.914V15.9H19.594q-2.656,0-2.656,1.555a1.316,1.316,0,0,0,.453,1.063A1.742,1.742,0,0,0,18.555,18.9Zm9.273.078a2.082,2.082,0,0,0,1.352-.469,1.649,1.649,0,0,0,.641-1.172h1.367a2.621,2.621,0,0,1-.5,1.383,3.293,3.293,0,0,1-1.23,1.047,3.55,3.55,0,0,1-1.629.391A3.482,3.482,0,0,1,25.082,19a4.59,4.59,0,0,1-1.02-3.152v-.242a5.089,5.089,0,0,1,.453-2.2,3.451,3.451,0,0,1,1.3-1.492,3.7,3.7,0,0,1,2-.531,3.39,3.39,0,0,1,2.363.852,3.043,3.043,0,0,1,1,2.211H29.82a1.992,1.992,0,0,0-.621-1.348,1.932,1.932,0,0,0-1.379-.527,2.023,2.023,0,0,0-1.707.793,3.724,3.724,0,0,0-.605,2.293v.273a3.65,3.65,0,0,0,.6,2.25A2.033,2.033,0,0,0,27.828,18.977ZM34.383,20H32.938V11.547h1.445ZM32.82,9.3a.863.863,0,0,1,.215-.594.807.807,0,0,1,.637-.242.819.819,0,0,1,.641.242.854.854,0,0,1,.219.594.826.826,0,0,1-.219.586.834.834,0,0,1-.641.234.821.821,0,0,1-.637-.234A.834.834,0,0,1,32.82,9.3ZM36.313,15.7a4.993,4.993,0,0,1,.488-2.234A3.643,3.643,0,0,1,38.16,11.93a3.7,3.7,0,0,1,1.988-.539,3.565,3.565,0,0,1,2.793,1.2,4.6,4.6,0,0,1,1.066,3.18v.1a5.036,5.036,0,0,1-.473,2.215,3.589,3.589,0,0,1-1.352,1.527,3.743,3.743,0,0,1-2.02.547,3.556,3.556,0,0,1-2.785-1.2A4.575,4.575,0,0,1,36.313,15.8Zm1.453.172a3.616,3.616,0,0,0,.652,2.258,2.211,2.211,0,0,0,3.5-.012,3.955,3.955,0,0,0,.648-2.418,3.61,3.61,0,0,0-.66-2.254,2.1,2.1,0,0,0-1.754-.863,2.075,2.075,0,0,0-1.727.852A3.925,3.925,0,0,0,37.766,15.867ZM40.8,8h1.75l-2.094,2.3-1.164,0Zm6.383,3.547.047,1.063a3.08,3.08,0,0,1,2.531-1.219q2.68,0,2.7,3.023V20H51.023V14.406a1.946,1.946,0,0,0-.418-1.352,1.675,1.675,0,0,0-1.277-.437,2.086,2.086,0,0,0-1.234.375,2.546,2.546,0,0,0-.828.984V20H45.82V11.547Z" transform="translate(1094.371 5712.219)" fill="#12263f"/>
          <g id="Group_1072245" data-name="Group 1072245" transform="translate(-4680.919 6560.019) rotate(-90)">
            <path id="Path_839082" data-name="Path 839082" d="M-10165.5-9970v8.37" transform="translate(11008.5 15640.494)" fill="none" stroke="#12263f" stroke-width="2"/>
            <path id="Path_839083" data-name="Path 839083" d="M-10165.5-9970v8.37" transform="translate(11008.5 15653.494)" fill="none" stroke="#12263f" stroke-width="2"/>
            <path id="Path_839084" data-name="Path 839084" d="M-10165.5-9970v8.37" transform="translate(11008.5 15668.494)" fill="none" stroke="#12263f" stroke-width="2"/>
            <path id="Polygon_8" data-name="Polygon 8" d="M5,0l5,9H0Z" transform="translate(848 5715.865) rotate(180)" fill="#12263f"/>
          </g>
          <path id="Path_839081" data-name="Path 839081" d="M-10261-9892.5h200.954" transform="translate(11127.199 15562.995)" fill="none" stroke="#12263f" stroke-width="2"/>
          <path id="Path_839087" data-name="Path 839087" d="M-10261-9776.782V-9892.5h212.016v145.958" transform="translate(11097.941 15635.654)" fill="none" stroke="#12263f" stroke-width="2"/>
          <path id="Path_839088" data-name="Path 839088" d="M-10261-9842.669V-9892.5h85.021v49.832" transform="translate(11055.404 15751.373)" fill="none" stroke="#12263f" stroke-width="2"/>
          <path id="Path_839089" data-name="Path 839089" d="M-10261-9842.669V-9892.5h143.088v49.832" transform="translate(11231.947 15751.373)" fill="none" stroke="#12263f" stroke-width="2"/>
          <g id="Group_1072238" data-name="Group 1072238" transform="translate(843.333 5559.592)">
            <rect id="Rectangle_377755" data-name="Rectangle 377755" width="204" height="47" rx="10" transform="translate(-0.333 0.403)" fill="#e6ff48"/>
            <text id="Género_narrativo" data-name="Género narrativo" transform="translate(39.667 30.404)" fill="#12263f" font-size="17" font-family="Roboto-Bold, Roboto" font-weight="700"><tspan x="0" y="0">Género narrativo</tspan></text>
          </g>
          <g id="Group_1072246" data-name="Group 1072246" transform="translate(784.773 5787.55)">
            <rect id="Rectangle_377755-2" data-name="Rectangle 377755" width="105" height="47" rx="10" transform="translate(-0.333 0.403)" fill="#e6ff48"/>
            <text id="Origen" transform="translate(28.667 29.404)" fill="#12263f" font-size="16" font-family="Roboto-Bold, Roboto" font-weight="700"><tspan x="0" y="0">Origen</tspan></text>
          </g>
          <g id="Group_1072251" data-name="Group 1072251" transform="translate(924.28 5883.385)">
            <g id="Rectangle_377755-3" data-name="Rectangle 377755" transform="translate(-0.333 0.403)" fill="#fff" stroke="#12263f" stroke-width="2">
              <rect width="94" height="47" rx="10" stroke="none"/>
              <rect x="1" y="1" width="92" height="45" rx="9" fill="none"/>
            </g>
            <text id="Fantásticos" transform="translate(5.166 29.404)" fill="#12263f" font-size="16" font-family="Roboto-Bold, Roboto" font-weight="700"><tspan x="0" y="0">Fantásticos</tspan></text>
          </g>
          <g id="Group_1072253" data-name="Group 1072253" transform="translate(1079.96 5883.385)">
            <g id="Rectangle_377755-4" data-name="Rectangle 377755" transform="translate(-0.333 0.403)" fill="#fff" stroke="#12263f" stroke-width="2">
              <rect width="73" height="47" rx="10" stroke="none"/>
              <rect x="1" y="1" width="71" height="45" rx="9" fill="none"/>
            </g>
            <text id="Ciencia_ficción" data-name="Ciencia
ficción" transform="translate(36.167 21.404)" fill="#12263f" font-size="16" font-family="Roboto-Bold, Roboto" font-weight="700"><tspan x="-26.742" y="0">Ciencia</tspan><tspan x="-24.336" y="16">ficción</tspan></text>
          </g>
          <g id="Group_1072250" data-name="Group 1072250" transform="translate(839.123 5883.385)">
            <g id="Rectangle_377755-5" data-name="Rectangle 377755" transform="translate(-0.333 0.403)" fill="#fff" stroke="#12263f" stroke-width="2">
              <rect width="81.268" height="47" rx="10" stroke="none"/>
              <rect x="1" y="1" width="79.268" height="45" rx="9" fill="none"/>
            </g>
            <text id="Literarios" transform="translate(6.3 29.404)" fill="#12263f" font-size="16" font-family="Roboto-Bold, Roboto" font-weight="700"><tspan x="0" y="0">Literarios</tspan></text>
          </g>
          <g id="Group_1072252" data-name="Group 1072252" transform="translate(1022.17 5883.385)">
            <g id="Rectangle_377755-6" data-name="Rectangle 377755" transform="translate(-0.333 0.403)" fill="#fff" stroke="#12263f" stroke-width="2">
              <rect width="54.237" height="47" rx="10" stroke="none"/>
              <rect x="1" y="1" width="52.237" height="45" rx="9" fill="none"/>
            </g>
            <text id="Terror" transform="translate(4.786 29.403)" fill="#12263f" font-size="16" font-family="Roboto-Bold, Roboto" font-weight="700"><tspan x="0" y="0">Terror</tspan></text>
          </g>
          <g id="Group_1072247" data-name="Group 1072247" transform="translate(996.788 5787.55)">
            <rect id="Rectangle_377755-7" data-name="Rectangle 377755" width="105" height="47" rx="10" transform="translate(-0.333 0.403)" fill="#e6ff48"/>
            <text id="Tema" transform="translate(32.167 29.404)" fill="#12263f" font-size="16" font-family="Roboto-Bold, Roboto" font-weight="700"><tspan x="0" y="0">Tema</tspan></text>
          </g>
          <g id="Group_1072239" data-name="Group 1072239" transform="translate(290 1304.882)">
            <g id="Group_1072232" data-name="Group 1072232">
              <g id="Group_1072231" data-name="Group 1072231" transform="translate(-149.001 2560.25)">
                <g id="Group_1072178" data-name="Group 1072178" transform="translate(748.632 1777.28)">
                  <rect id="Rectangle_377754" data-name="Rectangle 377754" width="105" height="59" rx="10" transform="translate(0.369 -0.281)" fill="#0a5e6b"/>
                  <text id="Cuento" transform="translate(25.869 35.719)" fill="#fff" font-size="17" font-family="Roboto-Bold, Roboto" font-weight="700"><tspan x="0" y="0">Cuento</tspan></text>
                </g>
              </g>
            </g>
          </g>
          <g id="Path_839127" data-name="Path 839127" transform="translate(753.823 5883.788)" fill="#fff">
            <path d="M 71.26799774169922 46 L 10.0000057220459 46 C 5.037384033203125 46 1.000006198883057 41.96262359619141 1.000006198883057 37 L 1.000006198883057 10 C 1.000006198883057 5.037377834320068 5.037384033203125 1 10.0000057220459 1 L 71.26799774169922 1 C 76.23061370849609 1 80.26799774169922 5.037377834320068 80.26799774169922 10 L 80.26799774169922 37 C 80.26799774169922 41.96262359619141 76.23061370849609 46 71.26799774169922 46 Z" stroke="none"/>
            <path d="M 9.999992370605469 2 C 5.588783264160156 2 1.999992370605469 5.588787078857422 1.999992370605469 10 L 1.999992370605469 37 C 1.999992370605469 41.41121292114258 5.588783264160156 45 9.999992370605469 45 L 71.26798248291016 45 C 75.67919158935547 45 79.26798248291016 41.41121292114258 79.26798248291016 37 L 79.26798248291016 10 C 79.26798248291016 5.588787078857422 75.67919158935547 2 71.26798248291016 2 L 9.999992370605469 2 M 9.999992370605469 0 L 71.26798248291016 0 C 76.79084014892578 0 81.26798248291016 4.477153778076172 81.26798248291016 10 L 81.26798248291016 37 C 81.26798248291016 42.52284622192383 76.79084014892578 47 71.26798248291016 47 L 9.999992370605469 47 C 4.477149963378906 47 -7.62939453125e-06 42.52284622192383 -7.62939453125e-06 37 L -7.62939453125e-06 10 C -7.62939453125e-06 4.477153778076172 4.477149963378906 0 9.999992370605469 0 Z" stroke="none" fill="#12263f"/>
          </g>
          <g id="Group_1072284-2" data-name="Group 1072284" transform="translate(745.937 5883.385)">
            <text id="Populares" transform="translate(11.968 29.404)" fill="#12263f" font-size="16" font-family="Roboto-Bold, Roboto" font-weight="700"><tspan x="0" y="0">Populares</tspan></text>
          </g>
        </g>
      </g>
    </g>
  </g>
</svg>
