<svg xmlns="http://www.w3.org/2000/svg" width="610" height="438" viewBox="0 0 610 438">
  <g id="Group_1072295" data-name="Group 1072295" transform="translate(11678 5582)">
    <g id="Group_1072288" data-name="Group 1072288" transform="translate(0 99)">
      <rect id="Rectangle_377788" data-name="Rectangle 377788" width="610" height="438" transform="translate(-11678 -5681)" fill="#faffd7"/>
      <g id="Group_1072285" data-name="Group 1072285" transform="translate(-12187.734 -11210)">
        <g id="Group_1072254" data-name="Group 1072254" transform="translate(-104 3.005)">
          <path id="Path_839079" data-name="Path 839079" d="M-10165.5-9970v149.681" transform="translate(11111.035 15563.837)" fill="none" stroke="#12263f" stroke-width="2"/>
          <path id="Path_839085" data-name="Path 839085" d="M-10165.5-9970v19.636" transform="translate(11208.837 15630.676)" fill="none" stroke="#12263f" stroke-width="2"/>
          <path id="Path_839086" data-name="Path 839086" d="M-10165.5-9970v19.636" transform="translate(11201.837 15630.676)" fill="none" stroke="#12263f" stroke-width="2"/>
          <path id="Path_839134" data-name="Path 839134" d="M2.939-3.507V0H.889V-9.953H4.771a4.492,4.492,0,0,1,1.972.41A3.022,3.022,0,0,1,8.053-8.377a3.25,3.25,0,0,1,.458,1.719,2.858,2.858,0,0,1-1,2.307,4.171,4.171,0,0,1-2.772.844Zm0-1.661H4.771a1.8,1.8,0,0,0,1.241-.383,1.392,1.392,0,0,0,.427-1.094,1.642,1.642,0,0,0-.431-1.183,1.609,1.609,0,0,0-1.189-.465H2.939ZM14.506,0H12.53V-7.615l-2.358.731V-8.49l4.122-1.477h.212Z" transform="translate(964 5628.996)" fill="#12263f"/>
          <path id="Path_839135" data-name="Path 839135" d="M2.939-3.507V0H.889V-9.953H4.771a4.492,4.492,0,0,1,1.972.41A3.022,3.022,0,0,1,8.053-8.377a3.25,3.25,0,0,1,.458,1.719,2.858,2.858,0,0,1-1,2.307,4.171,4.171,0,0,1-2.772.844Zm0-1.661H4.771a1.8,1.8,0,0,0,1.241-.383,1.392,1.392,0,0,0,.427-1.094,1.642,1.642,0,0,0-.431-1.183,1.609,1.609,0,0,0-1.189-.465H2.939Zm8.777-.684H12.77a1.483,1.483,0,0,0,1.114-.376,1.378,1.378,0,0,0,.362-1,1.218,1.218,0,0,0-.359-.937A1.391,1.391,0,0,0,12.9-8.5a1.458,1.458,0,0,0-.95.311,1,1,0,0,0-.383.81H9.591a2.43,2.43,0,0,1,.42-1.4,2.8,2.8,0,0,1,1.176-.967,3.924,3.924,0,0,1,1.665-.349,3.722,3.722,0,0,1,2.475.755,2.577,2.577,0,0,1,.9,2.082A2.094,2.094,0,0,1,15.8-6a2.709,2.709,0,0,1-1.094.882,2.473,2.473,0,0,1,1.254.9,2.448,2.448,0,0,1,.414,1.422,2.62,2.62,0,0,1-.967,2.126,3.889,3.889,0,0,1-2.56.8,3.688,3.688,0,0,1-2.437-.786,2.567,2.567,0,0,1-.947-2.078h1.976a1.145,1.145,0,0,0,.42.916,1.549,1.549,0,0,0,1.036.355A1.556,1.556,0,0,0,14-1.829a1.286,1.286,0,0,0,.4-.988q0-1.49-1.641-1.49H11.717Z" transform="translate(964 5721.519)" fill="#12263f"/>
          <path id="Path_839136" data-name="Path 839136" d="M2.939-3.507V0H.889V-9.953H4.771a4.492,4.492,0,0,1,1.972.41A3.022,3.022,0,0,1,8.053-8.377a3.25,3.25,0,0,1,.458,1.719,2.858,2.858,0,0,1-1,2.307,4.171,4.171,0,0,1-2.772.844Zm0-1.661H4.771a1.8,1.8,0,0,0,1.241-.383,1.392,1.392,0,0,0,.427-1.094,1.642,1.642,0,0,0-.431-1.183,1.609,1.609,0,0,0-1.189-.465H2.939Zm12.127-4.888v1.627h-.191a3.356,3.356,0,0,0-2.157.7,2.833,2.833,0,0,0-.981,1.88,2.691,2.691,0,0,1,2-.807,2.535,2.535,0,0,1,2.064.93,3.727,3.727,0,0,1,.766,2.447,3.666,3.666,0,0,1-.42,1.757A3.015,3.015,0,0,1,14.96-.3a3.456,3.456,0,0,1-1.74.438,3.227,3.227,0,0,1-2.54-1.094,4.246,4.246,0,0,1-.967-2.919v-.711a6.389,6.389,0,0,1,.612-2.861,4.486,4.486,0,0,1,1.757-1.921,5.148,5.148,0,0,1,2.656-.687Zm-1.928,4.99a1.578,1.578,0,0,0-.868.249,1.5,1.5,0,0,0-.574.658v.6a2.66,2.66,0,0,0,.39,1.545,1.259,1.259,0,0,0,1.094.556,1.245,1.245,0,0,0,1.029-.5,2.045,2.045,0,0,0,.393-1.3,2.041,2.041,0,0,0-.4-1.31A1.292,1.292,0,0,0,13.139-5.065Z" transform="translate(1003 5655.131)" fill="#12263f"/>
          <path id="Path_839137" data-name="Path 839137" d="M2.939-3.507V0H.889V-9.953H4.771a4.492,4.492,0,0,1,1.972.41A3.022,3.022,0,0,1,8.053-8.377a3.25,3.25,0,0,1,.458,1.719,2.858,2.858,0,0,1-1,2.307,4.171,4.171,0,0,1-2.772.844Zm0-1.661H4.771a1.8,1.8,0,0,0,1.241-.383,1.392,1.392,0,0,0,.427-1.094,1.642,1.642,0,0,0-.431-1.183,1.609,1.609,0,0,0-1.189-.465H2.939ZM10-4.895l.574-5.059h5.578v1.647H12.2l-.246,2.14a3.132,3.132,0,0,1,1.5-.376,2.869,2.869,0,0,1,2.229.882,3.522,3.522,0,0,1,.807,2.468,3.609,3.609,0,0,1-.407,1.726A2.871,2.871,0,0,1,14.909-.284a3.639,3.639,0,0,1-1.791.42,3.864,3.864,0,0,1-1.675-.366,2.971,2.971,0,0,1-1.22-1.029,2.8,2.8,0,0,1-.475-1.511H11.7a1.46,1.46,0,0,0,.434.967,1.376,1.376,0,0,0,.974.345,1.215,1.215,0,0,0,1.032-.482A2.233,2.233,0,0,0,14.506-3.3a1.846,1.846,0,0,0-.417-1.3,1.53,1.53,0,0,0-1.183-.451,1.71,1.71,0,0,0-1.142.369l-.191.178Z" transform="translate(1058.653 5777.019)" fill="#12263f"/>
          <path id="Path_839138" data-name="Path 839138" d="M2.939-3.507V0H.889V-9.953H4.771a4.492,4.492,0,0,1,1.972.41A3.022,3.022,0,0,1,8.053-8.377a3.25,3.25,0,0,1,.458,1.719,2.858,2.858,0,0,1-1,2.307,4.171,4.171,0,0,1-2.772.844Zm0-1.661H4.771a1.8,1.8,0,0,0,1.241-.383,1.392,1.392,0,0,0,.427-1.094,1.642,1.642,0,0,0-.431-1.183,1.609,1.609,0,0,0-1.189-.465H2.939ZM15.552-3.746H16.68v1.593H15.552V0H13.576V-2.153H9.5L9.406-3.4l4.149-6.556h2Zm-4.177,0h2.2V-7.26l-.13.226Z" transform="translate(807.199 5777.019)" fill="#12263f"/>
          <path id="Path_839139" data-name="Path 839139" d="M2.939-3.507V0H.889V-9.953H4.771a4.492,4.492,0,0,1,1.972.41A3.022,3.022,0,0,1,8.053-8.377a3.25,3.25,0,0,1,.458,1.719,2.858,2.858,0,0,1-1,2.307,4.171,4.171,0,0,1-2.772.844Zm0-1.661H4.771a1.8,1.8,0,0,0,1.241-.383,1.392,1.392,0,0,0,.427-1.094,1.642,1.642,0,0,0-.431-1.183,1.609,1.609,0,0,0-1.189-.465H2.939ZM16.529,0H9.707V-1.354l3.22-3.432a7.943,7.943,0,0,0,.981-1.265,2.032,2.032,0,0,0,.318-1.025,1.52,1.52,0,0,0-.335-1.042,1.209,1.209,0,0,0-.957-.379,1.3,1.3,0,0,0-1.056.461,1.828,1.828,0,0,0-.386,1.213H9.509a3.263,3.263,0,0,1,.434-1.661A3.059,3.059,0,0,1,11.17-9.663a3.73,3.73,0,0,1,1.8-.427,3.531,3.531,0,0,1,2.389.738,2.612,2.612,0,0,1,.851,2.085,3.347,3.347,0,0,1-.383,1.5,8.357,8.357,0,0,1-1.312,1.784L12.25-1.593h4.279Z" transform="translate(866.199 5655.131)" fill="#12263f"/>
          <g id="Group_1072248" data-name="Group 1072248" transform="translate(131.734)">
            <text id="_" data-name="●
●
●
  " transform="translate(553 5634.416)" fill="#12263f" font-size="16" font-family="SegoeUI-Bold, Segoe UI" font-weight="700"><tspan x="0" y="17">●</tspan><tspan y="17" font-family="Roboto-Bold, Roboto"></tspan><tspan x="0" y="37">●</tspan><tspan y="37" font-family="Roboto-Bold, Roboto"></tspan><tspan x="0" y="57">●</tspan><tspan y="57" font-family="Roboto-Bold, Roboto"></tspan></text>
            <text id="Relativamente_corto_Tiene_inicio_nudo_y_desenlace_Real_o_imaginario" data-name="Relativamente corto
Tiene inicio, nudo y 
desenlace
Real o imaginario" transform="translate(573 5654.865)" fill="#12263f" font-size="16" font-family="Roboto-Regular, Roboto"><tspan x="0" y="0">Relativamente corto</tspan><tspan x="0" y="20">Tiene inicio, nudo y </tspan><tspan x="0" y="40">desenlace</tspan><tspan x="0" y="60">Real o imaginario</tspan></text>
          </g>
          <path id="Path_839081" data-name="Path 839081" d="M-10261-9892.5h182.756" transform="translate(11127.199 15562.995)" fill="none" stroke="#12263f" stroke-width="2"/>
          <path id="Path_839087" data-name="Path 839087" d="M-10261-9776.782V-9892.5h212.016v145.958" transform="translate(11097.941 15635.654)" fill="none" stroke="#12263f" stroke-width="2"/>
          <path id="Path_839088" data-name="Path 839088" d="M-10261-9842.669V-9892.5h85.021v49.832" transform="translate(11055.404 15751.373)" fill="none" stroke="#12263f" stroke-width="2"/>
          <path id="Path_839089" data-name="Path 839089" d="M-10261-9842.669V-9892.5h143.088v49.832" transform="translate(11231.947 15751.373)" fill="none" stroke="#12263f" stroke-width="2"/>
          <g id="Group_1072238" data-name="Group 1072238" transform="translate(843.333 5559.592)">
            <rect id="Rectangle_377755" data-name="Rectangle 377755" width="204" height="47" rx="10" transform="translate(-0.333 0.403)" fill="#e6ff48"/>
            <text id="Género_narrativo" data-name="Género narrativo" transform="translate(39.667 30.404)" fill="#12263f" font-size="17" font-family="Roboto-Bold, Roboto" font-weight="700"><tspan x="0" y="0">Género narrativo</tspan></text>
          </g>
          <g id="Group_1072246" data-name="Group 1072246" transform="translate(784.773 5787.55)">
            <rect id="Rectangle_377755-2" data-name="Rectangle 377755" width="105" height="47" rx="10" transform="translate(-0.333 0.403)" fill="#e6ff48"/>
            <text id="Origen" transform="translate(28.667 29.404)" fill="#12263f" font-size="16" font-family="Roboto-Bold, Roboto" font-weight="700"><tspan x="0" y="0">Origen</tspan></text>
          </g>
          <g id="Group_1072251" data-name="Group 1072251" transform="translate(924.28 5883.385)">
            <g id="Rectangle_377755-3" data-name="Rectangle 377755" transform="translate(-0.333 0.403)" fill="#fff" stroke="#12263f" stroke-width="2">
              <rect width="94" height="47" rx="10" stroke="none"/>
              <rect x="1" y="1" width="92" height="45" rx="9" fill="none"/>
            </g>
            <text id="Fantásticos" transform="translate(5.166 29.404)" fill="#12263f" font-size="16" font-family="Roboto-Bold, Roboto" font-weight="700"><tspan x="0" y="0">Fantásticos</tspan></text>
          </g>
          <g id="Group_1072253" data-name="Group 1072253" transform="translate(1079.96 5883.385)">
            <g id="Rectangle_377755-4" data-name="Rectangle 377755" transform="translate(-0.333 0.403)" fill="#fff" stroke="#12263f" stroke-width="2">
              <rect width="73" height="47" rx="10" stroke="none"/>
              <rect x="1" y="1" width="71" height="45" rx="9" fill="none"/>
            </g>
            <text id="Ciencia_ficción" data-name="Ciencia
ficción" transform="translate(36.167 21.404)" fill="#12263f" font-size="16" font-family="Roboto-Bold, Roboto" font-weight="700"><tspan x="-26.742" y="0">Ciencia</tspan><tspan x="-24.336" y="16">ficción</tspan></text>
          </g>
          <g id="Group_1072250" data-name="Group 1072250" transform="translate(839.123 5883.385)">
            <g id="Rectangle_377755-5" data-name="Rectangle 377755" transform="translate(-0.333 0.403)" fill="#fff" stroke="#12263f" stroke-width="2">
              <rect width="81.268" height="47" rx="10" stroke="none"/>
              <rect x="1" y="1" width="79.268" height="45" rx="9" fill="none"/>
            </g>
            <text id="Literarios" transform="translate(6.3 29.404)" fill="#12263f" font-size="16" font-family="Roboto-Bold, Roboto" font-weight="700"><tspan x="0" y="0">Literarios</tspan></text>
          </g>
          <g id="Group_1072252" data-name="Group 1072252" transform="translate(1022.17 5883.385)">
            <g id="Rectangle_377755-6" data-name="Rectangle 377755" transform="translate(-0.333 0.403)" fill="#fff" stroke="#12263f" stroke-width="2">
              <rect width="54.237" height="47" rx="10" stroke="none"/>
              <rect x="1" y="1" width="52.237" height="45" rx="9" fill="none"/>
            </g>
            <text id="Terror" transform="translate(4.786 29.403)" fill="#12263f" font-size="16" font-family="Roboto-Bold, Roboto" font-weight="700"><tspan x="0" y="0">Terror</tspan></text>
          </g>
          <g id="Group_1072247" data-name="Group 1072247" transform="translate(996.788 5787.55)">
            <rect id="Rectangle_377755-7" data-name="Rectangle 377755" width="105" height="47" rx="10" transform="translate(-0.333 0.403)" fill="#e6ff48"/>
            <text id="Tema" transform="translate(32.167 29.404)" fill="#12263f" font-size="16" font-family="Roboto-Bold, Roboto" font-weight="700"><tspan x="0" y="0">Tema</tspan></text>
          </g>
          <g id="Group_1072239" data-name="Group 1072239" transform="translate(290 1304.882)">
            <g id="Group_1072232" data-name="Group 1072232">
              <g id="Group_1072231" data-name="Group 1072231" transform="translate(-149.001 2560.25)">
                <g id="Group_1072178" data-name="Group 1072178" transform="translate(748.632 1777.28)">
                  <rect id="Rectangle_377754" data-name="Rectangle 377754" width="105" height="59" rx="10" transform="translate(0.369 -0.281)" fill="#0a5e6b"/>
                  <text id="Cuento" transform="translate(25.869 35.719)" fill="#fff" font-size="17" font-family="Roboto-Bold, Roboto" font-weight="700"><tspan x="0" y="0">Cuento</tspan></text>
                </g>
              </g>
            </g>
          </g>
          <g id="Path_839140" data-name="Path 839140" transform="translate(753.823 5883.788)" fill="#fff">
            <path d="M 71.26799774169922 46 L 10.0000057220459 46 C 5.037384033203125 46 1.000006198883057 41.96262359619141 1.000006198883057 37 L 1.000006198883057 10 C 1.000006198883057 5.037377834320068 5.037384033203125 1 10.0000057220459 1 L 71.26799774169922 1 C 76.23061370849609 1 80.26799774169922 5.037377834320068 80.26799774169922 10 L 80.26799774169922 37 C 80.26799774169922 41.96262359619141 76.23061370849609 46 71.26799774169922 46 Z" stroke="none"/>
            <path d="M 9.999992370605469 2 C 5.588783264160156 2 1.999992370605469 5.588787078857422 1.999992370605469 10 L 1.999992370605469 37 C 1.999992370605469 41.41121292114258 5.588783264160156 45 9.999992370605469 45 L 71.26798248291016 45 C 75.67919158935547 45 79.26798248291016 41.41121292114258 79.26798248291016 37 L 79.26798248291016 10 C 79.26798248291016 5.588787078857422 75.67919158935547 2 71.26798248291016 2 L 9.999992370605469 2 M 9.999992370605469 0 L 71.26798248291016 0 C 76.79084014892578 0 81.26798248291016 4.477153778076172 81.26798248291016 10 L 81.26798248291016 37 C 81.26798248291016 42.52284622192383 76.79084014892578 47 71.26798248291016 47 L 9.999992370605469 47 C 4.477149963378906 47 -7.62939453125e-06 42.52284622192383 -7.62939453125e-06 37 L -7.62939453125e-06 10 C -7.62939453125e-06 4.477153778076172 4.477149963378906 0 9.999992370605469 0 Z" stroke="none" fill="#12263f"/>
          </g>
          <g id="Group_1072284" data-name="Group 1072284" transform="translate(745.937 5883.385)">
            <text id="Populares" transform="translate(11.968 29.404)" fill="#12263f" font-size="16" font-family="Roboto-Bold, Roboto" font-weight="700"><tspan x="0" y="0">Populares</tspan></text>
          </g>
          <g id="Group_1072286" data-name="Group 1072286" transform="translate(500.455 -0.145)">
            <text id="_2" data-name="●
●  " transform="translate(557 5648.416)" fill="#12263f" font-size="16" font-family="SegoeUI-Bold, Segoe UI" font-weight="700"><tspan x="0" y="17">●</tspan><tspan y="17" font-family="Roboto-Bold, Roboto"></tspan><tspan x="0" y="37">●</tspan><tspan y="37" xml:space="preserve" font-family="Roboto-Bold, Roboto">  </tspan></text>
            <text id="Mitos_Leyendas" data-name="Mitos
Leyendas" transform="translate(577 5668.865)" fill="#12263f" font-size="16" font-family="Roboto-Regular, Roboto"><tspan x="0" y="0">Mitos</tspan><tspan x="0" y="20">Leyendas</tspan></text>
          </g>
        </g>
      </g>
    </g>
  </g>
</svg>
