<svg xmlns="http://www.w3.org/2000/svg" xmlns:xlink="http://www.w3.org/1999/xlink" width="400" height="448" viewBox="0 0 400 448">
  <defs>
    <clipPath id="clip-path">
      <rect id="Rectangle_377629" data-name="Rectangle 377629" width="400" height="448" fill="#fff" stroke="#707070" stroke-width="1"/>
    </clipPath>
    <clipPath id="clip-path-2">
      <rect id="Rectangle_377628" data-name="Rectangle 377628" width="578.363" height="446.839" transform="translate(0 0)" fill="#faffd7"/>
    </clipPath>
    <clipPath id="clip-path-3">
      <rect id="Rectangle_377753" data-name="Rectangle 377753" width="398.8" height="427.281" fill="none"/>
    </clipPath>
    <clipPath id="clip-path-4">
      <rect id="Rectangle_377708" data-name="Rectangle 377708" width="398.8" height="427.281" fill="#cdf5e2"/>
    </clipPath>
    <clipPath id="clip-path-8">
      <rect id="Rectangle_377711" data-name="Rectangle 377711" width="19.525" height="20.208" fill="none"/>
    </clipPath>
    <clipPath id="clip-path-9">
      <rect id="Rectangle_377712" data-name="Rectangle 377712" width="19.62" height="20.145" fill="none"/>
    </clipPath>
    <clipPath id="clip-path-10">
      <rect id="Rectangle_377713" data-name="Rectangle 377713" width="20.067" height="23.362" fill="none"/>
    </clipPath>
    <clipPath id="clip-path-14">
      <rect id="Rectangle_377748" data-name="Rectangle 377748" width="51.795" height="57.108" fill="none"/>
    </clipPath>
  </defs>
  <g id="Group_1072273" data-name="Group 1072273" transform="translate(-1020 -1075)">
    <g id="Group_1072021" data-name="Group 1072021" transform="translate(0 57.863)">
      <g id="Mask_Group_87" data-name="Mask Group 87" transform="translate(1020 1017.137)" clip-path="url(#clip-path)">
        <g id="Group_1072014" data-name="Group 1072014" transform="translate(19 0.128)">
          <g id="Group_1072013" data-name="Group 1072013" transform="translate(0 0)" clip-path="url(#clip-path-2)">
            <path id="Path_838415" data-name="Path 838415" d="M577.188,326.824c-6.7,37.99-33.083,78.811-72.9,95.839q-.831.354-1.679.7c-28.96,11.8-75.009,16-114.661,15.075a355.3,355.3,0,0,1-41.931-3.258c-15-2.19-29.51-1.694-44.3-.039-6.227.7-12.505,1.6-18.89,2.594-34.487,5.375-72.088,13.443-121.859,6.27q-7.489-1.078-15.359-2.636a358.886,358.886,0,0,1-65.362-20.059c-33.165-13.5-63.707-34.937-75.831-64.877C1.316,348.771-.654,340.628.2,332.542c1.695-16.007,13.921-29.437,24.418-42.7a275.663,275.663,0,0,0,33.126-53.193c4.865-10.3,9.1-21.213,8.2-32.317-1.957-24.256-26.872-41.843-38.875-63.826a65.081,65.081,0,0,1,.863-63.772c11.4-19.67,33.622-34.376,58.545-38.748C140.778,28.468,198.089,65.7,249.957,48.827c26.914-8.753,55.035-25.579,81.223-35.855,111.947-43.928,203.857,32.786,199.421,95-3.67,51.475-22.633,52.938-49.226,94.719a27.785,27.785,0,0,0-4.29,18.738c1.9,13.158,16.517,22.137,30.935,26.635s30.188,6.384,43.02,13.638c23.507,13.29,30.382,41.1,26.148,65.121" transform="translate(0.001 -0.002)" fill="#faffd7"/>
          </g>
        </g>
      </g>
      <g id="Group_1072019" data-name="Group 1072019" transform="translate(1355.735 1348.76)">
        <g id="Group_151704" data-name="Group 151704" transform="translate(0 9.699)">
          <path id="Path_212295" data-name="Path 212295" d="M-11425.02-11468v19.4" transform="translate(11434.719 11467.999)" fill="none" stroke="#0a5e6b" stroke-width="5"/>
          <path id="Path_212296" data-name="Path 212296" d="M0,0V19.4" transform="translate(19.398 9.699) rotate(90)" fill="none" stroke="#0a5e6b" stroke-width="5"/>
        </g>
        <g id="Group_151705" data-name="Group 151705" transform="translate(25.218 0)">
          <path id="Path_212295-2" data-name="Path 212295" d="M-11425.02-11468v19.4" transform="translate(11434.719 11467.999)" fill="none" stroke="#0a5e6b" stroke-width="5"/>
          <path id="Path_212296-2" data-name="Path 212296" d="M0,0V19.4" transform="translate(19.398 9.699) rotate(90)" fill="none" stroke="#0a5e6b" stroke-width="5"/>
        </g>
        <g id="Group_151706" data-name="Group 151706" transform="translate(29.421 29.097)">
          <path id="Path_212295-3" data-name="Path 212295" d="M-11425.02-11468v19.4" transform="translate(11434.719 11467.999)" fill="none" stroke="#0a5e6b" stroke-width="5"/>
          <path id="Path_212296-3" data-name="Path 212296" d="M0,0V19.4" transform="translate(19.398 9.699) rotate(90)" fill="none" stroke="#0a5e6b" stroke-width="5"/>
        </g>
      </g>
      <g id="Group_1072020" data-name="Group 1072020" transform="translate(1369 1022)">
        <g id="Group_151688" data-name="Group 151688" transform="translate(0 7.064)">
          <path id="Path_212295-4" data-name="Path 212295" d="M-11425.02-11468v14.128" transform="translate(11432.083 11467.998)" fill="none" stroke="#0a5e6b" stroke-width="4"/>
          <path id="Path_212296-4" data-name="Path 212296" d="M0,0V14.127" transform="translate(14.127 7.064) rotate(90)" fill="none" stroke="#0a5e6b" stroke-width="4"/>
        </g>
        <g id="Group_151689" data-name="Group 151689" transform="translate(18.366)">
          <path id="Path_212295-5" data-name="Path 212295" d="M-11425.02-11468v14.128" transform="translate(11432.083 11467.998)" fill="none" stroke="#0a5e6b" stroke-width="4"/>
          <path id="Path_212296-5" data-name="Path 212296" d="M0,0V14.127" transform="translate(14.127 7.064) rotate(90)" fill="none" stroke="#0a5e6b" stroke-width="4"/>
        </g>
        <g id="Group_151690" data-name="Group 151690" transform="translate(21.427 21.191)">
          <path id="Path_212295-6" data-name="Path 212295" d="M-11425.02-11468v14.128" transform="translate(11432.083 11467.998)" fill="none" stroke="#0a5e6b" stroke-width="4"/>
          <path id="Path_212296-6" data-name="Path 212296" d="M0,0V14.127" transform="translate(14.127 7.064) rotate(90)" fill="none" stroke="#0a5e6b" stroke-width="4"/>
        </g>
      </g>
    </g>
    <g id="Group_1072176" data-name="Group 1072176" transform="translate(1020 1095.551)">
      <g id="Group_1072175" data-name="Group 1072175" transform="translate(0)" clip-path="url(#clip-path-3)">
        <g id="Group_1072129" data-name="Group 1072129">
          <g id="Group_1072128" data-name="Group 1072128" clip-path="url(#clip-path-4)">
            <path id="Path_838709" data-name="Path 838709" d="M22.638,308.577c.044-1.872.111-3.723.131-5.564l-.273.274c4.435.051,8.869.159,13.307.164l13.306.063-.5-.5.054,11.246.448-.448c-2.193.018-4.38.008-6.577.056l-6.612.112-13.423.28Zm13.047,5.962,6.694.112c2.237.048,4.486.038,6.728.056l.446,0,0-.452.054-11.246,0-.5-.5,0-13.306.063c-4.437,0-8.871.113-13.307.165l-.277,0,0,.271c.019,1.908.086,3.806.132,5.682l.144,5.564Z" transform="translate(327.497 -7.178)" fill="#ebebeb"/>
            <path id="Path_838710" data-name="Path 838710" d="M7.431,323.1c.045-1.872.112-3.724.132-5.564l-.274.274c4.435.051,8.871.159,13.307.164l13.307.063-.5-.5.054,11.246.448-.448c-2.193.018-4.38.008-6.578.056l-6.612.112-13.423.28Zm13.048,5.962,6.694.112c2.238.048,4.486.038,6.728.056l.446,0,0-.452.054-11.246,0-.5-.5,0-13.307.063c-4.435,0-8.871.113-13.307.165l-.277,0,0,.271c.019,1.908.086,3.806.131,5.682l.144,5.564Z" transform="translate(357.549 -7.522)" fill="#ebebeb"/>
            <path id="Path_838711" data-name="Path 838711" d="M37.844,323.1c.045-1.872.112-3.724.132-5.564l-.274.274c4.435.051,8.871.159,13.307.164l13.307.063-.5-.5.054,11.246.448-.448c-2.193.018-4.38.008-6.578.056l-6.612.112-13.423.28Zm13.048,5.962,6.694.112c2.237.048,4.486.038,6.728.056l.446,0,0-.452.054-11.246,0-.5-.5,0-13.307.063c-4.435,0-8.871.113-13.307.165l-.277,0,0,.271c.019,1.908.086,3.806.131,5.682l.144,5.564Z" transform="translate(297.444 -7.522)" fill="#ebebeb"/>
            <path id="Path_838712" data-name="Path 838712" d="M358.633,323.1c.045-1.872.112-3.724.132-5.564l-.274.274c4.435.051,8.871.159,13.307.164l13.307.063-.5-.5.054,11.246.448-.448c-2.193.018-4.38.008-6.578.056l-6.612.112-13.423.28Zm13.048,5.962,6.694.112c2.237.048,4.486.038,6.728.056l.446,0,0-.452.054-11.246,0-.5-.5,0L371.8,317.1c-4.435,0-8.871.113-13.307.165l-.277,0,0,.271c.018,1.908.086,3.806.131,5.682l.143,5.564Z" transform="translate(-336.522 -7.522)" fill="#ebebeb"/>
            <path id="Path_838715" data-name="Path 838715" d="M7.431,39.121c.045-1.872.112-3.724.132-5.564l-.274.274c4.435.051,8.871.159,13.307.164l13.307.063-.5-.5L33.453,44.8l.448-.448c-2.193.018-4.38.008-6.578.056l-6.612.112L7.288,44.8Zm13.048,5.962,6.694.112c2.238.048,4.486.038,6.728.056l.446,0,0-.452L34.4,33.557l0-.5-.5,0-13.307.062c-4.435,0-8.871.113-13.307.165l-.277,0,0,.271c.019,1.908.086,3.806.131,5.682L7.288,44.8Z" transform="translate(357.549 -0.784)" fill="#ebebeb"/>
            <path id="Path_838716" data-name="Path 838716" d="M199.743,159.412c-.045,1.872-.112,3.723-.132,5.564l.274-.274c-4.435-.051-8.87-.159-13.307-.164l-13.307-.063.5.5-.054-11.246-.448.448c2.193-.018,4.38-.008,6.578-.056l6.612-.112,13.423-.28ZM186.7,153.45,180,153.338c-2.237-.048-4.486-.038-6.728-.056l-.446,0,0,.451-.054,11.246,0,.5.5,0,13.307-.062c4.436,0,8.871-.113,13.307-.165l.277,0,0-.271c-.019-1.908-.086-3.805-.131-5.682l-.144-5.564Z" transform="translate(29.968 -3.637)" fill="#ebebeb"/>
            <path id="Path_838717" data-name="Path 838717" d="M214.95,144.886c-.045,1.872-.112,3.724-.131,5.564l.274-.274c-4.436-.051-8.871-.159-13.308-.164l-13.307-.063.5.5-.054-11.246-.448.448c2.193-.018,4.38-.008,6.578-.056l6.613-.112,13.423-.28ZM201.9,138.924l-6.694-.112c-2.237-.048-4.486-.038-6.728-.056l-.446,0,0,.452-.054,11.246,0,.5.5,0,13.307-.062c4.436,0,8.871-.113,13.308-.165l.276,0,0-.271c-.02-1.908-.087-3.806-.132-5.682l-.143-5.564Z" transform="translate(-0.085 -3.292)" fill="#ebebeb"/>
            <path id="Path_838718" data-name="Path 838718" d="M21.494,109.832a18.255,18.255,0,0,0,5.372,2.174,18.538,18.538,0,1,0-5.372-2.174" transform="translate(336.996 -1.789)" fill="#cdf5e2"/>
            <path id="Path_838719" data-name="Path 838719" d="M25.744,92.158a5.641,5.641,0,1,0,5.574-5.708,5.642,5.642,0,0,0-5.574,5.708" transform="translate(336.641 -2.051)" fill="#fff"/>
            <path id="Path_838720" data-name="Path 838720" d="M21.321,108.045l.027,2.327a18.535,18.535,0,0,0,19.5-.24l-.028-2.319a9.748,9.748,0,1,0-19.5.231" transform="translate(337.141 -2.33)" fill="#fff"/>
            <path id="Path_838721" data-name="Path 838721" d="M357.586,242.164l-5.92-9.544,2.923-1.81a2.671,2.671,0,0,0,1.239-2.513,15.508,15.508,0,0,1-.053-1.678,2.67,2.67,0,0,0-1.393-2.424l-3.03-1.625,5.31-9.9,3.029,1.625a2.667,2.667,0,0,0,2.79-.18,15.631,15.631,0,0,1,1.428-.885,2.67,2.67,0,0,0,1.407-2.422l-.109-3.436,11.226-.35.1,3.449a2.672,2.672,0,0,0,1.565,2.324q.373.177.739.373c.243.131.483.267.718.409a2.666,2.666,0,0,0,2.789.02l2.944-1.824,5.92,9.544-2.929,1.818a2.671,2.671,0,0,0-1.237,2.514,15.668,15.668,0,0,1,.056,1.672,2.668,2.668,0,0,0,1.393,2.421l3.03,1.624-5.31,9.9-3.03-1.626a2.671,2.671,0,0,0-2.787.179,15.636,15.636,0,0,1-1.423.88,2.668,2.668,0,0,0-1.41,2.421l.105,3.445-11.225.349-.107-3.446a2.666,2.666,0,0,0-1.561-2.316q-.375-.177-.744-.375t-.72-.409a2.671,2.671,0,0,0-2.8-.02Zm9.5-7.088a9.2,9.2,0,1,0-3.765-12.454,9.192,9.192,0,0,0,3.765,12.454" transform="translate(-335.74 -4.912)" fill="#cdf5e2"/>
            <path id="Path_838722" data-name="Path 838722" d="M145.4,27.937,138.583,24l1.206-2.085a1.871,1.871,0,0,0-.065-1.961,10.457,10.457,0,0,1-.589-1.019,1.874,1.874,0,0,0-1.665-1.035h-2.407V10.033h2.407A1.874,1.874,0,0,0,139.135,9a10.457,10.457,0,0,1,.589-1.019,1.869,1.869,0,0,0,.065-1.96l-1.206-2.086L145.4,0l1.208,2.1a1.871,1.871,0,0,0,1.736.917c.191-.01.385-.015.578-.015s.388,0,.579.015a1.868,1.868,0,0,0,1.73-.911L152.443,0l6.815,3.932L158.05,6.025a1.871,1.871,0,0,0,.069,1.961A11.1,11.1,0,0,1,158.708,9a1.868,1.868,0,0,0,1.661,1.033h2.409V17.9h-2.409a1.868,1.868,0,0,0-1.661,1.033,11.1,11.1,0,0,1-.589,1.014,1.873,1.873,0,0,0-.069,1.962L159.258,24l-6.815,3.932-1.208-2.092a1.869,1.869,0,0,0-1.731-.913c-.192.01-.388.015-.584.015s-.387,0-.578-.015a1.877,1.877,0,0,0-1.738.916Zm3.521-7.523a6.445,6.445,0,1,0-6.448-6.442,6.441,6.441,0,0,0,6.448,6.442" transform="translate(104.163)" fill="#cdf5e2"/>
            <path id="Path_838723" data-name="Path 838723" d="M321.987,249.841l3.932-6.815L328,244.231a1.871,1.871,0,0,0,1.961-.066,10.66,10.66,0,0,1,1.019-.589,1.87,1.87,0,0,0,1.035-1.663V239.5h7.871v2.409a1.87,1.87,0,0,0,1.035,1.663,10.653,10.653,0,0,1,1.019.589,1.869,1.869,0,0,0,1.96.066l2.086-1.206,3.932,6.815-2.1,1.207a1.873,1.873,0,0,0-.917,1.736c.01.192.015.385.015.579s0,.387-.015.579a1.866,1.866,0,0,0,.911,1.729l2.1,1.213-3.932,6.815-2.091-1.207a1.871,1.871,0,0,0-1.962.069,11.107,11.107,0,0,1-1.014.588,1.868,1.868,0,0,0-1.033,1.662v2.409H332.02v-2.409a1.868,1.868,0,0,0-1.033-1.662,11.116,11.116,0,0,1-1.014-.588,1.873,1.873,0,0,0-1.962-.069l-2.091,1.207-3.932-6.815,2.092-1.208a1.867,1.867,0,0,0,.913-1.73q-.015-.29-.015-.584c0-.194,0-.387.015-.579a1.874,1.874,0,0,0-.916-1.737Zm7.523,3.521a6.445,6.445,0,1,0,6.442-6.448,6.441,6.441,0,0,0-6.442,6.448" transform="translate(-265.472 -5.683)" fill="#ebebeb"/>
            <path id="Path_838724" data-name="Path 838724" d="M262.627,121.938l-3.6,7.3-8.055,1.171,5.828,5.682-1.376,8.023,7.2-3.788,7.2,3.788-1.376-8.023,5.828-5.682-8.055-1.171Z" transform="translate(-120.5 -2.893)" fill="#cdf5e2"/>
            <path id="Path_838725" data-name="Path 838725" d="M345.941,77.143a32.219,32.219,0,0,1,2.183,9.972c.049,0,.088.006.127.006h8.6c.036,0,.072,0,.109-.006v-.246c-.024-.226-.05-.451-.071-.678a24.146,24.146,0,0,0-.585-3.48,26.868,26.868,0,0,0-1.962-5.441.2.2,0,0,0-.213-.13q-4.017.006-8.034,0Z" transform="translate(-295.89 -1.83)" fill="#cdf5e2"/>
            <path id="Path_838726" data-name="Path 838726" d="M345.941,99.725h.143q3.985,0,7.973,0a.186.186,0,0,0,.2-.128,25.446,25.446,0,0,0,2.413-9.242.744.744,0,0,1,.022-.106v-.243c-.044,0-.088-.011-.133-.011h-8.547c-.159,0-.15,0-.163.159-.053.71-.1,1.419-.168,2.127a28.183,28.183,0,0,1-.543,3.342,30.352,30.352,0,0,1-1.155,3.972c-.013.037-.023.075-.041.127" transform="translate(-295.624 -2.135)" fill="#cdf5e2"/>
            <path id="Path_838727" data-name="Path 838727" d="M373.748,102.595c.028.049.049.086.07.121a24.288,24.288,0,0,0,2.3,2.982,22.723,22.723,0,0,0,3.369,3.106,24.2,24.2,0,0,0,7.9,3.958,25.07,25.07,0,0,0,3.38.72c.11.017.222.038.332.056h.2l.187-.119c-.08-.058-.146-.106-.215-.152a26.021,26.021,0,0,1-6.4-6.207,29.352,29.352,0,0,1-2.614-4.34.188.188,0,0,0-.2-.126q-4.078,0-8.157,0Z" transform="translate(-357.561 -2.434)" fill="#cdf5e2"/>
            <path id="Path_838728" data-name="Path 838728" d="M371.919,87.109h11.4V77.148c-.046,0-.089,0-.132,0q-4.383,0-8.767,0a.165.165,0,0,0-.18.118,27.577,27.577,0,0,0-1.813,5.837,28.75,28.75,0,0,0-.439,3.161c-.021.28-.045.559-.068.852" transform="translate(-347.613 -1.83)" fill="#cdf5e2"/>
            <path id="Path_838729" data-name="Path 838729" d="M371.849,90.073c.012.236.014.471.034.7.051.555.088,1.111.167,1.663.106.764.224,1.528.376,2.284a27.21,27.21,0,0,0,1.477,4.861.192.192,0,0,0,.21.147q4.487-.007,8.975,0h.161V90.073Z" transform="translate(-347.475 -2.137)" fill="#cdf5e2"/>
            <path id="Path_838730" data-name="Path 838730" d="M357.883,77.208v9.976h11.132c-.017-.253-.024-.5-.05-.747-.057-.557-.1-1.118-.19-1.671-.137-.845-.282-1.69-.463-2.528a26.028,26.028,0,0,0-1.609-4.91.175.175,0,0,0-.189-.123q-4.244.006-8.488,0Z" transform="translate(-319.607 -1.832)" fill="#cdf5e2"/>
            <path id="Path_838731" data-name="Path 838731" d="M357.882,90.206q0,4.691,0,9.38v.142h.148q4.374,0,8.745,0a.179.179,0,0,0,.2-.132,25.365,25.365,0,0,0,1.516-5.027c.166-.885.294-1.781.406-2.675.074-.584.09-1.175.13-1.764a.448.448,0,0,0,0-.062c-.044,0-.086,0-.129,0q-5.436,0-10.87,0c-.116,0-.142.033-.142.144" transform="translate(-319.618 -2.137)" fill="#cdf5e2"/>
            <path id="Path_838732" data-name="Path 838732" d="M384.181,87.179h9.341A32.507,32.507,0,0,1,395.7,77.142h-.145q-4.281,0-8.561,0a.193.193,0,0,0-.2.121,24.516,24.516,0,0,0-2.153,6.246,26.738,26.738,0,0,0-.454,3.5c0,.054,0,.106,0,.17" transform="translate(-371.964 -1.83)" fill="#cdf5e2"/>
            <path id="Path_838733" data-name="Path 838733" d="M384.447,90c.011.226.016.44.032.652a23.944,23.944,0,0,0,2.023,8.126c.127.29.266.575.4.863a.13.13,0,0,0,.139.089q4.291,0,8.583,0c.027,0,.054,0,.093-.007-.1-.3-.208-.589-.308-.88a30.219,30.219,0,0,1-1.156-4.549,29.757,29.757,0,0,1-.4-3.389c-.017-.267-.033-.537-.045-.8,0-.072-.022-.107-.1-.1a.647.647,0,0,1-.087,0Z" transform="translate(-372.238 -2.135)" fill="#cdf5e2"/>
            <path id="Path_838734" data-name="Path 838734" d="M373.755,74.282l.018.038h.119q4.086,0,8.169,0a.187.187,0,0,0,.2-.116,28.056,28.056,0,0,1,4.056-6.009,22.665,22.665,0,0,1,3.111-2.868c.556-.43,1.135-.831,1.7-1.244.029-.021.058-.043.095-.071l-.113-.077c.016-.052.031-.1.054-.177a24.432,24.432,0,0,0-17.411,10.522" transform="translate(-357.313 -1.513)" fill="#cdf5e2"/>
            <path id="Path_838735" data-name="Path 838735" d="M350.015,113.423a.937.937,0,0,0,.237.038,22.212,22.212,0,0,0,2.662-.517,23.875,23.875,0,0,0,4.743-1.756,24.205,24.205,0,0,0,4.832-3.172,23.008,23.008,0,0,0,2.906-2.9,24.366,24.366,0,0,0,1.813-2.512c.012-.021.021-.041.038-.078h-.135q-3.8,0-7.607,0a.185.185,0,0,0-.191.123,29.33,29.33,0,0,1-2.8,4.558,28.652,28.652,0,0,1-3.277,3.628,25.247,25.247,0,0,1-3.154,2.536c-.013.009-.024.021-.07.06" transform="translate(-310.157 -2.432)" fill="#cdf5e2"/>
            <path id="Path_838736" data-name="Path 838736" d="M350.277,64c.347.254.757.542,1.152.846a28.5,28.5,0,0,1,3.685,3.431,25.882,25.882,0,0,1,3.869,5.518c.065.127.124.257.2.379a.17.17,0,0,0,.117.073c.139.009.277,0,.416,0h7.437a24.3,24.3,0,0,0-16.788-10.441c.015.033.031.064.048.1-.049.033-.1.069-.134.095" transform="translate(-310.317 -1.514)" fill="#cdf5e2"/>
            <path id="Path_838737" data-name="Path 838737" d="M371.85,102.6a26.675,26.675,0,0,0,3.764,5.093,23.707,23.707,0,0,0,4.3,3.648V102.6Z" transform="translate(-344.142 -2.434)" fill="#cdf5e2"/>
            <path id="Path_838738" data-name="Path 838738" d="M361.358,102.605v8.574a24.808,24.808,0,0,0,7.737-8.574Z" transform="translate(-323.079 -2.435)" fill="#cdf5e2"/>
            <path id="Path_838739" data-name="Path 838739" d="M371.92,74.3h7.743V66.134a23.684,23.684,0,0,0-4.344,3.637,27.428,27.428,0,0,0-3.4,4.531" transform="translate(-343.959 -1.569)" fill="#cdf5e2"/>
            <path id="Path_838740" data-name="Path 838740" d="M361.674,66.395v7.981h7.431a23.5,23.5,0,0,0-7.431-7.981" transform="translate(-323.398 -1.575)" fill="#cdf5e2"/>
            <path id="Path_838741" data-name="Path 838741" d="M100.458,289.56a21.135,21.135,0,1,0,20.9-24.23v21.131Z" transform="translate(158.226 -6.296)" fill="#cdf5e2"/>
            <path id="Path_838742" data-name="Path 838742" d="M126.52,282.052a21.048,21.048,0,0,0,.229,3.1l20.9-3.1V260.921a21.112,21.112,0,0,0-21.131,21.131" transform="translate(127.63 -6.191)" fill="#cdf5e2"/>
            <rect id="Rectangle_377699" data-name="Rectangle 377699" width="22.475" height="0.976" transform="translate(246.391 291.38)" fill="#c7c7c7"/>
            <path id="Path_838743" data-name="Path 838743" d="M157.677,300.975a2.064,2.064,0,1,0-2.064-2.064,2.066,2.066,0,0,0,2.064,2.064m0-3.151a1.088,1.088,0,1,1-1.088,1.088,1.088,1.088,0,0,1,1.088-1.088" transform="translate(87.139 -7.043)" fill="#c7c7c7"/>
            <rect id="Rectangle_377700" data-name="Rectangle 377700" width="17.456" height="0.788" transform="translate(221.649 290.686)" fill="#c7c7c7"/>
            <rect id="Rectangle_377701" data-name="Rectangle 377701" width="9.882" height="0.788" transform="translate(229.223 292.261)" fill="#c7c7c7"/>
            <rect id="Rectangle_377702" data-name="Rectangle 377702" width="4.464" height="31.771" transform="translate(362.884 206.972)" fill="#ebebeb"/>
            <rect id="Rectangle_377703" data-name="Rectangle 377703" width="4.464" height="24.081" transform="translate(355.209 214.662)" fill="#cdf5e2"/>
            <rect id="Rectangle_377704" data-name="Rectangle 377704" width="4.464" height="12.04" transform="translate(347.536 226.702)" fill="#cdf5e2"/>
            <rect id="Rectangle_377705" data-name="Rectangle 377705" width="4.464" height="18.917" transform="translate(339.862 219.825)" fill="#cdf5e2"/>
            <rect id="Rectangle_377706" data-name="Rectangle 377706" width="4.464" height="26.139" transform="translate(332.189 212.604)" fill="#cdf5e2"/>
            <rect id="Rectangle_377707" data-name="Rectangle 377707" width="4.464" height="30.386" transform="translate(324.514 208.356)" fill="#cdf5e2"/>
            <path id="Path_838744" data-name="Path 838744" d="M78.687,207.864l-.052,8.952-.025,8.953-.036,17.9.113-.112q-6.155-.018-12.31,0l-12.309.024-12.31.024-12.31.066,12.31.066,12.31.024,12.309.025q6.155.02,12.31,0H78.8v-.113l-.036-17.9-.025-8.953Z" transform="translate(291.249 -4.932)" fill="#ebebeb"/>
            <path id="Path_838745" data-name="Path 838745" d="M30.526,209.7a3.517,3.517,0,0,0-.985-.126,3.417,3.417,0,0,0-.985.126,3.418,3.418,0,0,0,.985.127,3.519,3.519,0,0,0,.985-.127" transform="translate(340.395 -4.973)" fill="#ebebeb"/>
            <path id="Path_838746" data-name="Path 838746" d="M30.526,212.488a3.886,3.886,0,0,0-1.97,0,3.452,3.452,0,0,0,.985.127,3.518,3.518,0,0,0,.985-.127" transform="translate(340.395 -5.039)" fill="#ebebeb"/>
            <path id="Path_838747" data-name="Path 838747" d="M30.526,215.276a3.517,3.517,0,0,0-.985-.127,3.451,3.451,0,0,0-.985.127,3.417,3.417,0,0,0,.985.126,3.482,3.482,0,0,0,.985-.126" transform="translate(340.395 -5.105)" fill="#ebebeb"/>
            <path id="Path_838748" data-name="Path 838748" d="M30.526,218.064a3.518,3.518,0,0,0-.985-.127,3.452,3.452,0,0,0-.985.127,3.886,3.886,0,0,0,1.97,0" transform="translate(340.395 -5.171)" fill="#ebebeb"/>
            <path id="Path_838749" data-name="Path 838749" d="M30.526,220.851a3.517,3.517,0,0,0-.985-.126,3.452,3.452,0,0,0-.985.126,3.419,3.419,0,0,0,.985.127,3.517,3.517,0,0,0,.985-.127" transform="translate(340.395 -5.237)" fill="#ebebeb"/>
            <path id="Path_838750" data-name="Path 838750" d="M30.526,223.639a3.518,3.518,0,0,0-.985-.127,3.453,3.453,0,0,0-.985.127,3.886,3.886,0,0,0,1.97,0" transform="translate(340.395 -5.303)" fill="#ebebeb"/>
            <path id="Path_838751" data-name="Path 838751" d="M30.526,226.427a3.518,3.518,0,0,0-.985-.127,3.452,3.452,0,0,0-.985.127,3.452,3.452,0,0,0,.985.127,3.518,3.518,0,0,0,.985-.127" transform="translate(340.395 -5.369)" fill="#ebebeb"/>
            <path id="Path_838752" data-name="Path 838752" d="M30.526,229.215a3.518,3.518,0,0,0-.985-.127,3.452,3.452,0,0,0-.985.127,3.886,3.886,0,0,0,1.97,0" transform="translate(340.395 -5.436)" fill="#ebebeb"/>
            <path id="Path_838753" data-name="Path 838753" d="M30.526,232a3.886,3.886,0,0,0-1.97,0,3.452,3.452,0,0,0,.985.127,3.518,3.518,0,0,0,.985-.127" transform="translate(340.395 -5.502)" fill="#ebebeb"/>
            <path id="Path_838754" data-name="Path 838754" d="M30.526,234.79a3.518,3.518,0,0,0-.985-.127,3.453,3.453,0,0,0-.985.127,3.452,3.452,0,0,0,.985.127,3.518,3.518,0,0,0,.985-.127" transform="translate(340.395 -5.568)" fill="#ebebeb"/>
            <path id="Path_838755" data-name="Path 838755" d="M30.526,237.578a3.518,3.518,0,0,0-.985-.127,3.452,3.452,0,0,0-.985.127,3.886,3.886,0,0,0,1.97,0" transform="translate(340.395 -5.634)" fill="#ebebeb"/>
            <path id="Path_838756" data-name="Path 838756" d="M30.526,240.366a3.518,3.518,0,0,0-.985-.127,3.451,3.451,0,0,0-.985.127,3.887,3.887,0,0,0,1.97,0" transform="translate(340.395 -5.7)" fill="#ebebeb"/>
          </g>
        </g>
        <g id="Group_1072131" data-name="Group 1072131">
          <g id="Group_1072130" data-name="Group 1072130" clip-path="url(#clip-path-3)">
            <path id="Path_838757" data-name="Path 838757" d="M76.108,406.222c0,16.561,56.008,29.986,125.1,29.986s125.1-13.426,125.1-29.986-56.008-29.986-125.1-29.986-125.1,13.425-125.1,29.986" transform="translate(-1.806 -8.927)" fill="#cdf5e2"/>
          </g>
        </g>
        <path id="Path_838758" data-name="Path 838758" d="M333.333,390.839,219.618,375.623l-47.782,33.862,112.177,22.407Z" transform="translate(-102.293 -8.912)" fill="#0a5e6b"/>
        <g id="Group_1072133" data-name="Group 1072133">
          <g id="Group_1072132" data-name="Group 1072132" clip-path="url(#clip-path-3)">
            <path id="Path_838759" data-name="Path 838759" d="M329.157,391.193l-45.144,37.7-105.12-20.924,46.226-32.493s30.7.2,32.16.457,15.472,4.126,15.472,4.126,19.093.913,20.416,1.18,35.99,9.955,35.99,9.955" transform="translate(-105.006 -8.909)" fill="#fff"/>
            <path id="Path_838760" data-name="Path 838760" d="M279.946,380.17l-5.507,4.636-5.465,4.683-10.866,9.442-10.773,9.547-5.354,4.811-5.311,4.86,5.507-4.635,5.466-4.684,10.865-9.442,10.772-9.548,5.354-4.811Z" transform="translate(-112.201 -9.02)" fill="#dbdbdb"/>
            <path id="Path_838761" data-name="Path 838761" d="M259.45,404.888c-1.325-.257-2.66-.447-4-.628s-2.682-.329-4.026-.469-2.693-.251-4.044-.329-2.7-.158-4.056-.164c1.333.258,2.669.448,4.007.63s2.677.327,4.018.467c1.343.124,2.687.249,4.037.326s2.7.158,4.063.167" transform="translate(-98.202 -9.569)" fill="#dbdbdb"/>
            <path id="Path_838762" data-name="Path 838762" d="M261.9,415.272c-3.523-1.166-7.065-2.274-10.612-3.361-3.544-1.1-7.109-2.128-10.67-3.177-1.781-.525-3.568-1.011-5.373-1.48a8.66,8.66,0,0,0-1.407-.233l-1.387-.144-2.772-.26c-3.7-.306-7.4-.6-11.105-.8,3.682.48,7.37.882,11.055,1.3l2.766.3a20.758,20.758,0,0,1,2.71.393c1.785.469,3.562,1.008,5.35,1.5l10.707,3.033c3.572,1,7.147,1.992,10.738,2.933" transform="translate(-76.492 -9.629)" fill="#dbdbdb"/>
            <path id="Path_838763" data-name="Path 838763" d="M263.84,418.02c-3.417-1.162-6.851-2.271-10.29-3.357-3.435-1.108-6.894-2.129-10.347-3.18q-2.589-.788-5.2-1.5c-.439-.116-.867-.238-1.337-.337s-.91-.119-1.36-.171l-2.7-.264c-3.6-.3-7.192-.582-10.8-.77,3.578.477,7.164.87,10.747,1.284l2.687.3c.444.056.9.1,1.321.181s.851.22,1.283.338l5.19,1.507c3.467,1,6.914,2.055,10.387,3.034,3.465,1,6.934,1.993,10.417,2.939" transform="translate(-81.586 -9.691)" fill="#dbdbdb"/>
            <path id="Path_838764" data-name="Path 838764" d="M267.383,420.379c-3.467-1.027-6.946-2-10.432-2.954-3.481-.974-6.984-1.862-10.48-2.779-1.758-.449-3.481-.912-5.3-1.267l-5.361-.8c-3.579-.5-7.158-1-10.751-1.418,3.549.7,7.111,1.308,10.672,1.925l5.351.867c1.726.357,3.492.851,5.241,1.267,3.509.863,7,1.789,10.515,2.633,3.508.867,7.019,1.721,10.543,2.53" transform="translate(-88.306 -9.756)" fill="#dbdbdb"/>
            <path id="Path_838765" data-name="Path 838765" d="M318.061,410.023q-4.856-1.662-9.811-2.99c-.827-.221-1.649-.454-2.486-.649-.421-.1-.833-.191-1.282-.263l-1.271-.175-5.078-.69c-3.384-.473-6.775-.886-10.163-1.329s-6.78-.846-10.175-1.243q5.06.825,10.127,1.593c3.379.5,6.755,1.034,10.14,1.506l5.073.727,1.266.183c.393.07.812.174,1.222.275l2.482.613c3.3.855,6.615,1.7,9.955,2.441" transform="translate(-190.467 -9.555)" fill="#dbdbdb"/>
            <path id="Path_838766" data-name="Path 838766" d="M313.823,406.952q-4.781-1.343-9.628-2.411c-1.618-.355-3.219-.744-4.887-.966l-4.91-.7c-3.272-.479-6.551-.907-9.826-1.354s-6.557-.861-9.84-1.264c3.26.558,6.521,1.108,9.789,1.621s6.532,1.048,9.8,1.53l4.906.74c.816.109,1.6.292,2.417.453l2.429.49c3.233.682,6.481,1.31,9.745,1.864" transform="translate(-183.237 -9.497)" fill="#dbdbdb"/>
            <path id="Path_838767" data-name="Path 838767" d="M310.657,404.192c-3.17-.87-6.358-1.667-9.568-2.366-1.608-.347-3.2-.729-4.837-1l-4.9-.565c-3.262-.38-6.529-.716-9.8-1.059s-6.535-.662-9.806-.964c3.252.462,6.5.914,9.762,1.328s6.51.848,9.771,1.232c1.626.2,3.268.384,4.878.6l4.816.962q4.819,1,9.682,1.826" transform="translate(-177.159 -9.449)" fill="#dbdbdb"/>
            <path id="Path_838768" data-name="Path 838768" d="M308.213,402.1c-3.087-1.2-6.233-2.194-9.421-3.092-.4-.113-.8-.213-1.213-.3a8.716,8.716,0,0,0-1.258-.185l-2.468-.224-4.934-.425c-6.581-.532-13.164-1.036-19.755-1.453,6.565.713,13.137,1.345,19.709,1.973l4.929.459,2.461.24a13.482,13.482,0,0,1,2.375.491c3.184.832,6.351,1.771,9.574,2.514" transform="translate(-172.191 -9.406)" fill="#dbdbdb"/>
            <path id="Path_838769" data-name="Path 838769" d="M305.406,399.575c-3.087-1.2-6.232-2.194-9.421-3.092-.4-.113-.8-.213-1.213-.3a8.667,8.667,0,0,0-1.258-.185l-2.467-.224-4.935-.425c-6.581-.532-13.163-1.036-19.754-1.453,6.564.713,13.136,1.345,19.708,1.974l4.93.458,2.46.24a13.512,13.512,0,0,1,2.376.491c3.183.832,6.351,1.771,9.573,2.514" transform="translate(-166.644 -9.346)" fill="#dbdbdb"/>
            <path id="Path_838770" data-name="Path 838770" d="M302.6,397.053c-3.087-1.2-6.233-2.194-9.421-3.092-.4-.112-.8-.213-1.213-.3a8.848,8.848,0,0,0-1.258-.185l-2.468-.224-4.934-.425c-6.581-.532-13.165-1.036-19.755-1.452,6.564.713,13.137,1.344,19.709,1.973l4.929.458,2.461.241a13.39,13.39,0,0,1,2.375.491c3.184.831,6.351,1.77,9.574,2.513" transform="translate(-161.096 -9.286)" fill="#dbdbdb"/>
            <path id="Path_838771" data-name="Path 838771" d="M299.792,394.531c-3.087-1.2-6.233-2.194-9.421-3.092-.4-.112-.8-.213-1.213-.3a8.724,8.724,0,0,0-1.258-.185l-2.468-.224-4.935-.425c-6.58-.532-13.163-1.036-19.754-1.453,6.564.713,13.137,1.345,19.709,1.973l4.929.459,2.461.24a13.477,13.477,0,0,1,2.375.491c3.184.832,6.351,1.771,9.574,2.514" transform="translate(-155.549 -9.226)" fill="#dbdbdb"/>
            <path id="Path_838772" data-name="Path 838772" d="M296.042,392.318c-3.087-1.2-6.233-2.194-9.421-3.092-.4-.112-.8-.213-1.213-.3a8.718,8.718,0,0,0-1.258-.184l-2.468-.224-4.934-.425c-6.581-.532-13.165-1.036-19.755-1.453,6.564.713,13.137,1.345,19.709,1.974l4.929.458,2.461.24a13.571,13.571,0,0,1,2.375.491c3.184.832,6.351,1.771,9.574,2.514" transform="translate(-148.138 -9.174)" fill="#dbdbdb"/>
            <path id="Path_838773" data-name="Path 838773" d="M292.4,390.136c-3.087-1.2-6.233-2.194-9.421-3.092-.4-.112-.8-.213-1.213-.3a8.715,8.715,0,0,0-1.258-.185l-2.468-.224-4.934-.425c-6.581-.532-13.164-1.036-19.755-1.453,6.565.714,13.137,1.345,19.709,1.974l4.929.458,2.461.24a13.564,13.564,0,0,1,2.375.491c3.184.832,6.351,1.771,9.574,2.514" transform="translate(-140.936 -9.122)" fill="#dbdbdb"/>
            <path id="Path_838774" data-name="Path 838774" d="M289.566,387.627c-3.082-1.194-6.223-2.191-9.405-3.088-.4-.112-.8-.213-1.211-.3a7.754,7.754,0,0,0-1.26-.181l-2.468-.186-4.933-.339c-6.579-.414-13.159-.795-19.746-1.088,6.566.59,13.139,1.1,19.709,1.61l4.928.372,2.46.2a12.836,12.836,0,0,1,2.367.487c3.179.83,6.34,1.767,9.559,2.509" transform="translate(-135.363 -9.074)" fill="#dbdbdb"/>
            <path id="Path_838775" data-name="Path 838775" d="M286.729,385.119c-3.077-1.192-6.213-2.188-9.39-3.083-.4-.112-.8-.215-1.209-.3a7.08,7.08,0,0,0-1.262-.178l-2.469-.143-4.931-.242c-6.576-.28-13.152-.521-19.733-.673,6.567.448,13.138.818,19.707,1.2l4.926.275,2.458.159a12.3,12.3,0,0,1,2.359.483c3.174.829,6.331,1.764,9.544,2.505" transform="translate(-129.787 -9.028)" fill="#dbdbdb"/>
            <path id="Path_838776" data-name="Path 838776" d="M283.875,382.618c-3.071-1.189-6.2-2.184-9.371-3.078-.4-.112-.8-.215-1.2-.3a6.171,6.171,0,0,0-1.268-.171l-2.469-.073-4.927-.083c-3.284-.043-6.569-.04-9.854-.053s-6.568.014-9.853.055c6.565.22,13.132.362,19.7.521l4.922.117,2.454.09a11.546,11.546,0,0,1,2.348.475c3.168.828,6.318,1.761,9.526,2.5" transform="translate(-124.191 -8.989)" fill="#dbdbdb"/>
            <path id="Path_838777" data-name="Path 838777" d="M271.146,423.8c-3.53-.944-7.074-1.83-10.622-2.7s-7.106-1.689-10.662-2.526c-1.785-.415-3.551-.805-5.371-1.166l-5.4-.915c-3.6-.577-7.21-1.155-10.831-1.653,3.573.768,7.162,1.455,10.751,2.144l5.39.985c1.76.355,3.55.8,5.329,1.185l10.693,2.381c3.568.779,7.139,1.546,10.722,2.261" transform="translate(-95.19 -9.843)" fill="#dbdbdb"/>
            <path id="Path_838778" data-name="Path 838778" d="M323.216,412.93c-3.561-.87-7.136-1.681-10.714-2.475s-7.165-1.54-10.75-2.3c-1.8-.378-3.58-.731-5.412-1.053l-5.437-.8c-3.629-.5-7.257-1.006-10.9-1.427,3.6.693,7.216,1.305,10.83,1.919l5.428.873c1.774.319,3.579.729,5.371,1.075l10.779,2.157c3.6.7,7.194,1.4,10.8,2.036" transform="translate(-197.775 -9.606)" fill="#dbdbdb"/>
          </g>
        </g>
        <g id="Group_1072144" data-name="Group 1072144">
          <g id="Group_1072143" data-name="Group 1072143" clip-path="url(#clip-path-3)">
            <path id="Path_838779" data-name="Path 838779" d="M348.742,273.4c-15.615,15.287-18.237,38.939-14.946,59.655.085.471.812.342.812-.1,0-4.716-.143-9.39-.129-14.049.086-.214.157-.413.242-.627,4.075-2.963,7.823-6.312,10.145-10.9,2.607-5.129,3.633-10.914,5.627-16.272.186-.513-.361-.362-.72-.1-9.5,7-12.527,14.545-15.252,24.619a83.77,83.77,0,0,1,1.653-15.687c2.052-9.561,6.112-19.035,12.98-26.131.257-.27-.143-.683-.413-.413" transform="translate(-276.387 -6.485)" fill="#1fd27a"/>
            <path id="Path_838780" data-name="Path 838780" d="M322.215,274.885c2.687.091,4.37,4.384,6.464,5.637a2.014,2.014,0,0,0,2.965-.466c2.075-2.9-.772-6.468-3.448-8.466,1.914.787,3.5,2.17,5.565,2.562a1.941,1.941,0,0,0,2.514-1.5c.909-3.948-4.043-5.7-7.44-5.786,1.647-1.145,6.368-4.258,3.86-5.788-2.541-1.537-8.081,2.913-9.888,4.38-2.655,2.155-5.823,5.374-5.942,8.745-.156,3.934,3.282,1.513,5.35.688" transform="translate(-246.926 -6.187)" fill="#ffc727"/>
            <g id="Group_1072136" data-name="Group 1072136" transform="translate(69.933 254.567)" opacity="0.1">
              <g id="Group_1072135" data-name="Group 1072135">
                <g id="Group_1072134" data-name="Group 1072134" clip-path="url(#clip-path-8)">
                  <path id="Path_838781" data-name="Path 838781" d="M322.215,274.885c2.687.091,4.37,4.384,6.464,5.637a2.014,2.014,0,0,0,2.965-.466c2.075-2.9-.772-6.468-3.448-8.466,1.914.787,3.5,2.17,5.565,2.562a1.941,1.941,0,0,0,2.514-1.5c.909-3.948-4.043-5.7-7.44-5.786,1.647-1.145,6.368-4.258,3.86-5.788-2.541-1.537-8.081,2.913-9.888,4.38-2.655,2.155-5.823,5.374-5.942,8.745-.156,3.934,3.282,1.513,5.35.688" transform="translate(-316.859 -260.754)"/>
                </g>
              </g>
            </g>
            <path id="Path_838782" data-name="Path 838782" d="M325.565,275.634c3.435-1.561,10.033.686,10.595-.614,1.137-2.646-4.135-4.462-6.982-4.812,2.621-.711,7.644-1.842,7.49-4.37-.189-3.087-7.7-.433-11.507,2.485-4.792,3.674-4.76,7.22-3.969,7.929,1.087.973,3.806-.36,4.374-.618" transform="translate(-251.053 -6.275)" fill="#ffc727"/>
            <path id="Path_838783" data-name="Path 838783" d="M353.561,271.85c16.186,14.683,19.705,38.217,17.2,59.043-.067.473-.8.373-.815-.068-.18-4.712-.215-9.388-.406-14.043-.094-.211-.173-.407-.266-.617-4.185-2.807-8.057-6.01-10.553-10.507-2.8-5.026-4.045-10.767-6.242-16.045-.2-.506.348-.375.716-.125,9.758,6.639,13.07,14.057,16.178,24.02a83.8,83.8,0,0,0-2.248-15.613c-2.414-9.475-6.832-18.788-13.965-25.617-.267-.261.116-.689.4-.429" transform="translate(-316.77 -6.448)" fill="#1fd27a"/>
            <path id="Path_838784" data-name="Path 838784" d="M382.553,273.456c-2.681.192-4.2,4.547-6.245,5.879a2.013,2.013,0,0,1-2.98-.352c-2.184-2.816.524-6.493,3.123-8.591-1.882.859-3.417,2.3-5.463,2.772a1.941,1.941,0,0,1-2.569-1.408c-1.059-3.911,3.822-5.854,7.214-6.066-1.689-1.082-6.525-4.012-4.077-5.638,2.481-1.631,8.185,2.6,10.047,4,2.736,2.052,6.023,5.149,6.271,8.512.3,3.926-3.224,1.636-5.321.891" transform="translate(-348.626 -6.162)" fill="#ffc727"/>
            <g id="Group_1072139" data-name="Group 1072139" transform="translate(19.646 253.522)" opacity="0.1">
              <g id="Group_1072138" data-name="Group 1072138">
                <g id="Group_1072137" data-name="Group 1072137" clip-path="url(#clip-path-9)">
                  <path id="Path_838785" data-name="Path 838785" d="M382.553,273.456c-2.681.192-4.2,4.547-6.245,5.879a2.013,2.013,0,0,1-2.98-.352c-2.184-2.816.524-6.493,3.123-8.591-1.882.859-3.417,2.3-5.463,2.772a1.941,1.941,0,0,1-2.569-1.408c-1.059-3.911,3.822-5.854,7.214-6.066-1.689-1.082-6.525-4.012-4.077-5.638,2.481-1.631,8.185,2.6,10.047,4,2.736,2.052,6.023,5.149,6.271,8.512.3,3.926-3.224,1.636-5.321.891" transform="translate(-368.272 -259.684)"/>
                </g>
              </g>
            </g>
            <path id="Path_838786" data-name="Path 838786" d="M379.525,274.175c-3.492-1.429-10,1.067-10.61-.211-1.237-2.6,3.963-4.615,6.794-5.075-2.647-.61-7.709-1.549-7.65-4.081.071-3.092,7.681-.725,11.593,2.044,4.928,3.49,5.032,7.033,4.266,7.773-1.049,1.014-3.817-.215-4.393-.451" transform="translate(-344.796 -6.249)" fill="#ffc727"/>
            <path id="Path_838787" data-name="Path 838787" d="M355.315,310.236a159.212,159.212,0,0,0,5.027,23.216.578.578,0,0,0,1.131-.228c-1.063-7.154-3-14.176-4.065-21.331a107.406,107.406,0,0,1-1.242-21.9c.681-12.056,3.955-24.88,11.821-34.313.173-.224-.193-.54-.371-.332-15.75,18.364-13.244,40.879-13.229,42.9-2.231-7.6-4.528-16.316-12.962-24.058-.363-.334-.647-.175-.588.392,1.509,14.1,5.428,21.463,13.6,29,.231,2.235.52,4.459.875,6.654" transform="translate(-301.972 -6.057)" fill="#1fd27a"/>
            <path id="Path_838788" data-name="Path 838788" d="M333.388,257.378c2.833-1.258,6.741,2.35,9.545,2.6A2.323,2.323,0,0,0,345.774,258c.7-4.05-4.056-6.322-7.839-7.049,2.382-.147,4.726.489,7.064-.143a2.239,2.239,0,0,0,1.85-2.826c-1.044-4.554-7.065-3.885-10.632-2.26,1.132-2.017,4.464-7.623,1.09-7.949-3.41-.314-6.917,7.091-8.054,9.522-1.67,3.572-3.335,8.507-1.763,12.064,1.819,4.16,4.168-.083,5.9-1.979" transform="translate(-267.231 -5.641)" fill="#ffc727"/>
            <g id="Group_1072142" data-name="Group 1072142" transform="translate(59.629 232.121)" opacity="0.1">
              <g id="Group_1072141" data-name="Group 1072141">
                <g id="Group_1072140" data-name="Group 1072140" clip-path="url(#clip-path-10)">
                  <path id="Path_838789" data-name="Path 838789" d="M333.388,257.378c2.833-1.258,6.741,2.35,9.545,2.6A2.323,2.323,0,0,0,345.774,258c.7-4.05-4.056-6.322-7.839-7.049,2.382-.147,4.726.489,7.064-.143a2.239,2.239,0,0,0,1.85-2.826c-1.044-4.554-7.065-3.885-10.632-2.26,1.132-2.017,4.464-7.623,1.09-7.949-3.41-.314-6.917,7.091-8.054,9.522-1.67,3.572-3.335,8.507-1.763,12.064,1.819,4.16,4.168-.083,5.9-1.979" transform="translate(-326.86 -237.762)"/>
                </g>
              </g>
            </g>
            <path id="Path_838790" data-name="Path 838790" d="M336.1,258.558c2.777-3.349,10.755-4.339,10.683-5.97-.152-3.317-6.537-2.547-9.667-1.479,2.363-2.056,7-5.758,5.572-8.3-1.75-3.107-8.21,3.429-10.688,8.37-3.123,6.225-1.306,9.888-.126,10.226,1.618.463,3.767-2.29,4.226-2.843" transform="translate(-270.42 -5.742)" fill="#ffc727"/>
            <path id="Path_838791" data-name="Path 838791" d="M335.232,315.919l-6.946,53.073h42.269c-.871-4.7-8.738-53.135-8.738-53.135Z" transform="translate(-292.252 -7.494)" fill="#0a5e6b"/>
          </g>
        </g>
        <path id="Path_838792" data-name="Path 838792" d="M299.1,369.947l49.849.086,49.85.237-49.85.237-49.849.086-99.7.164L99.7,370.6l-49.849-.086L0,370.27l49.85-.239,49.849-.085,99.7-.162Z" transform="translate(0 -8.774)" fill="#263238"/>
        <g id="Group_1072167" data-name="Group 1072167">
          <g id="Group_1072166" data-name="Group 1072166" clip-path="url(#clip-path-3)">
            <path id="Path_838793" data-name="Path 838793" d="M257.588,187.833a36.653,36.653,0,1,0,36.653-36.652,36.653,36.653,0,0,0-36.653,36.652" transform="translate(-183.571 -3.587)" fill="#e6ff48"/>
            <path id="Path_838795" data-name="Path 838795" d="M294.078,231.051A43.381,43.381,0,1,0,250.7,187.671a43.43,43.43,0,0,0,43.382,43.381m0-85.786a42.4,42.4,0,1,1-42.405,42.405,42.454,42.454,0,0,1,42.405-42.405" transform="translate(-183.407 -3.424)" fill="#e6ff48"/>
            <path id="Path_838796" data-name="Path 838796" d="M77.291,55.748a36.653,36.653,0,1,0,36.653-36.653A36.653,36.653,0,0,0,77.291,55.748" transform="translate(172.745 -0.453)" fill="#e6ff48"/>
            <path id="Path_838798" data-name="Path 838798" d="M113.819,97.438A41.815,41.815,0,1,0,72,55.623a41.863,41.863,0,0,0,41.815,41.816m0-82.654A40.839,40.839,0,1,1,72.98,55.623a40.884,40.884,0,0,1,40.838-40.838" transform="translate(172.871 -0.328)" fill="#e6ff48"/>
            <path id="Path_838799" data-name="Path 838799" d="M352.984,132.831a19.043,19.043,0,1,0,19.043-19.043,19.043,19.043,0,0,0-19.043,19.043" transform="translate(-336.878 -2.7)" fill="#e6ff48"/>
            <path id="Path_838801" data-name="Path 838801" d="M371.877,157.89a25.208,25.208,0,1,0-25.208-25.208,25.236,25.236,0,0,0,25.208,25.208m0-49.44a24.232,24.232,0,1,1-24.232,24.232,24.259,24.259,0,0,1,24.232-24.232" transform="translate(-336.729 -2.55)" fill="#e6ff48"/>
            <path id="Path_838802" data-name="Path 838802" d="M95.329,216.339A19.043,19.043,0,1,0,114.372,197.3a19.043,19.043,0,0,0-19.043,19.043" transform="translate(172.318 -4.681)" fill="#e6ff48"/>
            <path id="Path_838804" data-name="Path 838804" d="M114.24,240.7a24.494,24.494,0,1,0-24.494-24.494A24.522,24.522,0,0,0,114.24,240.7m0-48.011a23.517,23.517,0,1,1-23.517,23.517,23.544,23.544,0,0,1,23.517-23.517" transform="translate(172.45 -4.549)" fill="#e6ff48"/>
            <path id="Path_838805" data-name="Path 838805" d="M184.741,36.67a19.043,19.043,0,1,0,19.043-19.043A19.043,19.043,0,0,0,184.741,36.67" transform="translate(-4.384 -0.418)" fill="#e6ff48"/>
            <path id="Path_838807" data-name="Path 838807" d="M203.639,61.518a24.993,24.993,0,1,0-24.993-24.993,25.021,25.021,0,0,0,24.993,24.993m0-49.009a24.016,24.016,0,1,1-24.016,24.016,24.043,24.043,0,0,1,24.016-24.016" transform="translate(-4.239 -0.274)" fill="#e6ff48"/>
            <path id="Path_838808" data-name="Path 838808" d="M15.037,145.772A44.983,44.983,0,1,0,60.02,100.789a44.983,44.983,0,0,0-44.983,44.983" transform="translate(279.117 -2.391)" fill="#e6ff48"/>
            <path id="Path_838810" data-name="Path 838810" d="M59.879,196.381a50.75,50.75,0,1,0-50.75-50.751,50.808,50.808,0,0,0,50.75,50.751m0-100.524a49.774,49.774,0,1,1-49.773,49.773A49.83,49.83,0,0,1,59.879,95.857" transform="translate(279.258 -2.251)" fill="#e6ff48"/>
            <path id="Path_838811" data-name="Path 838811" d="M258.19,68.958a44.983,44.983,0,1,0,44.983-44.983A44.983,44.983,0,0,0,258.19,68.958" transform="translate(-201.42 -0.569)" fill="#e6ff48"/>
            <path id="Path_838813" data-name="Path 838813" d="M303.008,120.464A51.668,51.668,0,1,0,251.341,68.8a51.727,51.727,0,0,0,51.667,51.668m0-102.359A50.691,50.691,0,1,1,252.317,68.8,50.749,50.749,0,0,1,303.008,18.1" transform="translate(-201.255 -0.406)" fill="#e6ff48"/>
            <path id="Path_838814" data-name="Path 838814" d="M185.128,146.136c-4.365-.125-8.73-.234-13.095-.287s-8.731-.142-13.1-.144l.233.069-11.554-7.55L136,130.772c-3.862-2.5-7.775-4.922-11.664-7.382s-7.811-4.867-11.74-7.262q5.691,3.907,11.43,7.741c3.835,2.542,7.645,5.122,11.506,7.623l11.553,7.551L158.7,146.5l.108.069h.126c4.365,0,8.73-.091,13.1-.144s8.73-.162,13.095-.287" transform="translate(103.746 -2.755)" fill="#e6ff48"/>
            <path id="Path_838815" data-name="Path 838815" d="M196.42,193.767q-5.042-6.255-10.154-12.448c-3.413-4.127-6.814-8.262-10.271-12.35L165.65,156.679l-10.426-12.218-.128-.151-.191,0-13.855.148-6.927.118-6.928.151,6.928.151,6.927.117,13.855.148-.319-.147,10.331,12.3,10.414,12.229c3.462,4.086,6.98,8.122,10.486,12.168s7.045,8.067,10.6,12.07" transform="translate(78.202 -3.424)" fill="#e6ff48"/>
            <path id="Path_838816" data-name="Path 838816" d="M188.238,85.79c-2.7,2.448-5.342,4.951-7.964,7.475-2.649,2.5-5.206,5.089-7.807,7.633l.332-.137c-2.237-.03-4.473-.006-6.71.011l-6.71.055c-4.472.093-8.946.181-13.419.4,4.473.224,8.947.31,13.419.4l6.71.055c2.237.018,4.473.042,6.71.012l.2,0,.131-.135c2.545-2.6,5.135-5.16,7.633-7.807,2.525-2.622,5.028-5.267,7.475-7.965" transform="translate(68.064 -2.036)" fill="#e6ff48"/>
            <path id="Path_838817" data-name="Path 838817" d="M204.234,62.233c-.2,2.7-.3,5.394-.374,8.09s-.1,5.394-.114,8.09c.012,2.7.024,5.394.112,8.09l.137,4.046c.081,1.348.129,2.7.239,4.045.11-1.348.158-2.7.239-4.045l.137-4.046c.088-2.7.1-5.394.112-8.09-.013-2.7-.025-5.394-.114-8.09s-.173-5.394-.374-8.09" transform="translate(-4.834 -1.477)" fill="#e6ff48"/>
            <path id="Path_838818" data-name="Path 838818" d="M344.1,135.87c-10.533-.2-21.066-.3-31.6-.374l-31.6-.113-31.6.111-15.8.137-15.8.239,15.8.239,15.8.137,31.6.111,31.6-.113c10.533-.078,21.066-.173,31.6-.374" transform="translate(-157.829 -3.212)" fill="#e6ff48"/>
            <path id="Path_838819" data-name="Path 838819" d="M212.322,172.147c4.434.2,8.868.291,13.3.366l.156,0,.118-.127c2.356-2.533,4.633-5.137,6.954-7.7s4.59-5.174,6.869-7.778L243.137,153l3.365-3.951q3.377-3.942,6.649-7.973-3.6,3.74-7.114,7.561l-3.517,3.816-3.467,3.862c-2.31,2.574-4.631,5.139-6.894,7.756s-4.578,5.187-6.809,7.832l.274-.124c-4.434.076-8.868.173-13.3.366" transform="translate(-61.636 -3.347)" fill="#e6ff48"/>
            <path id="Path_838820" data-name="Path 838820" d="M214.1,77.945q4.455.227,8.909.318c2.971.089,5.941.118,8.91.133l-.311-.125c1.626,1.571,3.229,3.165,4.886,4.7l4.938,4.649c3.324,3.066,6.66,6.12,10.092,9.075-3.1-3.3-6.3-6.494-9.513-9.68l-4.865-4.727c-1.61-1.587-3.273-3.118-4.916-4.673l-.133-.126h-.179c-2.97.015-5.94.044-8.91.133q-4.455.089-8.909.318" transform="translate(-61.747 -1.839)" fill="#e6ff48"/>
            <path id="Path_838821" data-name="Path 838821" d="M112.474,38.124A10.869,10.869,0,0,1,124.013,56.3a11.377,11.377,0,0,1-2.5,1.6h-.01a10.846,10.846,0,0,1-4.52.976c-.332,0-.664-.02-1-.049a10.87,10.87,0,0,1-3.515-20.707m-4.92,14.2A10.36,10.36,0,0,0,121.3,57.454a10.8,10.8,0,0,0,2.4-1.523,10.384,10.384,0,0,0-3.095-17.651,10.291,10.291,0,0,0-7.927.283,10.42,10.42,0,0,0-5.125,13.765m4.92-14.2A10.869,10.869,0,0,1,124.013,56.3a11.377,11.377,0,0,1-2.5,1.6h-.01a10.846,10.846,0,0,1-4.52.976c-.332,0-.664-.02-1-.049a10.87,10.87,0,0,1-3.515-20.707m-4.92,14.2A10.36,10.36,0,0,0,121.3,57.454a10.8,10.8,0,0,0,2.4-1.523,10.384,10.384,0,0,0-3.095-17.651,10.291,10.291,0,0,0-7.927.283,10.42,10.42,0,0,0-5.125,13.765m-4.579-9.538a14.851,14.851,0,0,1,3.065-4.969A14.957,14.957,0,0,1,122.217,34a14.96,14.96,0,0,1,3.319,26.291l1.972,4.227.205.439-6.59,3.056-.205-.439-2.177-4.706A14.959,14.959,0,0,1,102.975,42.79m.859,11.237a14.4,14.4,0,0,0,15.015,8.337l.185-.02,2.324,5.028,5.7-2.646-2.138-4.6.166-.117a14.475,14.475,0,1,0-21.253-5.985" transform="translate(167.234 -0.784)" fill="#455a64"/>
            <path id="Path_838822" data-name="Path 838822" d="M103.451,42.968A14.47,14.47,0,1,1,125.1,60.024l-.166.117,2.138,4.6-5.7,2.646-2.324-5.028-.185.02a14.475,14.475,0,0,1-15.415-19.408m3.681,9.577a10.888,10.888,0,0,0,8.874,6.3c.332.029.664.049,1,.049a10.846,10.846,0,0,0,4.52-.976h.01a11.377,11.377,0,0,0,2.5-1.6,10.867,10.867,0,1,0-16.9-3.768" transform="translate(167.217 -0.796)" fill="#455a64"/>
            <path id="Path_838823" data-name="Path 838823" d="M99.2,68.328l.439-.205,5.7-2.646.449-.205,1.289-.6,7.088,15.279-9.089,4.13-7.068-15.21Zm6.111,15.113,8.21-3.72-6.678-14.4-.849.391L99.4,68.768l-.742.342Z" transform="translate(188.956 -1.535)" fill="#455a64"/>
            <path id="Path_838824" data-name="Path 838824" d="M295,166.177a7.37,7.37,0,1,1,12.5,7.791,6.762,6.762,0,0,1-.615.781l-.059.068-7.4,2.079-.02-.01-.068-.02a7.85,7.85,0,0,1-.947-.351A7.376,7.376,0,0,1,295,166.177m-.059,5.438a6.7,6.7,0,0,0,4.481,4.618l7.049-1.982a6.737,6.737,0,1,0-10.925-7.761,6.774,6.774,0,0,0-.859,3.28,6.625,6.625,0,0,0,.254,1.845" transform="translate(-197.076 -3.854)" fill="#455a64"/>
            <path id="Path_838825" data-name="Path 838825" d="M294.7,169.785a6.625,6.625,0,0,0,.254,1.845,6.7,6.7,0,0,0,4.481,4.618l7.049-1.982A6.737,6.737,0,1,0,295.56,166.5a6.774,6.774,0,0,0-.859,3.28" transform="translate(-197.087 -3.869)" fill="#455a64"/>
            <path id="Path_838826" data-name="Path 838826" d="M294.534,176.776l1.035-.283,7.049-1.982,1.025-.283,2.958-.83.752,2.695-1.318.371-.615.166-11.139,3.124-.615.176-1.328.371-.752-2.695Zm-1.757,2.734.713-.2,12.369-3.466.713-.205-.41-1.464-3.192.9-7.42,2.07-3.183.9Z" transform="translate(-193.221 -4.114)" fill="#455a64"/>
            <path id="Path_838827" data-name="Path 838827" d="M278.637,208.124l.84-.244,22.435-6.287h.01l.84-.244,2.831-.791.752,2.695-1.084.3-.615.176L277.651,211.3l-1.093.3-.752-2.685ZM277,210.819l.478-.137,27.609-7.732.478-.137-.41-1.464-1.611.449L278.2,208.905l-1.611.449Z" transform="translate(-176.806 -4.759)" fill="#455a64"/>
            <path id="Path_838828" data-name="Path 838828" d="M275.22,214.573l.615-.176,26.389-7.39.615-.176,1.084-.3.752,2.685-29.786,8.357-.752-2.695Zm.107,2.206,28.566-8.005-.41-1.464-.469.127v.01L275.4,215.188l-.469.127Z" transform="translate(-173.506 -4.9)" fill="#455a64"/>
            <path id="Path_838829" data-name="Path 838829" d="M303.445,203v.01l.176.605.879,3.134.176.605v.01L277.056,215.1l-.176-.615-.869-3.134-.176-.615Zm-26.828,8.191.879,3.124,26.389-7.39-.879-3.134Z" transform="translate(-175.167 -4.817)" fill="#455a64"/>
            <path id="Path_838830" data-name="Path 838830" d="M276.646,211.208l.879,3.124,26.389-7.39-.879-3.134Z" transform="translate(-175.196 -4.836)" fill="#455a64"/>
            <path id="Path_838831" data-name="Path 838831" d="M293.1,182.061l12.365-3.467-.755-2.69-12.364,3.467Zm11.579-3.908-11.138,3.123-.409-1.462,11.138-3.124Z" transform="translate(-192.073 -4.174)" fill="#455a64"/>
            <path id="Path_838832" data-name="Path 838832" d="M279.057,207.71s.02-.039.059-.107c.488-.908,3.749-7.3,3.114-13.5-.508-4.989-1.7-11.051-2-12.516-.039-.205-.068-.322-.068-.332l-.059-.283,8.455-2.372.1.283c0,.01.039.117.107.312.5,1.4,2.636,7.2,4.793,11.725,2.675,5.614,8.767,9.372,9.685,9.909a.839.839,0,0,1,.117.068l.664.381-25.344,7.107Zm23.333-6.639c-1.816-1.152-6.932-4.706-9.411-9.87-2.187-4.6-4.344-10.485-4.823-11.832l-7.312,2.05c.293,1.4,1.513,7.556,2.021,12.613.586,5.711-1.953,11.422-2.909,13.326Z" transform="translate(-177.284 -4.238)" fill="#455a64"/>
            <path id="Path_838833" data-name="Path 838833" d="M280.346,207.378l22.435-6.287c-1.816-1.152-6.932-4.706-9.411-9.87-2.187-4.6-4.344-10.485-4.823-11.832l-7.312,2.05c.293,1.4,1.513,7.556,2.021,12.613.586,5.711-1.953,11.422-2.909,13.326" transform="translate(-177.675 -4.256)" fill="#455a64"/>
            <path id="Path_838834" data-name="Path 838834" d="M38.9,115.284a9.3,9.3,0,0,1,4.257-4.628,6.1,6.1,0,0,1,5.057.186,5.922,5.922,0,0,1,3.485,3.593,9.024,9.024,0,0,1-.722,6.19,4.671,4.671,0,0,1-.215.439l-.02-.01-.43-.185c.02-.039.039-.088.068-.146.039-.088.088-.185.137-.293a8.659,8.659,0,0,0,.722-5.838,5.489,5.489,0,0,0-3.222-3.3,6.489,6.489,0,0,0-2.655-.605,4.954,4.954,0,0,0-2.011.42,8.847,8.847,0,0,0-4,4.374c-.049.107-.1.205-.127.293a.985.985,0,0,0-.068.146l-.42-.186-.029-.01c.059-.127.117-.273.2-.439" transform="translate(309.019 -2.615)" fill="#455a64"/>
            <path id="Path_838835" data-name="Path 838835" d="M39.916,115.864l.42.185L51.495,121l.43.185.068-.146-.43-.186L40.4,115.9l-.42-.185Z" transform="translate(307.838 -2.746)" fill="#455a64"/>
            <path id="Path_838836" data-name="Path 838836" d="M40.8,123.542l.449.2.107-.225.1-.215.107-.225-.449-.2L41,123.1l-.1.215Z" transform="translate(317.414 -2.916)" fill="#455a64"/>
            <path id="Path_838837" data-name="Path 838837" d="M41.926,175.615l.215.107.225.1,23.011-49.858.205-.439-.449-.205-.205.449-22.894,49.6Z" transform="translate(292.287 -2.973)" fill="#455a64"/>
            <path id="Path_838838" data-name="Path 838838" d="M52.646,118.3l.439.2.1-.225.215-.449-.439-.2-.107.225-.1.225Z" transform="translate(294.005 -2.791)" fill="#455a64"/>
            <path id="Path_838839" data-name="Path 838839" d="M53.776,170.375l.225.1.225.107.117-.264,22.884-49.6.205-.439-.439-.2-.205.439Z" transform="translate(268.869 -2.849)" fill="#455a64"/>
            <path id="Path_838840" data-name="Path 838840" d="M41.246,115.886l11.159,4.95c-.029.059-.049.107-.068.146l-11.159-4.95a.986.986,0,0,1,.068-.146m0,0,11.159,4.95c-.029.059-.049.107-.068.146l-11.159-4.95a.986.986,0,0,1,.068-.146m0,0,11.159,4.95c-.029.059-.049.107-.068.146l-11.159-4.95a.986.986,0,0,1,.068-.146m-2.363,1.474,1.1-2.382.937.42.449.2,11.169,4.95.459.2.937.42-1.1,2.382-.1.215-.967-.43-.449-.2-11.13-4.92-.43-.2-.976-.43Zm14.4,4.042-.5-.225-.02-.01-.43-.186-11.159-4.95-.42-.185-.029-.01-.5-.225-.791,1.718.527.234.439.2,11.12,4.93.449.2.517.234Zm-12.037-5.516,11.159,4.95c-.029.059-.049.107-.068.146l-11.159-4.95a.986.986,0,0,1,.068-.146m0,0,11.159,4.95c-.029.059-.049.107-.068.146l-11.159-4.95a.986.986,0,0,1,.068-.146" transform="translate(306.996 -2.728)" fill="#455a64"/>
            <path id="Path_838841" data-name="Path 838841" d="M42.425,118.267l.107-.225,11.12,4.93-.1.215-.107.225-11.12-4.92Zm0,0,.107-.225,11.12,4.93-.1.215-.107.225-11.12-4.92Zm-1.406-.625.1-.225.976.43.439.2,11.12,4.93.449.2.967.43-.1.215-1.1,2.392-.967-.43-.449-.2-11.12-4.93-.439-.2-.976-.43Zm.078,2.372.439.2,11.12,4.92.449.205.517.225.8-1.718-.527-.234-.449-.2-11.12-4.92-.439-.2-.527-.234-.791,1.718Zm1.328-1.748.107-.225,11.12,4.93-.1.215-.107.225-11.12-4.92Zm0,0,.107-.225,11.12,4.93-.1.215-.107.225-11.12-4.92Z" transform="translate(304.763 -2.786)" fill="#455a64"/>
            <path id="Path_838842" data-name="Path 838842" d="M65.993,171.675l.342-.156,1.679-.781.078.273c.01.02.293,1.025.43,1.523l1.728-.81.508,1.8,1.708-.81.527,1.806,1.708-.82.527,1.806,1.708-.81.078.273c.137.469.322,1.1.43,1.484.049.156.078.264.088.3l.02.049.078.127-7.381,4.735L67.564,183.4l-1.708-11.657ZM67.34,178.5l.244,1.689.351,2.392,3.5-2.255,5.584-3.593c-.059-.2-.176-.576-.391-1.357l-1.718.82-.527-1.806-1.708.81-.527-1.806-1.708.82-.508-1.8-1.728.8-.078-.273s-.293-1.015-.43-1.523l-1.308.605Z" transform="translate(256.876 -4.051)" fill="#455a64"/>
            <path id="Path_838843" data-name="Path 838843" d="M72.07,178.685l4.1,1.826.371.166-4.022,2.6-.7-4.7Zm.361.7.459,3.065,2.636-1.7Z" transform="translate(252.146 -4.237)" fill="#455a64"/>
            <path id="Path_838844" data-name="Path 838844" d="M65.48,120.728l11.12,4.93-22.894,49.6c-.107-.381-.293-1.015-.43-1.484l-.078-.273-1.708.81-.527-1.806-1.708.82-.527-1.806-1.708.81-.508-1.8-1.728.81c-.137-.5-.42-1.5-.43-1.523l-.078-.273-1.679.781Zm-7.654,39.129c1.826-3.69,3.544-7.439,5.321-11.159,1.679-3.768,3.417-7.508,5.038-11.286s3.241-7.586,4.706-11.452c-1.982,3.622-3.827,7.312-5.653,11.012s-3.544,7.439-5.321,11.159c-1.669,3.759-3.407,7.5-5.028,11.286S53.647,167,52.173,170.86c1.982-3.622,3.827-7.3,5.653-11m-5.164-2.372c1.826-3.7,3.544-7.439,5.321-11.159,1.679-3.768,3.407-7.508,5.038-11.3s3.241-7.576,4.706-11.442C65.743,127.21,63.9,130.9,62.073,134.6s-3.544,7.439-5.321,11.159c-1.669,3.759-3.407,7.5-5.038,11.286s-3.231,7.586-4.706,11.442c1.982-3.622,3.827-7.312,5.653-11" transform="translate(280.615 -2.865)" fill="#455a64"/>
            <path id="Path_838845" data-name="Path 838845" d="M194.059,32.106a4.363,4.363,0,1,0,4.363-4.363,4.363,4.363,0,0,0-4.363,4.363" transform="translate(6.56 -0.658)" fill="#455a64"/>
            <path id="Path_838846" data-name="Path 838846" d="M190.794,44.346v1.6h15.09v-1.6a7.545,7.545,0,0,0-15.09,0" transform="translate(6.648 -0.874)" fill="#455a64"/>
            <path id="Path_838847" data-name="Path 838847" d="M205.506,29.412a4.363,4.363,0,1,0,4.363-4.363,4.363,4.363,0,0,0-4.363,4.363" transform="translate(-16.062 -0.594)" fill="#455a64"/>
            <path id="Path_838848" data-name="Path 838848" d="M202.241,41.653v1.6h15.09v-1.6a7.545,7.545,0,0,0-15.09,0" transform="translate(-15.974 -0.81)" fill="#455a64"/>
            <path id="Path_838849" data-name="Path 838849" d="M114.353,216.907a1.1,1.1,0,0,0-1.156.009c-.1.059-.2.114-.3.169s-.2.106-.308.154a1.1,1.1,0,0,0-.644.956l-.044,1.422-4.633-.144.044-1.422a1.1,1.1,0,0,0-.582-1,6.514,6.514,0,0,1-.588-.363,1.1,1.1,0,0,0-1.15-.074l-1.252.672-2.191-4.087,1.251-.671a1.1,1.1,0,0,0,.575-1,6.515,6.515,0,0,1,.022-.69,1.1,1.1,0,0,0-.511-1.037l-1.209-.751,2.444-3.939,1.215.753a1.1,1.1,0,0,0,1.151-.008c.1-.06.2-.115.3-.169s.2-.105.3-.154a1.1,1.1,0,0,0,.646-.959l.043-1.423,4.632.143-.045,1.419a1.1,1.1,0,0,0,.581,1,6.358,6.358,0,0,1,.59.365,1.1,1.1,0,0,0,1.151.074l1.251-.671,2.192,4.087-1.251.671a1.1,1.1,0,0,0-.575,1,6.3,6.3,0,0,1-.022.693,1.1,1.1,0,0,0,.512,1.037l1.207.748-2.444,3.939Zm-1.161-7.316a3.8,3.8,0,1,0-1.554,5.14,3.8,3.8,0,0,0,1.554-5.14" transform="translate(181.522 -4.82)" fill="#455a64"/>
            <path id="Path_838850" data-name="Path 838850" d="M126.757,222.777a.772.772,0,0,0-.378.717c0,.08.006.159.006.239s0,.161-.006.241a.769.769,0,0,0,.376.714l.864.5L126,228l-.864-.5a.77.77,0,0,0-.809.028,4.447,4.447,0,0,1-.419.242.773.773,0,0,0-.427.686v.995h-3.248v-.995a.773.773,0,0,0-.427-.686,4.576,4.576,0,0,1-.419-.242.77.77,0,0,0-.809-.028l-.863.5-1.624-2.813.868-.5a.772.772,0,0,0,.376-.714c0-.079-.007-.159-.007-.239s0-.159.007-.239a.774.774,0,0,0-.379-.717l-.865-.5,1.624-2.813.861.5a.772.772,0,0,0,.809-.027,4.172,4.172,0,0,1,.421-.243.773.773,0,0,0,.427-.686v-.994h3.248v.994a.774.774,0,0,0,.428.686,4.4,4.4,0,0,1,.421.243.772.772,0,0,0,.809.027l.861-.5,1.623,2.813Zm-4.9-1.706a2.66,2.66,0,1,0,2.658,2.661,2.662,2.662,0,0,0-2.658-2.661" transform="translate(157.847 -5.173)" fill="#455a64"/>
            <path id="Path_838851" data-name="Path 838851" d="M363.954,128.35c.415-4.167,3.287-8.315,8.334-8.315s7.913,4.148,8.328,8.315c.638,6.433-3.7,12.258-8.328,17.574-4.633-5.316-8.972-11.141-8.334-17.574m8.334,4.627a4.563,4.563,0,1,0-4.569-4.563,4.561,4.561,0,0,0,4.569,4.563" transform="translate(-337.137 -2.848)" fill="#455a64"/>
            <path id="Path_838852" data-name="Path 838852" d="M298.354,45.665h12.934V37.916H298.354Zm11.958-.976H299.331v-5.8h10.981Z" transform="translate(-203.763 -0.9)" fill="#455a64"/>
            <rect id="Rectangle_377722" data-name="Rectangle 377722" width="15.337" height="4.435" transform="translate(93.39 35.225)" fill="#455a64"/>
            <path id="Path_838853" data-name="Path 838853" d="M283.622,54.343l5.835-5.836-3.948-3.947L279.674,50.4Zm4.455-5.836-4.455,4.456L281.054,50.4l4.455-4.455Z" transform="translate(-163.696 -1.057)" fill="#455a64"/>
            <rect id="Rectangle_377723" data-name="Rectangle 377723" width="7.318" height="4.755" transform="translate(124.395 50.042) rotate(-135)" fill="#455a64"/>
            <path id="Path_838854" data-name="Path 838854" d="M326.1,54.343l3.947-3.948-5.834-5.835-3.949,3.947Zm2.567-3.948L326.1,52.962l-4.455-4.455,2.568-2.567Z" transform="translate(-243.905 -1.057)" fill="#455a64"/>
            <rect id="Rectangle_377724" data-name="Rectangle 377724" width="4.755" height="7.317" transform="matrix(-0.707, -0.707, 0.707, -0.707, 77.722, 50.042)" fill="#455a64"/>
            <rect id="Rectangle_377725" data-name="Rectangle 377725" width="3.716" height="0.481" transform="translate(120.063 72.124)" fill="#455a64"/>
            <path id="Path_838855" data-name="Path 838855" d="M284.93,83.65l-.229.4,3.211,1.858.241-.4Z" transform="translate(-167.298 -1.985)" fill="#455a64"/>
            <path id="Path_838856" data-name="Path 838856" d="M287.911,62.283,284.7,64.129l.229.413,3.223-1.858Z" transform="translate(-167.298 -1.478)" fill="#455a64"/>
            <path id="Path_838857" data-name="Path 838857" d="M293.536,90.862l-.4.229,1.846,3.223.413-.241Z" transform="translate(-182.773 -2.156)" fill="#455a64"/>
            <path id="Path_838858" data-name="Path 838858" d="M294.981,53.849l-1.846,3.211.4.241,1.858-3.211Z" transform="translate(-182.773 -1.278)" fill="#455a64"/>
            <rect id="Rectangle_377726" data-name="Rectangle 377726" width="0.471" height="3.716" transform="translate(100.82 49.646)" fill="#455a64"/>
            <rect id="Rectangle_377727" data-name="Rectangle 377727" width="0.471" height="3.716" transform="translate(100.82 91.367)" fill="#455a64"/>
            <path id="Path_838859" data-name="Path 838859" d="M304.831,55.975l-1.09,19.174,2.466-.034L305.5,55.963Z" transform="translate(-203.942 -1.328)" fill="#455a64"/>
            <path id="Path_838860" data-name="Path 838860" d="M316.359,90.862,314.5,94.073l.413.241,1.858-3.223Z" transform="translate(-225.012 -2.156)" fill="#455a64"/>
            <path id="Path_838861" data-name="Path 838861" d="M314.915,53.849l-.413.241,1.858,3.211.413-.241Z" transform="translate(-225.012 -1.278)" fill="#455a64"/>
            <path id="Path_838862" data-name="Path 838862" d="M324.925,83.65l-3.211,1.858.229.4,3.223-1.858Z" transform="translate(-240.447 -1.985)" fill="#455a64"/>
            <path id="Path_838863" data-name="Path 838863" d="M324.925,64.542l.241-.413-3.223-1.846-.229.4Z" transform="translate(-240.447 -1.478)" fill="#455a64"/>
            <path id="Path_838864" data-name="Path 838864" d="M284.257,52.491a27.372,27.372,0,0,1,3.59-2.925,29.059,29.059,0,0,1,32.867,0,29.409,29.409,0,0,1,3.59,2.925,29.071,29.071,0,1,1-40.047,0m20.023,45.424a24.5,24.5,0,1,0-24.5-24.5,24.491,24.491,0,0,0,24.5,24.5" transform="translate(-203.22 -1.055)" fill="#455a64"/>
            <rect id="Rectangle_377728" data-name="Rectangle 377728" width="3.716" height="0.481" transform="translate(78.343 72.124)" fill="#455a64"/>
            <rect id="Rectangle_377729" data-name="Rectangle 377729" width="3.716" height="0.481" transform="translate(120.063 72.124)" fill="#455a64"/>
            <path id="Path_838865" data-name="Path 838865" d="M284.93,83.65l-.229.4,3.211,1.858.241-.4Z" transform="translate(-167.298 -1.985)" fill="#455a64"/>
            <path id="Path_838866" data-name="Path 838866" d="M287.911,62.283,284.7,64.129l.229.413,3.223-1.858Z" transform="translate(-167.298 -1.478)" fill="#455a64"/>
            <path id="Path_838867" data-name="Path 838867" d="M293.536,90.862l-.4.229,1.846,3.223.413-.241Z" transform="translate(-182.773 -2.156)" fill="#455a64"/>
            <path id="Path_838868" data-name="Path 838868" d="M294.981,53.849l-1.846,3.211.4.241,1.858-3.211Z" transform="translate(-182.773 -1.278)" fill="#455a64"/>
            <rect id="Rectangle_377730" data-name="Rectangle 377730" width="0.471" height="3.716" transform="translate(100.82 49.646)" fill="#455a64"/>
            <rect id="Rectangle_377731" data-name="Rectangle 377731" width="0.471" height="3.716" transform="translate(100.82 91.367)" fill="#455a64"/>
            <path id="Path_838869" data-name="Path 838869" d="M304.831,55.975l-1.09,19.174,2.466-.034L305.5,55.963Z" transform="translate(-203.942 -1.328)" fill="#455a64"/>
            <path id="Path_838870" data-name="Path 838870" d="M316.359,90.862,314.5,94.073l.413.241,1.858-3.223Z" transform="translate(-225.012 -2.156)" fill="#455a64"/>
            <path id="Path_838871" data-name="Path 838871" d="M314.915,53.849l-.413.241,1.858,3.211.413-.241Z" transform="translate(-225.012 -1.278)" fill="#455a64"/>
            <path id="Path_838872" data-name="Path 838872" d="M324.925,83.65l-3.211,1.858.229.4,3.223-1.858Z" transform="translate(-240.447 -1.985)" fill="#455a64"/>
            <path id="Path_838873" data-name="Path 838873" d="M324.925,64.542l.241-.413-3.223-1.846-.229.4Z" transform="translate(-240.447 -1.478)" fill="#455a64"/>
            <path id="Path_838874" data-name="Path 838874" d="M284.441,53.383a26.353,26.353,0,0,1,3.532-2.958l.012-.012a27.754,27.754,0,0,1,31.514-.3,29.531,29.531,0,0,1,3.6,2.912,27.746,27.746,0,1,1-38.658.355m19.152,44.553a24.5,24.5,0,1,0-24.5-24.5,24.491,24.491,0,0,0,24.5,24.5" transform="translate(-202.532 -1.076)" fill="#455a64"/>
            <rect id="Rectangle_377732" data-name="Rectangle 377732" width="3.716" height="0.481" transform="translate(78.343 72.124)" fill="#455a64"/>
            <rect id="Rectangle_377733" data-name="Rectangle 377733" width="3.716" height="0.481" transform="translate(120.063 72.124)" fill="#455a64"/>
            <path id="Path_838875" data-name="Path 838875" d="M284.93,83.65l-.229.4,3.211,1.858.241-.4Z" transform="translate(-167.298 -1.985)" fill="#455a64"/>
            <path id="Path_838876" data-name="Path 838876" d="M287.911,62.283,284.7,64.129l.229.413,3.223-1.858Z" transform="translate(-167.298 -1.478)" fill="#455a64"/>
            <path id="Path_838877" data-name="Path 838877" d="M293.536,90.862l-.4.229,1.846,3.223.413-.241Z" transform="translate(-182.773 -2.156)" fill="#455a64"/>
            <path id="Path_838878" data-name="Path 838878" d="M294.981,53.849l-1.846,3.211.4.241,1.858-3.211Z" transform="translate(-182.773 -1.278)" fill="#455a64"/>
            <rect id="Rectangle_377734" data-name="Rectangle 377734" width="0.471" height="3.716" transform="translate(100.82 49.646)" fill="#455a64"/>
            <rect id="Rectangle_377735" data-name="Rectangle 377735" width="0.471" height="3.716" transform="translate(100.82 91.367)" fill="#455a64"/>
            <path id="Path_838879" data-name="Path 838879" d="M304.831,55.975l-1.09,19.174,2.466-.034L305.5,55.963Z" transform="translate(-203.942 -1.328)" fill="#455a64"/>
            <path id="Path_838880" data-name="Path 838880" d="M316.359,90.862,314.5,94.073l.413.241,1.858-3.223Z" transform="translate(-225.012 -2.156)" fill="#455a64"/>
            <path id="Path_838881" data-name="Path 838881" d="M314.915,53.849l-.413.241,1.858,3.211.413-.241Z" transform="translate(-225.012 -1.278)" fill="#455a64"/>
            <path id="Path_838882" data-name="Path 838882" d="M324.925,83.65l-3.211,1.858.229.4,3.223-1.858Z" transform="translate(-240.447 -1.985)" fill="#455a64"/>
            <path id="Path_838883" data-name="Path 838883" d="M324.925,64.542l.241-.413-3.223-1.846-.229.4Z" transform="translate(-240.447 -1.478)" fill="#455a64"/>
            <rect id="Rectangle_377736" data-name="Rectangle 377736" width="3.716" height="0.481" transform="translate(78.343 72.124)" fill="#455a64"/>
            <rect id="Rectangle_377737" data-name="Rectangle 377737" width="0.471" height="3.716" transform="translate(100.82 49.646)" fill="#455a64"/>
            <path id="Path_838884" data-name="Path 838884" d="M293.135,57.06l.4.241,1.858-3.211-.413-.241Z" transform="translate(-182.773 -1.278)" fill="#455a64"/>
            <path id="Path_838885" data-name="Path 838885" d="M284.7,64.129l.229.413,3.223-1.858-.241-.4Z" transform="translate(-167.298 -1.478)" fill="#455a64"/>
            <rect id="Rectangle_377738" data-name="Rectangle 377738" width="3.716" height="0.481" transform="translate(120.063 72.124)" fill="#455a64"/>
            <path id="Path_838886" data-name="Path 838886" d="M284.7,84.051l3.211,1.858.241-.4L284.93,83.65Z" transform="translate(-167.298 -1.985)" fill="#455a64"/>
            <path id="Path_838887" data-name="Path 838887" d="M293.135,91.092l1.846,3.223.413-.241-1.858-3.211Z" transform="translate(-182.773 -2.156)" fill="#455a64"/>
            <rect id="Rectangle_377739" data-name="Rectangle 377739" width="0.471" height="3.716" transform="translate(100.82 91.367)" fill="#455a64"/>
            <path id="Path_838888" data-name="Path 838888" d="M314.5,94.073l.413.241,1.858-3.223-.413-.229Z" transform="translate(-225.012 -2.156)" fill="#455a64"/>
            <path id="Path_838889" data-name="Path 838889" d="M321.714,85.508l.229.4,3.223-1.858-.241-.4Z" transform="translate(-240.447 -1.985)" fill="#455a64"/>
            <rect id="Rectangle_377740" data-name="Rectangle 377740" width="3.716" height="0.481" transform="translate(78.343 72.124)" fill="#455a64"/>
            <path id="Path_838890" data-name="Path 838890" d="M321.714,62.684l3.211,1.858.241-.413-3.223-1.846Z" transform="translate(-240.447 -1.478)" fill="#455a64"/>
            <path id="Path_838891" data-name="Path 838891" d="M314.5,54.09l1.858,3.211.413-.241-1.858-3.211Z" transform="translate(-225.012 -1.278)" fill="#455a64"/>
            <path id="Path_838892" data-name="Path 838892" d="M303.741,75.149l2.466-.034L305.5,55.963l-.665.012Z" transform="translate(-203.942 -1.328)" fill="#455a64"/>
            <path id="Path_838893" data-name="Path 838893" d="M304.116,74.1a.841.841,0,1,0,.842-.842.842.842,0,0,0-.842.842" transform="translate(-203.899 -1.738)" fill="#455a64"/>
          </g>
        </g>
        <g id="Group_1072169" data-name="Group 1072169">
          <g id="Group_1072168" data-name="Group 1072168" clip-path="url(#clip-path-3)">
            <path id="Path_838894" data-name="Path 838894" d="M181.723,118.207c1.7,14.557,11.051,17.234,12.617,21.117a67.584,67.584,0,0,1,1.945,7.444l15.208,0a65.346,65.346,0,0,1,1.948-7.444c1.557-3.882,10.919-6.556,12.613-21.113,1.121-9.565-6.068-24.667-22.161-24.67s-23.278,15.1-22.17,24.664" transform="translate(-4.671 -2.22)" fill="#ffc727"/>
            <rect id="Rectangle_377742" data-name="Rectangle 377742" width="0.976" height="24.61" transform="translate(203.432 145.633) rotate(-169.426)" fill="#fff"/>
            <rect id="Rectangle_377743" data-name="Rectangle 377743" width="24.609" height="0.975" transform="translate(195.007 145.629) rotate(-100.612)" fill="#fff"/>
            <path id="Path_838895" data-name="Path 838895" d="M204.389,132.353c1.21,0,2.428-.955,3.43-2.69.034-.06.068-.119.1-.18a1.836,1.836,0,0,0,1.295.68c2.321,0,3.241-4.734,3.279-4.935l-.479-.091c-.238,1.262-1.208,4.538-2.8,4.538a1.512,1.512,0,0,1-1.053-.656c.966-1.973,1.517-4.539.811-5.763a1.213,1.213,0,0,0-1.1-.642,1.426,1.426,0,0,0-1.3.738c-.718,1.244-.188,3.7.713,5.261q.145.249.3.46-.092.176-.19.346c-.527.914-1.62,2.446-3.007,2.446h0c-.925,0-1.859-.735-2.629-2.07-.06-.1-.118-.21-.174-.318a6.335,6.335,0,0,0,1.383-4.073c0-1.721-.654-2.79-1.708-2.79a1.126,1.126,0,0,0-1,.615c-.679,1.175-.315,3.966.742,6.17a2.147,2.147,0,0,1-1.468.589c-1.361,0-2.576-3.3-2.93-4.571l-.471.13c.14.5,1.425,4.929,3.4,4.929a2.594,2.594,0,0,0,1.69-.643c.038.069.076.139.115.207.874,1.513,1.929,2.314,3.052,2.314Zm-3.128-9.251c.9,0,1.219,1.24,1.219,2.3a6.239,6.239,0,0,1-1.122,3.606c-.9-2-1.249-4.548-.678-5.537a.643.643,0,0,1,.58-.371m6.614,0a.727.727,0,0,1,.674.4c.525.909.185,3.121-.714,5.07-.041-.065-.082-.132-.122-.2-.82-1.421-1.315-3.73-.713-4.772a.934.934,0,0,1,.875-.495" transform="translate(-5.172 -2.909)" fill="#fff"/>
            <rect id="Rectangle_377744" data-name="Rectangle 377744" width="18.765" height="3.667" transform="translate(189.831 143.899)" fill="#263238"/>
            <rect id="Rectangle_377745" data-name="Rectangle 377745" width="18.765" height="3.667" transform="translate(189.83 148.159)" fill="#263238"/>
            <rect id="Rectangle_377746" data-name="Rectangle 377746" width="18.765" height="3.667" transform="translate(189.83 152.42)" fill="#263238"/>
            <path id="Path_838896" data-name="Path 838896" d="M204.013,87.408a8.716,8.716,0,0,0,.544-3.023,8.623,8.623,0,0,0-.432-3.04,8.583,8.583,0,0,0-.544,3.023,8.691,8.691,0,0,0,.431,3.04" transform="translate(-4.509 -1.93)" fill="#263238"/>
            <path id="Path_838897" data-name="Path 838897" d="M186.756,91.385a8.692,8.692,0,0,0,1.982-2.346,8.58,8.58,0,0,0,1.146-2.849,9.669,9.669,0,0,0-3.128,5.195" transform="translate(26.591 -2.045)" fill="#263238"/>
            <path id="Path_838898" data-name="Path 838898" d="M174.224,101.956a8.687,8.687,0,0,0,2.889-1.041,8.59,8.59,0,0,0,2.417-1.894,8.608,8.608,0,0,0-2.889,1.041,8.708,8.708,0,0,0-2.417,1.894" transform="translate(49.179 -2.349)" fill="#263238"/>
            <path id="Path_838899" data-name="Path 838899" d="M169.786,116.274a8.716,8.716,0,0,0,3.023.544,8.6,8.6,0,0,0,3.04-.432,8.6,8.6,0,0,0-3.023-.543,8.691,8.691,0,0,0-3.04.432" transform="translate(57.194 -2.749)" fill="#263238"/>
            <path id="Path_838900" data-name="Path 838900" d="M174.631,130.462a8.677,8.677,0,0,0,2.346,1.982,8.58,8.58,0,0,0,2.849,1.146,8.594,8.594,0,0,0-2.346-1.982,8.689,8.689,0,0,0-2.849-1.146" transform="translate(48.486 -3.096)" fill="#263238"/>
            <path id="Path_838901" data-name="Path 838901" d="M234.51,129.955A8.687,8.687,0,0,0,231.621,131a8.591,8.591,0,0,0-2.417,1.894,8.608,8.608,0,0,0,2.889-1.041,8.708,8.708,0,0,0,2.417-1.894" transform="translate(-59.476 -3.083)" fill="#263238"/>
            <path id="Path_838902" data-name="Path 838902" d="M238.93,115.684a9.676,9.676,0,0,0-6.063-.111,8.606,8.606,0,0,0,3.023.545,8.739,8.739,0,0,0,3.04-.433" transform="translate(-67.472 -2.732)" fill="#263238"/>
            <path id="Path_838903" data-name="Path 838903" d="M234.106,101.443a8.692,8.692,0,0,0-2.346-1.982,8.58,8.58,0,0,0-2.849-1.146,9.669,9.669,0,0,0,5.195,3.128" transform="translate(-58.786 -2.333)" fill="#263238"/>
            <path id="Path_838904" data-name="Path 838904" d="M221.331,91.089A8.687,8.687,0,0,0,220.29,88.2a8.59,8.59,0,0,0-1.894-2.417,8.607,8.607,0,0,0,1.041,2.889,8.707,8.707,0,0,0,1.894,2.417" transform="translate(-35.745 -2.035)" fill="#263238"/>
          </g>
        </g>
        <g id="Group_1072174" data-name="Group 1072174">
          <g id="Group_1072173" data-name="Group 1072173" clip-path="url(#clip-path-3)">
            <path id="Path_838905" data-name="Path 838905" d="M148.907,245.72a.842.842,0,0,0,.541.971c.921.169,2.029.353,3.271.567,3.945-7.92,7.92-14.127,6.777-11.663a45.7,45.7,0,0,0-3.559,12.2c1.445.237,4.8.752,6.475,1.009,4.306-14.215,8.89-24.614,8.286-21.322-2.434,13.276-2.21,17.647-1.894,22.323,15.631,2.388,36.161,5.278,51.056,7.027,2.686-7.826,5.236-16.334,5.425-15.7,1.49,4.732,1.253,11.347.69,16.4,4.747.52,8.551.844,10.885.917,0,0,1.919-6.615,2.345-8.813a49.434,49.434,0,0,0,.364-17.028c-.9-5.772-3.038-11-5.016-16.348a.517.517,0,0,0-.051-.118c.006-.016-.008-.022-.016-.044a49.016,49.016,0,0,1-2.712-10.846.232.232,0,0,1-.017-.082,48.818,48.818,0,0,1-.263-8.144c.5-9.954-3.685-19.036-12.067-22.537-14.435-18.2-31.726-12.942-38.219-.78-.628,1.186-1.263,2.554-1.9,4.053l-.019.047c-2.37,5.538-4.769,12.8-6.85,18.383a.025.025,0,0,1-.012.031c.007.022,0,.038-.025.062l-.006.016a58.009,58.009,0,0,1-2.748,6.417c-5.388,9.886-15.575,14.77-20.743,42.994" transform="translate(13.301 -3.859)" fill="#263238"/>
            <path id="Path_838906" data-name="Path 838906" d="M147.007,177.97c5.325,3.763,8.264,8.764,8.281,16.069.009,4.258-.223,8.387.81,12.511,1.066,4.257,3.132,7.87,5.267,11.487,3.392,5.745,5.565,11.343,5.339,18.487-.229,7.257-1.575,15.707-4.653,22.181-.018.038-.068.015-.053-.025,2.66-6.611,3.842-16.023,3.565-23.266-.3-7.954-3.859-13.3-7.386-19.689a33.545,33.545,0,0,1-4.315-16.613c0-3.61.5-7.314-.438-10.811-1.12-4.175-4.011-7.054-6.909-9.643-.393-.351.088-.973.492-.687" transform="translate(89.184 -4.221)" fill="#263238"/>
            <path id="Path_838907" data-name="Path 838907" d="M223.355,213.164c4.7-5.189,9.469-9.533,12.665-16.244,2.911-6.113,4.946-12.682,7.9-18.784a.077.077,0,1,1,.14.063c-4.723,10.889-6.741,22.159-14.672,30.91-4.309,4.754-8.572,9.133-11.747,15.039a59.25,59.25,0,0,0-6.27,19.927c-.036.248-.333.2-.325-.037a48.7,48.7,0,0,1,12.315-30.874" transform="translate(-51.298 -4.225)" fill="#263238"/>
            <path id="Path_838908" data-name="Path 838908" d="M264.018,254.908c-30.858,32.345-69.228,99.938-61.639,113.384,8.453,14.976,52.952-31.064,51.555-33.269-1.186-1.873,14.188-42.574,25.358-72.34,11.16-29.737-7.643-15.774-15.274-7.775" transform="translate(-80.574 -5.803)" fill="#f7a9a0"/>
            <path id="Path_838909" data-name="Path 838909" d="M200.184,293.688l44.31,7.977s11.061-31.4,13.255-48.828c1.229-9.769-4.511-10.17-11.735-4.978-25.282,18.17-45.83,45.829-45.83,45.829" transform="translate(-54.551 -5.803)" fill="#0a5e6b"/>
            <path id="Path_838910" data-name="Path 838910" d="M245.743,263.211a.83.83,0,1,0,.83-.83.83.83,0,0,0-.83.83m-13-.83a.83.83,0,1,1-.83.83.83.83,0,0,1,.83-.83m6.916-10.7a.83.83,0,1,1-.83.83.83.83,0,0,1,.83-.83m-6.916,32.275a.83.83,0,1,1-.83.83.83.83,0,0,1,.83-.83m-13.832,0a.83.83,0,1,1-.83.83.83.83,0,0,1,.83-.83m-13.832,0a.83.83,0,1,1-.83.83.83.83,0,0,1,.83-.83m34.58-10.7a.83.83,0,1,1-.83.83.829.829,0,0,1,.83-.83m-13.832,0a.83.83,0,1,1-.83.83.829.829,0,0,1,.83-.83m-13.832,0a.83.83,0,1,1-.83.83.83.83,0,0,1,.83-.83m27.661,21.579a.837.837,0,0,1,.582.233c-.158.5-.316.965-.466,1.414a.485.485,0,0,1-.116.009.828.828,0,0,1,0-1.656m-13.829,0a.83.83,0,1,1-.83.83.83.83,0,0,1,.83-.83m-13.832,0a.83.83,0,1,1-.83.83.83.83,0,0,1,.83-.83" transform="translate(-48.005 -5.972)" fill="#fff"/>
            <path id="Path_838911" data-name="Path 838911" d="M251.63,295.443c-6.715-1.792-25.071-6.125-37.367-7.383-.074-.007-.136.27-.063.289,10.071,2.589,30.495,6.3,37.34,7.506.128.023.217-.378.091-.412" transform="translate(-61.977 -6.835)" fill="#263238"/>
            <g id="Group_1072172" data-name="Group 1072172" transform="translate(151.568 238.752)" opacity="0.1">
              <g id="Group_1072171" data-name="Group 1072171">
                <g id="Group_1072170" data-name="Group 1072170" clip-path="url(#clip-path-14)">
                  <path id="Path_838912" data-name="Path 838912" d="M200.186,294.758l38.38,6.9s11.052-31.395,13.247-48.821c.792-6.253-1.283-8.667-4.77-8.237Z" transform="translate(-200.186 -244.555)"/>
                </g>
              </g>
            </g>
            <path id="Path_838913" data-name="Path 838913" d="M124,366.861h112.3S226.078,288.52,189.9,247.326c-9.76-11.114-27.457-7.825-35.831-.3a78.029,78.029,0,0,0-8.146,9.251c-7.606,9.774-20.029,33.243-21.191,39.592C122.818,306.358,132.1,317.7,132.1,317.7Z" transform="translate(41.448 -5.698)" fill="#0a5e6b"/>
            <path id="Path_838914" data-name="Path 838914" d="M167.818,241.371a.83.83,0,1,0,.83-.83.83.83,0,0,0-.83.83m28.494,20.746a.83.83,0,1,1-.83.83.83.83,0,0,1,.83-.83m-13.832,0a.83.83,0,1,1-.83.83.83.83,0,0,1,.83-.83m-13.833,0a.83.83,0,1,1-.83.83.831.831,0,0,1,.83-.83m-13.832,0a.83.83,0,1,1-.83.83.83.83,0,0,1,.83-.83m-13.832,0a.83.83,0,1,1-.83.83.83.83,0,0,1,.83-.83m48.412-10.7a.83.83,0,1,1-.83.831.831.831,0,0,1,.83-.831m-13.832,0a.83.83,0,1,1-.831.831.831.831,0,0,1,.831-.831m-13.833,0a.83.83,0,1,1-.83.831.83.83,0,0,1,.83-.831m-14.6.538c.125-.15.232-.283.35-.425,0,0,0-.009.008-.009a.834.834,0,1,1-.416.724.689.689,0,0,1,.059-.291m63.015,31.737a.5.5,0,0,1,.108.008c.191.425.383.857.574,1.281v.009a.829.829,0,1,1-.682-1.3m-13.835,0a.83.83,0,1,1-.83.83.83.83,0,0,1,.83-.83m-13.832,0a.83.83,0,1,1-.83.83.83.83,0,0,1,.83-.83m-13.833,0a.83.83,0,1,1-.83.83.83.83,0,0,1,.83-.83m-13.832,0a.83.83,0,1,1-.83.83.829.829,0,0,1,.83-.83m-13.832,0a.83.83,0,1,1-.83.83.829.829,0,0,1,.83-.83m-13.627.032a.822.822,0,0,1,.624.8.834.834,0,0,1-.832.832.8.8,0,0,1-.5-.175c.225-.482.466-.966.707-1.456m75.871-10.731a.83.83,0,1,1-.83.83.83.83,0,0,1,.83-.83m-13.832,0a.83.83,0,1,1-.83.83.83.83,0,0,1,.83-.83m-13.832,0a.83.83,0,1,1-.831.83.83.83,0,0,1,.831-.83m-13.833,0a.83.83,0,1,1-.83.83.829.829,0,0,1,.83-.83m-13.832,0a.83.83,0,1,1-.83.83.829.829,0,0,1,.83-.83m-13.832,0a.83.83,0,1,1-.83.83.829.829,0,0,1,.83-.83m76.076,32.275a.83.83,0,1,1-.83.83.83.83,0,0,1,.83-.83m-13.832,0a.83.83,0,1,1-.83.83.83.83,0,0,1,.83-.83m-13.832,0a.83.83,0,1,1-.83.83.83.83,0,0,1,.83-.83m-13.833,0a.83.83,0,1,1-.83.83.83.83,0,0,1,.83-.83m-13.832,0a.83.83,0,1,1-.83.83.829.829,0,0,1,.83-.83m-13.832,0a.83.83,0,1,1-.83.83.829.829,0,0,1,.83-.83m-13.832,0a.83.83,0,1,1-.83.83.83.83,0,0,1,.83-.83m76.076-10.7a.83.83,0,1,1-.83.83.83.83,0,0,1,.83-.83m-13.832,0a.83.83,0,1,1-.83.83.83.83,0,0,1,.83-.83m-13.832,0a.83.83,0,1,1-.831.83.83.83,0,0,1,.831-.83m-13.833,0a.83.83,0,1,1-.83.83.83.83,0,0,1,.83-.83m-13.832,0a.83.83,0,1,1-.83.83.83.83,0,0,1,.83-.83m-13.832,0a.83.83,0,1,1-.83.83.83.83,0,0,1,.83-.83m89.908,32.275a.83.83,0,1,1-.83.83.83.83,0,0,1,.83-.83m-13.832,0a.83.83,0,1,1-.83.83.83.83,0,0,1,.83-.83m-13.832,0a.83.83,0,1,1-.83.83.83.83,0,0,1,.83-.83m-13.832,0a.83.83,0,1,1-.83.83.83.83,0,0,1,.83-.83m-13.833,0a.83.83,0,1,1-.83.83.831.831,0,0,1,.83-.83m-13.832,0a.83.83,0,1,1-.83.83.83.83,0,0,1,.83-.83m-13.832,0a.83.83,0,1,1-.83.83.83.83,0,0,1,.83-.83m76.076-10.7a.83.83,0,1,1-.83.831.83.83,0,0,1,.83-.831m-13.832,0a.83.83,0,1,1-.83.831.831.831,0,0,1,.83-.831m-13.832,0a.83.83,0,1,1-.83.831.831.831,0,0,1,.83-.831m-13.832,0a.83.83,0,1,1-.831.831.831.831,0,0,1,.831-.831m-13.833,0a.83.83,0,1,1-.83.831.83.83,0,0,1,.83-.831m-13.832,0a.83.83,0,1,1-.83.831.83.83,0,0,1,.83-.831m-13.832,0a.83.83,0,1,1-.83.831.83.83,0,0,1,.83-.831m89.908,32.275a.83.83,0,1,1-.83.83.83.83,0,0,1,.83-.83m-13.832,0a.83.83,0,1,1-.83.83.83.83,0,0,1,.83-.83m-13.832,0a.83.83,0,1,1-.83.83.83.83,0,0,1,.83-.83m-13.832,0a.83.83,0,1,1-.83.83.83.83,0,0,1,.83-.83m-13.833,0a.83.83,0,1,1-.83.83.831.831,0,0,1,.83-.83m-13.832,0a.83.83,0,1,1-.83.83.83.83,0,0,1,.83-.83m-13.832,0a.83.83,0,1,1-.83.83.83.83,0,0,1,.83-.83m-13.832,0a.83.83,0,1,1-.83.83.83.83,0,0,1,.83-.83m89.908-10.7a.83.83,0,1,1-.83.83.829.829,0,0,1,.83-.83m-13.832,0a.83.83,0,1,1-.83.83.83.83,0,0,1,.83-.83m-13.832,0a.83.83,0,1,1-.83.83.83.83,0,0,1,.83-.83m-13.832,0a.83.83,0,1,1-.831.83.83.83,0,0,1,.831-.83m-13.833,0a.83.83,0,1,1-.83.83.829.829,0,0,1,.83-.83m-13.832,0a.83.83,0,1,1-.83.83.829.829,0,0,1,.83-.83m-13.832,0a.83.83,0,1,1-.83.83.829.829,0,0,1,.83-.83M230.893,359.3a.83.83,0,1,1-.83.83.83.83,0,0,1,.83-.83m-13.832,0a.83.83,0,1,1-.83.83.83.83,0,0,1,.83-.83m-13.832,0a.83.83,0,1,1-.83.83.83.83,0,0,1,.83-.83m-13.832,0a.83.83,0,1,1-.83.83.83.83,0,0,1,.83-.83m-13.832,0a.83.83,0,1,1-.831.83.83.83,0,0,1,.831-.83m-13.833,0a.83.83,0,1,1-.83.83.83.83,0,0,1,.83-.83m-13.832,0a.83.83,0,1,1-.83.83.83.83,0,0,1,.83-.83m-13.832,0a.83.83,0,1,1-.83.83.83.83,0,0,1,.83-.83" transform="translate(43.752 -5.707)" fill="#fff"/>
            <path id="Path_838915" data-name="Path 838915" d="M218.286,295.724c1.041-4.33,3.441-8.281,5.557-12.152,2.233-4.085,4.577-8.105,6.982-12.09.086-.143.173-.283.258-.425.4-1.276.974-2.522,1.46-3.753.623-1.582,1.29-3.147,1.9-4.732a.047.047,0,0,1,.091.027c-.5,1.651-1,3.3-1.6,4.918-.155.416-.309.841-.468,1.266.812-1.33,1.631-2.655,2.471-3.968,1.428-2.233,2.936-4.415,4.367-6.646a.051.051,0,0,1,.087.054c-2.293,3.917-4.5,7.887-6.784,11.808s-4.527,7.868-6.665,11.868q-1.592,2.976-3.084,6a51.087,51.087,0,0,0-2.577,5.854,18.906,18.906,0,0,0-.083,12.023c1.381,4.424,3.843,8.444,6.188,12.41.095.16-.151.351-.269.2-4.912-6.461-9.865-14.178-7.827-22.663" transform="translate(-53.243 -6.125)" fill="#263238"/>
            <path id="Path_838916" data-name="Path 838916" d="M185.176,370.491c7.234,9.987,26.5,11.592,74.631,20.186,6.66,1.189,27.7-43.554,20.65-45.19-8.876-2.06-43.768-8.131-46.376-8.253-21.993-1.027-53.813,26.482-48.905,33.257" transform="translate(-63.371 -8.001)" fill="#f7a9a0"/>
            <path id="Path_838917" data-name="Path 838917" d="M156.154,343.612s20.375,2.732,30.635,7.479c13.74,6.359,22.983,17.506,26.576,22.41,7.5,10.239,18.546,40.178,10.478,44.866-7.3,4.242-17.051-26.931-17.051-26.931s15.184,30.144,5.452,33.635-18.99-33.34-18.99-33.34,14.907,31.322,4.3,33.335c-8.015,1.522-18.28-31.365-18.28-31.365s12.626,27.01,4.451,28.93c-9.034,2.121-20.414-27.641-20.414-27.641-21.6,1.381-32.453-6.8-39.48-13.535-1.7-1.631,32.321-37.843,32.321-37.843" transform="translate(51.301 -8.153)" fill="#f7a9a0"/>
            <path id="Path_838918" data-name="Path 838918" d="M135.383,381.573c1.912,3.477,3.871,6.982,5.467,10.617s3.066,7.327,4.317,11.093c3.068,9.238,3.544,15.5,3.473,15.12-1.693-9.075-7.2-22.175-8.8-25.811s-3-7.334-4.6-10.964c-.04-.091.095-.139.141-.056" transform="translate(118.127 -9.053)" fill="#263238"/>
            <path id="Path_838919" data-name="Path 838919" d="M150.176,387.233c2.249,4.545,4.648,8.974,6.7,13.62,2.039,4.622,3.569,9.187,5.285,13.937.132.366-.108.316-.256-.046-1.9-4.678-4.024-8.857-5.983-13.513-1.952-4.639-3.737-9.39-5.856-13.954-.033-.071.078-.113.112-.045" transform="translate(90.106 -9.187)" fill="#263238"/>
            <path id="Path_838920" data-name="Path 838920" d="M166.235,390c3.793,6.769,6.332,14.23,8.648,21.608.115.368-.187.269-.327-.1-2.739-7.237-4.837-12.935-8.557-21.377-.058-.132.156-.274.236-.132" transform="translate(61.841 -9.252)" fill="#263238"/>
            <path id="Path_838921" data-name="Path 838921" d="M233.659,342.621c3.2-2.026,12.261-6.785,21.173-5.467a.078.078,0,0,1,0,.156c-7.344-.034-17.834,3.732-21.1,5.441a.074.074,0,0,1-.072-.13" transform="translate(-84.186 -7.994)" fill="#263238"/>
            <path id="Path_838922" data-name="Path 838922" d="M207.866,240.466c3.663,1.887,3.75,6.939-.456,12.578-6.743,9.038-25.719,16.428-25.719,16.428s-1.067-17.615,4.752-25.67c3.881-5.372,17.027-5.6,21.423-3.336" transform="translate(10.904 -5.673)" fill="#f7a9a0"/>
            <path id="Path_838923" data-name="Path 838923" d="M206.232,243.724c-.651,1.8-10.906,12.771-19.319,11.375-2.739-.46-.9-15.523-.9-15.523l-.119-1.143-1.644-16,19.7-9.587,2.83-1.243s.161,4.408.307,9.9c.009.255.017.51.021.782.017.31.036.6.037.893.033.82.062,1.657.074,2.491.012.636.026,1.254.014,1.92.006.671,0,1.32,0,1.991a103.5,103.5,0,0,1-1.006,14.147" transform="translate(11.68 -5.021)" fill="#f7a9a0"/>
            <path id="Path_838924" data-name="Path 838924" d="M207.243,221.5a32.267,32.267,0,0,1-21.194,16.933l-1.644-16,19.7-9.587,2.83-1.243s.161,4.408.307,9.9" transform="translate(11.527 -5.021)" fill="#263238"/>
            <path id="Path_838925" data-name="Path 838925" d="M175.705,194.433c-7.359,27.256,8.134,34.742,14.013,36.321,5.336,1.435,23.691,5.643,33.828-20.707s-.21-38.388-12.242-42.315-28.24-.556-35.6,26.7" transform="translate(1.504 -3.948)" fill="#f7a9a0"/>
            <path id="Path_838926" data-name="Path 838926" d="M216.384,190a18.562,18.562,0,0,0,1.95.01,3.153,3.153,0,0,0,1.991-.37,1,1,0,0,0,.258-1.2,2.492,2.492,0,0,0-2.278-1.088,3.665,3.665,0,0,0-2.518.781,1.071,1.071,0,0,0,.6,1.866" transform="translate(-32.18 -4.445)" fill="#263238"/>
            <path id="Path_838927" data-name="Path 838927" d="M203.992,193.987a18.382,18.382,0,0,1-1.78-.8,3.145,3.145,0,0,1-1.661-1.158,1,1,0,0,1,.261-1.2,2.491,2.491,0,0,1,2.522-.051,3.662,3.662,0,0,1,1.972,1.749,1.071,1.071,0,0,1-1.314,1.454" transform="translate(-2.318 -4.519)" fill="#263238"/>
            <path id="Path_838928" data-name="Path 838928" d="M206.943,200.391c.031-.068.125.124.1.2-.51,1.854-.78,4.064.761,5.091.048.031.021.124-.04.1-1.994-.787-1.6-3.717-.826-5.392" transform="translate(-10.449 -4.754)" fill="#263238"/>
            <path id="Path_838929" data-name="Path 838929" d="M205.782,198.8c3.062.495,1.846,6.58-.99,6.121-2.79-.451-1.576-6.536.99-6.121" transform="translate(-7.15 -4.717)" fill="#263238"/>
            <path id="Path_838930" data-name="Path 838930" d="M200.609,199.376c.463.45.862,1.162,1.49,1.353.727.222,1.415-.3,2.021-.82.063-.054.105.01.091.091-.216,1.17-.9,2.277-2.188,2.2-1.172-.068-1.785-1.264-1.841-2.5-.011-.227.241-.511.428-.329" transform="translate(-0.845 -4.729)" fill="#263238"/>
            <path id="Path_838931" data-name="Path 838931" d="M220.934,197.4c0-.075-.165.061-.178.139-.3,1.9-.967,4.024-2.8,4.324-.057.009-.069.105,0,.108,2.14.106,3-2.723,2.977-4.571" transform="translate(-34.878 -4.683)" fill="#263238"/>
            <path id="Path_838932" data-name="Path 838932" d="M221.032,195.044c-2.992-.812-4.4,5.232-1.625,5.985,2.728.741,4.133-5.3,1.625-5.985" transform="translate(-36.284 -4.626)" fill="#263238"/>
            <path id="Path_838933" data-name="Path 838933" d="M223.663,195.127c-.552.21-1.16.682-1.739.587-.672-.11-1.008-.878-1.286-1.6-.028-.074-.088-.035-.108.044-.3,1.148-.2,2.441.86,2.92.966.437,1.939-.381,2.482-1.467.1-.2.014-.564-.209-.48" transform="translate(-40.268 -4.605)" fill="#263238"/>
            <path id="Path_838934" data-name="Path 838934" d="M213.114,216.009c-.523.376-1.071.919-1.769.871a5.06,5.06,0,0,1-1.969-.79.067.067,0,0,0-.1.085,2.589,2.589,0,0,0,2.254,1.4,2.046,2.046,0,0,0,1.751-1.452c.046-.105-.094-.169-.17-.114" transform="translate(-18.798 -5.125)" fill="#263238"/>
            <path id="Path_838935" data-name="Path 838935" d="M213.765,206.4s-.988,2.739-1.271,4.07a7.32,7.32,0,0,0,7.428-.673c.132-.1-.02-.284-.159-.227a9.745,9.745,0,0,1-6.129.431c-.016-.389,1.849-4.635,1.641-4.7a11.88,11.88,0,0,0-3.168.044c1.894-5.766,4.7-11.181,6.5-16.95a.186.186,0,0,0-.33-.16c-3.339,5.468-5.662,12.055-7.77,17.96-.27.733,2.682.314,3.263.2" transform="translate(-26.665 -4.464)" fill="#263238"/>
            <path id="Path_838936" data-name="Path 838936" d="M210.229,211.232a7.029,7.029,0,0,0,2.35,2.675,3.163,3.163,0,0,0,1.863.481c1.434-.1,1.709-1.34,1.666-2.46a7.527,7.527,0,0,0-.295-1.758,9.106,9.106,0,0,1-5.583,1.062" transform="translate(-22.552 -4.987)" fill="#263238"/>
            <path id="Path_838937" data-name="Path 838937" d="M210.228,213.95a3.156,3.156,0,0,0,1.863.481c1.434-.095,1.709-1.34,1.667-2.46a3.268,3.268,0,0,0-3.529,1.979" transform="translate(-20.201 -5.029)" fill="#ff9abb"/>
            <path id="Path_838938" data-name="Path 838938" d="M189.843,209.527s9.876-8.011,9.721-21.561-14.977-25.131-31.9-23.429c0,0,22.237,5.554,25.175,17.9s-3,27.09-3,27.09" transform="translate(35.548 -3.9)" fill="#1fd27a"/>
            <path id="Path_838939" data-name="Path 838939" d="M209.194,211.539c-5.124-.983-2.71-12.671-2.71-12.671s-19.812-10.4-16.022-28.052c0,0-7.144,9.713-19.736,11.057,0,0,6.839-18.483,22.867-17.279,0,0,20.605-.7,26.193,17.3s-7.153,30.309-10.593,29.649" transform="translate(10.94 -3.904)" fill="#263238"/>
            <path id="Path_838940" data-name="Path 838940" d="M191.634,169.651a19.521,19.521,0,0,0-1.606,8.1,20.334,20.334,0,0,0,1.709,8.186,17.31,17.31,0,0,0,.953,1.879l.5.926c.192.293.4.576.605.86.419.562.813,1.142,1.252,1.686.472.514.956,1.019,1.444,1.516.245.247.479.506.733.742l.807.659,1.613,1.309c1.152.765,2.341,1.471,3.526,2.152-1.033-.919-2.138-1.715-3.143-2.628l-1.46-1.412-.728-.7c-.226-.25-.431-.519-.646-.777-.425-.522-.852-1.039-1.292-1.543-.4-.538-.747-1.108-1.123-1.659l-.558-.83-.462-.885a16.661,16.661,0,0,1-.879-1.789,23.325,23.325,0,0,1-1.9-7.728,24.309,24.309,0,0,1,.017-4.034,23.623,23.623,0,0,1,.635-4.03" transform="translate(10.107 -4.025)" fill="#263238"/>
            <path id="Path_838941" data-name="Path 838941" d="M173.313,210.963s7.618-7.589,11.167-4.721-3.263,14.626-8.192,15.518a4.774,4.774,0,0,1-5.845-3.653Z" transform="translate(46.936 -4.878)" fill="#f7a9a0"/>
            <path id="Path_838942" data-name="Path 838942" d="M182.969,209.66a.065.065,0,0,1,0,.128c-3.475.732-5.718,3.431-7.47,6.332,1.178-1.026,2.608-1.448,4.009-.014.073.075-.031.193-.119.157a2.937,2.937,0,0,0-3.361.439,14.143,14.143,0,0,0-1.985,2.3c-.2.263-.7.015-.528-.3.012-.022.026-.047.039-.07.658-4.145,4.9-9.352,9.414-8.973" transform="translate(46.412 -4.974)" fill="#263238"/>
            <path id="Path_838943" data-name="Path 838943" d="M180.05,220.366a1.146,1.146,0,1,0,1.256-1.023,1.144,1.144,0,0,0-1.256,1.023" transform="translate(40.692 -5.204)" fill="#fff"/>
            <path id="Path_838944" data-name="Path 838944" d="M177.634,218.756a.826.826,0,1,0,.906-.738.827.827,0,0,0-.906.738" transform="translate(46.102 -5.173)" fill="#fff"/>
            <path id="Path_838945" data-name="Path 838945" d="M169.929,209.5l1.706.027a.6.6,0,0,0,.018-1.208l-1.7-.027a.6.6,0,0,0-.613.594h0a.6.6,0,0,0,.594.613" transform="translate(61.236 -4.942)" fill="#ffc727"/>
            <path id="Path_838946" data-name="Path 838946" d="M169.965,211.293l1.66.388a.6.6,0,1,0,.274-1.176l-1.66-.388a.6.6,0,1,0-.274,1.176" transform="translate(60.956 -4.985)" fill="#ffc727"/>
            <path id="Path_838947" data-name="Path 838947" d="M222.526,226.037s3.54-9.844,10.056-6.886,1.436,12.1,1.436,12.1Z" transform="translate(-54.351 -5.187)" fill="#ff9abb"/>
            <rect id="Rectangle_377749" data-name="Rectangle 377749" width="12.62" height="73.562" transform="translate(149.431 292.675) rotate(-155.584)" fill="#ffc727"/>
            <rect id="Rectangle_377750" data-name="Rectangle 377750" width="14.736" height="2.924" transform="translate(179.756 228.431) rotate(-155.585)" fill="#37474f"/>
            <rect id="Rectangle_377751" data-name="Rectangle 377751" width="14.736" height="2.924" transform="translate(178.42 231.374) rotate(-155.581)" fill="#37474f"/>
            <path id="Path_838948" data-name="Path 838948" d="M266.927,299.633l-8.078,6.306-2.655,2.087-.2-3.385-.57-10.231,1.92-1.14s.367,2.149.381,2.185l1.92-1.14s.366,2.148.381,2.185l1.895-1.152s.392,2.159.405,2.2l1.9-1.152s.391,2.16.405,2.2l1.9-1.152s.391,2.16.405,2.2" transform="translate(-117.49 -6.958)" fill="#ebebeb"/>
            <path id="Path_838949" data-name="Path 838949" d="M266.554,306.215,263.9,308.3l-.2-3.386Z" transform="translate(-125.195 -7.235)" fill="#37474f"/>
            <path id="Path_838950" data-name="Path 838950" d="M195.474,261.32c14.633,23.95,39.174,75.059,29.757,93.852-9.07,18.1-81.167-8.075-95.8-13.454-6.006-2.207,1.272-51.866,7.935-50.312,14.629,3.413,45.689,18.216,46.376,17.751.611-.413-3.723-21.977-7.24-43.316-5.119-31.053,8.455-21.737,18.973-4.52" transform="translate(47.297 -5.823)" fill="#f7a9a0"/>
            <path id="Path_838951" data-name="Path 838951" d="M214.665,268.252c-3.975,4.565.8,8.6.8,8.6a11.308,11.308,0,0,0-6.845,3.5c-3.012,3.553,1.237,9.834,1.237,9.834a13.947,13.947,0,0,0-6.63,4.847c-2.541,3.689.843,10.638.843,10.638a12.23,12.23,0,0,0-3.145,7.934c.15,7.849,10.4,14.079,16.938,17.992,9.719,5.813,28.668,9.189,32.792,10.608l25.916-41.5s-24.3-25.654-32.376-29.747c-8.25-4.179-25.624-7.2-29.532-2.709" transform="translate(-73.931 -6.312)" fill="#f7a9a0"/>
            <path id="Path_838952" data-name="Path 838952" d="M239.283,276.612c8.214,1.436,15.556,5.223,23.1,8.586a.143.143,0,0,1-.119.26c-7.463-3.433-15.511-5.338-23.095-8.466a.2.2,0,0,1,.115-.38" transform="translate(-97.045 -6.563)" fill="#263238"/>
            <path id="Path_838953" data-name="Path 838953" d="M247.486,290.3a21.706,21.706,0,0,1,5.235,2.217q2.694,1.366,5.342,2.823,5.3,2.913,10.456,6.087c.152.095.046.35-.119.261-3.527-1.929-7.082-3.8-10.687-5.584q-2.7-1.335-5.432-2.627a25.82,25.82,0,0,1-5.022-2.674.288.288,0,0,1,.227-.5" transform="translate(-111.087 -6.888)" fill="#263238"/>
            <path id="Path_838954" data-name="Path 838954" d="M255.536,306.716c1.62.267,3.2,1.438,4.606,2.247q2.388,1.377,4.792,2.728c3.2,1.8,6.409,3.6,9.674,5.286.163.085.046.345-.119.261-3.326-1.7-6.675-3.351-9.985-5.079q-2.44-1.271-4.864-2.571c-1.375-.737-3.176-1.5-4.2-2.716a.1.1,0,0,1,.1-.157" transform="translate(-125.245 -7.277)" fill="#263238"/>
            <path id="Path_838955" data-name="Path 838955" d="M159.749,310.4a48.7,48.7,0,0,1,6.725,6.5,85.2,85.2,0,0,1,5.558,7.094c.04.054-.109.107-.152.056-1.931-2.315-4.158-4.51-6.24-6.761s-4.423-4.368-6.346-6.675c-.124-.148.289-.336.456-.211" transform="translate(71.271 -7.364)" fill="#263238"/>
            <path id="Path_838956" data-name="Path 838956" d="M267.464,363.4a157.508,157.508,0,0,1-20.252-3.122l-5-1.1L237.225,358c-1.66-.4-3.307-.851-4.96-1.274s-3.3-.861-4.947-1.325c-6.59-1.79-13.113-3.82-19.617-5.9l-9.718-3.25-9.656-3.437-.06-.021-.041-.01c-3.681-.874-7.355-1.818-11.024-2.757s-7.322-1.95-10.949-3.017a58.934,58.934,0,0,1-10.541-4.024,67.564,67.564,0,0,1-9.626-6,58.833,58.833,0,0,0,9.291,6.62,46.132,46.132,0,0,0,5.129,2.579c1.771.741,3.567,1.383,5.371,2,3.605,1.234,7.255,2.312,10.906,3.373s7.325,2.028,11.011,2.982l-.1-.031,9.658,3.544c3.25,1.1,6.482,2.246,9.749,3.3,6.544,2.06,13.108,4.072,19.771,5.729,6.647,1.7,13.352,3.205,20.126,4.328,1.693.28,3.391.538,5.087.79,1.7.205,3.4.444,5.112.612a85.128,85.128,0,0,0,10.265.6" transform="translate(-11.284 -7.758)" fill="#263238"/>
            <path id="Path_838957" data-name="Path 838957" d="M180.819,300.267l-45,1.547s-6.45-32.655-6.124-50.222c.183-9.845,5.922-9.42,12.327-3.247,22.417,21.6,38.792,51.922,38.792,51.922" transform="translate(91.371 -5.787)" fill="#0a5e6b"/>
            <path id="Path_838958" data-name="Path 838958" d="M154.322,263.211a.83.83,0,1,0,.83-.83.83.83,0,0,0-.83.83m-13-.83a.83.83,0,1,1-.83.83.83.83,0,0,1,.83-.83m6.916-10.7a.83.83,0,1,1-.83.83.83.83,0,0,1,.83-.83m20.748,32.275a.83.83,0,1,1-.83.83.83.83,0,0,1,.83-.83m-13.832,0a.83.83,0,1,1-.83.83.83.83,0,0,1,.83-.83m-13.832,0a.83.83,0,1,1-.83.83.83.83,0,0,1,.83-.83m20.748-10.7a.83.83,0,1,1-.83.83.829.829,0,0,1,.83-.83m-13.832,0a.83.83,0,1,1-.83.83.829.829,0,0,1,.83-.83M175.9,294.834a.83.83,0,1,1-.83.83.831.831,0,0,1,.83-.83m-13.832,0a.83.83,0,1,1-.83.83.83.83,0,0,1,.83-.83m-13.832,0a.83.83,0,1,1-.83.83.83.83,0,0,1,.83-.83" transform="translate(84.913 -5.972)" fill="#fff"/>
            <path id="Path_838959" data-name="Path 838959" d="M135.468,295.861c6.9-.811,25.69-2.471,38.04-1.953.074,0,.095.286.021.295-10.339,1.119-31.084,1.871-38.03,2.08-.131,0-.161-.406-.031-.422" transform="translate(93.053 -6.971)" fill="#263238"/>
            <path id="Path_838960" data-name="Path 838960" d="M172.943,268.876c.512,1.947,1,3.9,1.467,5.856-.025-.237-.059-.474-.082-.712-.28-2.736-.546-5.469-.745-8.212,0-.064.106-.078.115-.013,1.337,9.564,5.118,33.725,5.335,36.37.214-.027,2.263.052,2.743.029.1,0,.093.146,0,.156-.247.026-3.327.4-3.347.333-1.34-4.661-3.377-22.272-3.811-26.171-.7-2.513-1.278-5.051-1.725-7.623a.027.027,0,0,1,.053-.014" transform="translate(48.163 -6.306)" fill="#263238"/>
          </g>
        </g>
      </g>
    </g>
  </g>
</svg>
