<svg xmlns="http://www.w3.org/2000/svg" xmlns:xlink="http://www.w3.org/1999/xlink" width="400" height="375" viewBox="0 0 400 375">
  <defs>
    <clipPath id="clip-path">
      <rect id="Rectangle_377767" data-name="Rectangle 377767" width="400" height="375" transform="translate(1019.708 1017)" fill="#fff" stroke="#707070" stroke-width="1"/>
    </clipPath>
    <clipPath id="clip-path-2">
      <rect id="Rectangle_377766" data-name="Rectangle 377766" width="577.932" height="374.41" fill="#faffd7"/>
    </clipPath>
    <clipPath id="clip-path-3">
      <rect id="Rectangle_377779" data-name="Rectangle 377779" width="387.778" height="357.322" fill="none"/>
    </clipPath>
    <clipPath id="clip-path-6">
      <rect id="Rectangle_377769" data-name="Rectangle 377769" width="50.929" height="49.466" transform="translate(158.708 115.326)" fill="#e6ff48"/>
    </clipPath>
    <clipPath id="clip-path-8">
      <rect id="Rectangle_377771" data-name="Rectangle 377771" width="12.221" height="13.226" transform="translate(282.453 316.136)" fill="none"/>
    </clipPath>
    <clipPath id="clip-path-9">
      <rect id="Rectangle_377772" data-name="Rectangle 377772" width="9.588" height="10.926" transform="translate(351.582 315.766)" fill="none"/>
    </clipPath>
    <clipPath id="clip-path-10">
      <rect id="Rectangle_377774" data-name="Rectangle 377774" width="7.418" height="16.977" transform="translate(353.755 82.876)" fill="none"/>
    </clipPath>
    <clipPath id="clip-path-11">
      <rect id="Rectangle_377776" data-name="Rectangle 377776" width="10.433" height="49.61" transform="translate(333.987 152.204)" fill="none"/>
    </clipPath>
  </defs>
  <g id="Group_1072274" data-name="Group 1072274" transform="translate(-1020 -2180)">
    <g id="Mask_Group_88" data-name="Mask Group 88" transform="translate(0.292 1163)" clip-path="url(#clip-path)">
      <g id="Group_1072187" data-name="Group 1072187" transform="translate(1038.993 1017.215)">
        <g id="Group_1072186" data-name="Group 1072186" transform="translate(0 0)" clip-path="url(#clip-path-2)">
          <path id="Path_838965" data-name="Path 838965" d="M576.758,273.849c-6.691,31.832-33.059,66.036-72.848,80.3q-.83.3-1.678.587c-28.938,9.886-74.953,13.41-114.575,12.632-15.39-.3-29.815-1.252-41.9-2.73-14.991-1.835-29.488-1.419-44.264-.032-6.222.582-12.5,1.339-18.876,2.174-34.462,4.5-72.035,11.264-121.768,5.254q-7.483-.9-15.347-2.208a411.349,411.349,0,0,1-65.314-16.807c-33.141-11.312-63.66-29.274-75.775-54.361C1.315,292.239-.654,285.416.2,278.64c1.693-13.412,13.911-24.665,24.4-35.778a229,229,0,0,0,33.1-44.57c4.862-8.632,9.089-17.775,8.191-27.078-1.956-20.325-26.852-35.06-38.846-53.481C16.19,101.062,16.517,80.779,27.906,64.3s33.6-28.8,58.5-32.467c54.265-7.978,111.533,23.218,163.362,9.082,26.894-7.334,54.994-21.433,81.162-30.043,111.863-36.808,203.7,27.472,199.273,79.6-3.667,43.131-22.616,44.357-49.189,79.366a20.357,20.357,0,0,0-4.287,15.7c1.9,11.025,16.505,18.549,30.912,22.318s30.165,5.35,42.988,11.427c23.489,11.136,30.359,34.439,26.129,54.565" transform="translate(0.001 -0.002)" fill="#faffd7"/>
        </g>
      </g>
    </g>
    <g id="Group_1072219" data-name="Group 1072219" transform="translate(1032.222 2197.432)">
      <g id="Group_1072218" data-name="Group 1072218" clip-path="url(#clip-path-3)">
        <g id="Group_1072189" data-name="Group 1072189">
          <g id="Group_1072188" data-name="Group 1072188" clip-path="url(#clip-path-3)">
            <path id="Path_838966" data-name="Path 838966" d="M387.778,346c0,6.254-86.807,11.323-193.889,11.323S0,352.253,0,346s86.807-11.323,193.889-11.323S387.778,339.746,387.778,346" fill="#cdf5e2"/>
          </g>
        </g>
        <g id="Group_1072194" data-name="Group 1072194">
          <g id="Group_1072193" data-name="Group 1072193" clip-path="url(#clip-path-3)">
            <path id="Path_838967" data-name="Path 838967" d="M29.365,222.281,17.061,8.216a7.231,7.231,0,0,1,7.3-7.742H268.492a8.305,8.305,0,0,1,8.187,7.742l12.3,214.065a7.229,7.229,0,0,1-7.3,7.742H37.552a8.3,8.3,0,0,1-8.187-7.742" fill="#0a5e6b"/>
            <path id="Path_838968" data-name="Path 838968" d="M281.685,230.5H37.552a8.8,8.8,0,0,1-8.661-8.189L16.587,8.244A7.706,7.706,0,0,1,24.359,0H268.492a8.8,8.8,0,0,1,8.661,8.19l12.3,214.064a7.706,7.706,0,0,1-7.772,8.244M29.839,222.254a7.834,7.834,0,0,0,7.713,7.295H281.685a6.754,6.754,0,0,0,6.823-7.24L276.2,8.244a7.834,7.834,0,0,0-7.713-7.3H24.359A6.757,6.757,0,0,0,17.535,8.19Z" fill="#263238"/>
            <path id="Path_838969" data-name="Path 838969" d="M32.355,222.281,20.051,8.216a7.231,7.231,0,0,1,7.3-7.742H271.482a8.305,8.305,0,0,1,8.187,7.742l12.3,214.065a7.229,7.229,0,0,1-7.3,7.742H40.542a8.3,8.3,0,0,1-8.187-7.742" fill="#fff"/>
            <path id="Path_838970" data-name="Path 838970" d="M284.675,230.5H40.542a8.8,8.8,0,0,1-8.661-8.19L19.577,8.244A7.7,7.7,0,0,1,27.348,0H271.482a8.8,8.8,0,0,1,8.661,8.189l12.3,214.065a7.706,7.706,0,0,1-7.772,8.244M27.348.949a6.755,6.755,0,0,0-6.823,7.24l12.3,214.065a7.834,7.834,0,0,0,7.713,7.295H284.675a6.755,6.755,0,0,0,6.823-7.241L279.2,8.244a7.834,7.834,0,0,0-7.713-7.3Z" fill="#263238"/>
            <path id="Path_838971" data-name="Path 838971" d="M114.423,31.387H46.2a4.942,4.942,0,0,1-4.857-4.594A4.3,4.3,0,0,1,45.669,22.2h68.226a4.942,4.942,0,0,1,4.857,4.593,4.3,4.3,0,0,1-4.329,4.594" fill="#1fd27a"/>
            <path id="Path_838972" data-name="Path 838972" d="M101.881,47.3H47.112a4.942,4.942,0,0,1-4.858-4.594,4.3,4.3,0,0,1,4.329-4.593h54.77a4.942,4.942,0,0,1,4.857,4.593,4.3,4.3,0,0,1-4.329,4.594" fill="#1fd27a"/>
            <path id="Path_838973" data-name="Path 838973" d="M128.679,67.838H46.665a3.182,3.182,0,0,1-3.137-2.967,2.77,2.77,0,0,1,2.8-2.966h82.014a3.182,3.182,0,0,1,3.137,2.966,2.77,2.77,0,0,1-2.8,2.967" fill="#e0e0e0"/>
            <path id="Path_838974" data-name="Path 838974" d="M143.471,77.3H56.237A3.182,3.182,0,0,1,53.1,74.332a2.77,2.77,0,0,1,2.8-2.966H143.13a3.182,3.182,0,0,1,3.137,2.966,2.77,2.77,0,0,1-2.8,2.967" fill="#e0e0e0"/>
            <path id="Path_838975" data-name="Path 838975" d="M128.043,86.759H56.781a3.181,3.181,0,0,1-3.137-2.966,2.77,2.77,0,0,1,2.8-2.966H127.7a3.182,3.182,0,0,1,3.137,2.966,2.769,2.769,0,0,1-2.8,2.966" fill="#e0e0e0"/>
            <path id="Path_838976" data-name="Path 838976" d="M120.54,96.22H57.325a3.182,3.182,0,0,1-3.137-2.967,2.77,2.77,0,0,1,2.8-2.966H120.2a3.182,3.182,0,0,1,3.137,2.966,2.77,2.77,0,0,1-2.8,2.967" fill="#e0e0e0"/>
            <path id="Path_838977" data-name="Path 838977" d="M100.389,111.614H49.181a3.182,3.182,0,0,1-3.137-2.967,2.77,2.77,0,0,1,2.8-2.966h51.208a3.182,3.182,0,0,1,3.137,2.966,2.77,2.77,0,0,1-2.8,2.967" fill="#e0e0e0"/>
            <path id="Path_838978" data-name="Path 838978" d="M114.912,134.062H59.5a2.77,2.77,0,0,0-2.8,2.967,3.182,3.182,0,0,0,3.137,2.966h55.412a2.77,2.77,0,0,0,2.8-2.966,3.181,3.181,0,0,0-3.137-2.967" fill="#e0e0e0"/>
            <path id="Path_838979" data-name="Path 838979" d="M103.851,124.6H58.956a2.769,2.769,0,0,0-2.8,2.967,3.181,3.181,0,0,0,3.137,2.966h44.9a2.77,2.77,0,0,0,2.8-2.966,3.182,3.182,0,0,0-3.137-2.967" fill="#e0e0e0"/>
            <path id="Path_838980" data-name="Path 838980" d="M108.46,115.141H58.413a2.769,2.769,0,0,0-2.8,2.967,3.181,3.181,0,0,0,3.137,2.966H108.8a2.77,2.77,0,0,0,2.8-2.966,3.18,3.18,0,0,0-3.136-2.967" fill="#e0e0e0"/>
            <path id="Path_838981" data-name="Path 838981" d="M104.536,183.771H53.328a3.182,3.182,0,0,1-3.137-2.967,2.77,2.77,0,0,1,2.8-2.966h51.208a3.181,3.181,0,0,1,3.137,2.966,2.77,2.77,0,0,1-2.8,2.967" fill="#e0e0e0"/>
            <path id="Path_838982" data-name="Path 838982" d="M119.059,206.219H63.647a2.77,2.77,0,0,0-2.8,2.967,3.182,3.182,0,0,0,3.137,2.966H119.4a2.77,2.77,0,0,0,2.8-2.966,3.182,3.182,0,0,0-3.137-2.967" fill="#e0e0e0"/>
            <path id="Path_838983" data-name="Path 838983" d="M108,196.759H63.1a2.77,2.77,0,0,0-2.8,2.967,3.181,3.181,0,0,0,3.137,2.966H108.34a2.77,2.77,0,0,0,2.8-2.966A3.181,3.181,0,0,0,108,196.759" fill="#e0e0e0"/>
            <path id="Path_838984" data-name="Path 838984" d="M112.607,187.3H62.56a2.769,2.769,0,0,0-2.8,2.967,3.181,3.181,0,0,0,3.137,2.966h50.047a2.77,2.77,0,0,0,2.8-2.966,3.181,3.181,0,0,0-3.137-2.967" fill="#e0e0e0"/>
            <path id="Path_838985" data-name="Path 838985" d="M116.543,162.444H61.131a2.77,2.77,0,0,0-2.8,2.967,3.182,3.182,0,0,0,3.137,2.966h55.412a2.77,2.77,0,0,0,2.8-2.966,3.182,3.182,0,0,0-3.137-2.967" fill="#e0e0e0"/>
            <path id="Path_838986" data-name="Path 838986" d="M105.483,152.983h-44.9a2.769,2.769,0,0,0-2.8,2.967,3.181,3.181,0,0,0,3.137,2.966h44.895a2.77,2.77,0,0,0,2.8-2.966,3.182,3.182,0,0,0-3.137-2.967" fill="#e0e0e0"/>
            <path id="Path_838987" data-name="Path 838987" d="M110.091,143.523H60.044a2.769,2.769,0,0,0-2.8,2.967,3.181,3.181,0,0,0,3.137,2.966h50.047a2.77,2.77,0,0,0,2.8-2.966,3.182,3.182,0,0,0-3.137-2.967" fill="#e0e0e0"/>
            <path id="Path_838988" data-name="Path 838988" d="M203.951,65.86H179.218a26.529,26.529,0,0,1-26.154-24.733,23.1,23.1,0,0,1,23.311-24.733,26.53,26.53,0,0,1,26.154,24.733Z" fill="#1fd27a"/>
            <path id="Path_838989" data-name="Path 838989" d="M178.972,61.576h0a21.935,21.935,0,0,1-21.624-20.449,19.1,19.1,0,0,1,19.273-20.448,21.934,21.934,0,0,1,21.624,20.448,19.1,19.1,0,0,1-19.273,20.449" fill="#fff"/>
            <path id="Path_838990" data-name="Path 838990" d="M180.232,32.848l.952,16.559h-4.576l-.624-10.851a12.858,12.858,0,0,1-2.07,1.367,15.857,15.857,0,0,1-2.547,1l-.213-3.709a10.263,10.263,0,0,0,3.484-1.788,6.714,6.714,0,0,0,1.851-2.577Z" fill="#263238"/>
            <path id="Path_838991" data-name="Path 838991" d="M219.215,115.326h24.733a23.1,23.1,0,0,0,23.311-24.733A26.531,26.531,0,0,0,241.1,65.86a23.1,23.1,0,0,0-23.312,24.733Z" fill="#1fd27a"/>
            <path id="Path_838992" data-name="Path 838992" d="M243.7,111.042h0a19.094,19.094,0,0,0,19.273-20.449A21.934,21.934,0,0,0,241.35,70.145a19.1,19.1,0,0,0-19.273,20.448A21.935,21.935,0,0,0,243.7,111.042" fill="#fff"/>
            <path id="Path_838993" data-name="Path 838993" d="M250.226,98.873H236.654a8.073,8.073,0,0,1,1.2-3.782,17.51,17.51,0,0,1,4.2-4.181,12.148,12.148,0,0,0,2.414-2.244,2.386,2.386,0,0,0,.472-1.454,1.811,1.811,0,0,0-.623-1.272,2.024,2.024,0,0,0-1.413-.528,1.826,1.826,0,0,0-1.385.544,3.156,3.156,0,0,0-.628,1.922l-4.553-.367a6.9,6.9,0,0,1,.806-2.982,4.178,4.178,0,0,1,1.911-1.643,8.8,8.8,0,0,1,3.548-.572,10.366,10.366,0,0,1,3.747.544,4.915,4.915,0,0,1,2.184,1.671,4.649,4.649,0,0,1,.906,2.527,4.951,4.951,0,0,1-.709,2.843,10.955,10.955,0,0,1-3,2.977q-1.311.943-1.75,1.321t-1.026.989h7.063Z" fill="#263238"/>
            <g id="Group_1072192" data-name="Group 1072192" opacity="0.4">
              <g id="Group_1072191" data-name="Group 1072191">
                <g id="Group_1072190" data-name="Group 1072190" clip-path="url(#clip-path-6)">
                  <path id="Path_838994" data-name="Path 838994" d="M209.637,164.792H184.9a26.53,26.53,0,0,1-26.154-24.733,23.1,23.1,0,0,1,23.311-24.733,26.53,26.53,0,0,1,26.154,24.733Z" fill="#e6ff48"/>
                </g>
              </g>
            </g>
            <path id="Path_838995" data-name="Path 838995" d="M184.658,160.508h0a21.935,21.935,0,0,1-21.624-20.449,19.1,19.1,0,0,1,19.273-20.448,21.934,21.934,0,0,1,21.624,20.448,19.094,19.094,0,0,1-19.273,20.449" fill="#fff"/>
            <path id="Path_838996" data-name="Path 838996" d="M181.081,136.627l-4.32-.766a4.979,4.979,0,0,1,1.869-3.132,6.976,6.976,0,0,1,4.23-1.089,7.469,7.469,0,0,1,4.677,1.189,3.98,3.98,0,0,1,1.594,2.987,3.206,3.206,0,0,1-.468,1.911,4.517,4.517,0,0,1-1.658,1.5,5.428,5.428,0,0,1,1.476.544,3.836,3.836,0,0,1,1.336,1.316,4.158,4.158,0,0,1,.562,1.949,5.229,5.229,0,0,1-.588,2.727,4.584,4.584,0,0,1-2.028,2.01,7.936,7.936,0,0,1-3.635.705,9.782,9.782,0,0,1-3.534-.522,5.67,5.67,0,0,1-2.2-1.527,7.527,7.527,0,0,1-1.417-2.526l4.486-.6a3.756,3.756,0,0,0,.936,1.893,2.108,2.108,0,0,0,1.457.528,1.848,1.848,0,0,0,1.478-.666,2.423,2.423,0,0,0,.5-1.777,2.6,2.6,0,0,0-.684-1.755,2.18,2.18,0,0,0-1.618-.622,5.584,5.584,0,0,0-1.451.266l.048-3.231a4.374,4.374,0,0,0,.592.055,1.957,1.957,0,0,0,1.45-.566,1.811,1.811,0,0,0,0-2.533,1.741,1.741,0,0,0-1.247-.444,1.7,1.7,0,0,0-1.272.483,2.768,2.768,0,0,0-.58,1.694" fill="#263238"/>
            <path id="Path_838997" data-name="Path 838997" d="M224.9,214.258h24.733a23.1,23.1,0,0,0,23.311-24.733,26.531,26.531,0,0,0-26.154-24.733,23.1,23.1,0,0,0-23.312,24.733Z" fill="#cdf5e2"/>
            <path id="Path_838998" data-name="Path 838998" d="M249.387,209.973h0a19.094,19.094,0,0,0,19.273-20.449,21.934,21.934,0,0,0-21.623-20.448h0a19.1,19.1,0,0,0-19.273,20.448,21.935,21.935,0,0,0,21.624,20.449" fill="#fff"/>
            <path id="Path_838999" data-name="Path 838999" d="M249.3,194.762h-8.241l-.214-3.721,7.678-9.8h3.942l.576,10.007h2.043l.2,3.51h-2.044l.175,3.043h-3.942Zm-.2-3.51-.3-5.124-4.06,5.124Z" fill="#cdf5e2"/>
            <path id="Path_839000" data-name="Path 839000" d="M215.846,165.668a.876.876,0,0,1-.874-.826L209.286,65.91a.876.876,0,1,1,1.75-.1l5.686,98.931a.876.876,0,0,1-.825.925h-.051" fill="#407bff"/>
            <path id="Path_839001" data-name="Path 839001" d="M218.69,215.134a.876.876,0,0,1-.874-.826l-2.843-49.466a.876.876,0,1,1,1.75-.1l2.843,49.466a.876.876,0,0,1-.825.925h-.051" fill="#cdf5e2"/>
            <path id="Path_839002" data-name="Path 839002" d="M212.012,65.86a1.728,1.728,0,0,1-1.744,1.85,1.983,1.983,0,0,1-1.957-1.85,1.728,1.728,0,0,1,1.744-1.85,1.986,1.986,0,0,1,1.957,1.85" fill="#fff"/>
            <path id="Path_839003" data-name="Path 839003" d="M210.267,68.587a2.874,2.874,0,0,1-2.831-2.676,2.6,2.6,0,0,1,2.619-2.776,2.875,2.875,0,0,1,2.832,2.676,2.6,2.6,0,0,1-2.62,2.776m-.212-3.7a.853.853,0,0,0-.869.924,1.114,1.114,0,0,0,1.081,1.024.852.852,0,0,0,.87-.925,1.113,1.113,0,0,0-1.082-1.023" fill="#407bff"/>
            <path id="Path_839004" data-name="Path 839004" d="M214.855,115.326a1.727,1.727,0,0,1-1.744,1.85,1.985,1.985,0,0,1-1.957-1.85,1.728,1.728,0,0,1,1.744-1.85,1.985,1.985,0,0,1,1.957,1.85" fill="#fff"/>
            <path id="Path_839005" data-name="Path 839005" d="M213.11,118.052a2.874,2.874,0,0,1-2.831-2.677A2.6,2.6,0,0,1,212.9,112.6a2.876,2.876,0,0,1,2.832,2.676h0a2.6,2.6,0,0,1-2.62,2.776m-.212-3.7a.853.853,0,0,0-.869.925,1.114,1.114,0,0,0,1.081,1.024.852.852,0,0,0,.87-.925,1.115,1.115,0,0,0-1.082-1.024" fill="#407bff"/>
            <path id="Path_839006" data-name="Path 839006" d="M217.7,164.792a1.727,1.727,0,0,1-1.744,1.85,1.985,1.985,0,0,1-1.957-1.85,1.728,1.728,0,0,1,1.744-1.85,1.985,1.985,0,0,1,1.957,1.85" fill="#fff"/>
            <path id="Path_839007" data-name="Path 839007" d="M215.954,167.518a2.875,2.875,0,0,1-2.832-2.677,2.6,2.6,0,0,1,2.619-2.775,2.873,2.873,0,0,1,2.831,2.675,2.6,2.6,0,0,1-2.618,2.777m-.213-3.7a.853.853,0,0,0-.869.923,1.113,1.113,0,0,0,1.082,1.025.85.85,0,0,0,.868-.924h0a1.111,1.111,0,0,0-1.081-1.023" fill="#cdf5e2"/>
            <path id="Path_839008" data-name="Path 839008" d="M220.541,214.258a1.727,1.727,0,0,1-1.744,1.85,1.985,1.985,0,0,1-1.957-1.85,1.728,1.728,0,0,1,1.744-1.85,1.985,1.985,0,0,1,1.957,1.85" fill="#fff"/>
            <path id="Path_839009" data-name="Path 839009" d="M218.8,216.984a2.875,2.875,0,0,1-2.832-2.676,2.6,2.6,0,0,1,2.619-2.777,2.875,2.875,0,0,1,2.832,2.677,2.6,2.6,0,0,1-2.619,2.776m-.213-3.7a.853.853,0,0,0-.869.925,1.114,1.114,0,0,0,1.082,1.024.868.868,0,0,0,.638-.266.877.877,0,0,0,.231-.659,1.114,1.114,0,0,0-1.082-1.024" fill="#cdf5e2"/>
          </g>
        </g>
        <g id="Group_1072217" data-name="Group 1072217">
          <g id="Group_1072216" data-name="Group 1072216" clip-path="url(#clip-path-3)">
            <path id="Path_839010" data-name="Path 839010" d="M367.441,84.278c.671,1.045,1.213,1.933,1.755,2.914.541.96,1.06,1.924,1.565,2.9,1.014,1.941,1.927,3.93,2.79,5.944a80.346,80.346,0,0,1,4.147,12.552l.348,1.637.173.818.043.206.071.414c.048.281.061.536.082.8a10.726,10.726,0,0,1-.991,4.793,25.849,25.849,0,0,1-3.932,6.11,57.078,57.078,0,0,1-9.6,8.994l-3.2-3.358a111.545,111.545,0,0,0,6.92-9.85,22.6,22.6,0,0,0,2.274-4.756,2.718,2.718,0,0,0,.158-1.325c-.012.008-.01,0-.017.025a.057.057,0,0,0,0,.029l-.052-.175-.207-.7-.413-1.406A94.108,94.108,0,0,0,365.026,99.8c-.826-1.812-1.734-3.59-2.637-5.365-.457-.885-.928-1.764-1.412-2.627-.475-.845-.991-1.762-1.425-2.492Z" fill="#ff8b7b"/>
            <path id="Path_839011" data-name="Path 839011" d="M362.972,127.209l-7.52.31,3.027,6.456s5.351-.3,7.359-3.549Z" fill="#ff8b7b"/>
            <path id="Path_839012" data-name="Path 839012" d="M353.592,130.424l1.858,5.778,3.03-2.226-3.027-6.457Z" fill="#ff8b7b"/>
            <path id="Path_839013" data-name="Path 839013" d="M348.959,337.218a11.111,11.111,0,0,0,2.421-.329.219.219,0,0,0,.166-.173.212.212,0,0,0-.091-.218c-.31-.207-3.066-2-4.137-1.519a.756.756,0,0,0-.44.61,1.22,1.22,0,0,0,.343,1.152,2.6,2.6,0,0,0,1.738.477m1.812-.638c-1.6.318-2.795.264-3.253-.16a.8.8,0,0,1-.211-.771.31.31,0,0,1,.184-.274c.566-.259,2.157.52,3.28,1.2" fill="#407bff"/>
            <path id="Path_839014" data-name="Path 839014" d="M351.33,336.9a.211.211,0,0,0,.109-.03.219.219,0,0,0,.111-.187c0-.112.026-2.747-.957-3.628a1.114,1.114,0,0,0-.914-.289.767.767,0,0,0-.738.6c-.221,1.032,1.416,3.007,2.282,3.5a.214.214,0,0,0,.107.028m-1.506-3.71a.689.689,0,0,1,.477.19c.586.526.77,2.005.808,2.882-.861-.694-1.878-2.178-1.744-2.807.022-.1.083-.226.36-.259a.848.848,0,0,1,.1-.006" fill="#407bff"/>
            <path id="Path_839015" data-name="Path 839015" d="M279.683,333.138a.221.221,0,0,0,.2-.092.206.206,0,0,0-.01-.245c-.281-.359-2.742-3.45-4.073-3.536a.817.817,0,0,0-.086,0,.7.7,0,0,0-.59.345,1.128,1.128,0,0,0-.1,1.1c.53,1.211,3.12,2.04,4.617,2.426a.214.214,0,0,0,.043.007m-3.894-3.449c.733.047,2.27,1.605,3.318,2.858-2.022-.588-3.378-1.32-3.675-2a.728.728,0,0,1,.071-.717.267.267,0,0,1,.235-.143.442.442,0,0,1,.051,0" fill="#407bff"/>
            <path id="Path_839016" data-name="Path 839016" d="M279.683,333.137a.2.2,0,0,0,.049,0A.213.213,0,0,0,279.9,333c.037-.1.912-2.346.264-3.687a1.623,1.623,0,0,0-.948-.85c-.581-.21-.875-.015-1.019.182-.607.835.532,3.505,1.327,4.411a.23.23,0,0,0,.158.077m-.874-4.334a.963.963,0,0,1,.261.061,1.177,1.177,0,0,1,.694.624,4.7,4.7,0,0,1-.148,2.983c-.736-1.075-1.417-3.073-1.053-3.575a.244.244,0,0,1,.246-.093" fill="#407bff"/>
            <path id="Path_839017" data-name="Path 839017" d="M345.575,53.1c-1.034,5.447-3.36,17.331.463,20.878,0,0-1.454,5.533-11.554,5.731-11.106.218-5.339-5.4-5.339-5.4,6.053-1.563,5.871-6.05,4.791-10.245Z" fill="#ff8b7b"/>
            <path id="Path_839018" data-name="Path 839018" d="M347.546,68.9a3.013,3.013,0,0,0-3.764-1.765,45.5,45.5,0,0,1-10.689,1.932,3.858,3.858,0,0,0-3.136,1.963l-4.29,7.564,24.462-2.961Z" fill="#1fd27a"/>
            <path id="Path_839019" data-name="Path 839019" d="M323.206,44.069a.43.43,0,0,0,.18-.087.437.437,0,0,0,.072-.611A4.232,4.232,0,0,0,319.9,41.7a.442.442,0,0,0-.392.478.426.426,0,0,0,.468.387,3.381,3.381,0,0,1,2.8,1.355.427.427,0,0,0,.427.151" fill="#263238"/>
            <path id="Path_839020" data-name="Path 839020" d="M320.93,49.428a20.079,20.079,0,0,1-2.24,4.948,3.151,3.151,0,0,0,2.658.245Z" fill="#ff5652"/>
            <path id="Path_839021" data-name="Path 839021" d="M321.485,48.1c.059.737-.282,1.37-.762,1.416s-.917-.515-.977-1.252.282-1.37.762-1.415.918.514.977,1.251" fill="#263238"/>
            <path id="Path_839022" data-name="Path 839022" d="M320.724,46.87l-1.8-.343s1.016,1.3,1.8.343" fill="#263238"/>
            <path id="Path_839023" data-name="Path 839023" d="M288.416,338.914l-8.865-3.057L285.8,316.13l8.866,3.057Z" fill="#ff8b7b"/>
            <path id="Path_839024" data-name="Path 839024" d="M361.564,336.957h-9.153l-.828-21.2h9.153Z" fill="#ff8b7b"/>
            <path id="Path_839025" data-name="Path 839025" d="M352.114,335.619H362.4a.713.713,0,0,1,.722.625l1.058,8.136a1.5,1.5,0,0,1-1.49,1.628c-3.584-.062-5.309-.273-9.831-.273-2.782,0-6.851.289-10.693.289-3.757,0-3.993-3.8-2.388-4.143,7.194-1.542,8.357-3.67,10.8-5.7a2.423,2.423,0,0,1,1.538-.563" fill="#263238"/>
            <path id="Path_839026" data-name="Path 839026" d="M280.707,332.257l9.514,4.473a.713.713,0,0,1,.4.866l-2.451,7.64a1.5,1.5,0,0,1-2.065.789c-3.291-1.614-4.8-2.55-8.982-4.517-2.574-1.21-8.024-3.46-11.579-5.131-3.476-1.635-2.093-5.09-.463-4.7,7.307,1.768,10.843,1.131,13.961.4a2.561,2.561,0,0,1,1.66.172" fill="#263238"/>
            <g id="Group_1072197" data-name="Group 1072197" opacity="0.2">
              <g id="Group_1072196" data-name="Group 1072196">
                <g id="Group_1072195" data-name="Group 1072195" clip-path="url(#clip-path-8)">
                  <path id="Path_839027" data-name="Path 839027" d="M285.805,316.136,282.452,326.7l9,2.658,3.226-10.168Z"/>
                </g>
              </g>
            </g>
            <g id="Group_1072200" data-name="Group 1072200" opacity="0.2">
              <g id="Group_1072199" data-name="Group 1072199">
                <g id="Group_1072198" data-name="Group 1072198" clip-path="url(#clip-path-9)">
                  <path id="Path_839028" data-name="Path 839028" d="M360.739,315.766h-9.157l.432,10.926h9.156Z"/>
                </g>
              </g>
            </g>
            <path id="Path_839029" data-name="Path 839029" d="M363.94,75.132c3.81.758,7.953,14.345,7.953,14.345L361.2,101.109s-9-12.66-7.21-17.416c1.866-4.953,5.448-9.457,9.951-8.561" fill="#e6ff48"/>
            <g id="Group_1072206" data-name="Group 1072206" opacity="0.4">
              <g id="Group_1072205" data-name="Group 1072205">
                <g id="Group_1072204" data-name="Group 1072204" clip-path="url(#clip-path-10)">
                  <path id="Path_839031" data-name="Path 839031" d="M357.959,83.948c-1.935-1.72-3.233-1.17-4.111.244-.852,4.079,4.381,12.482,6.488,15.661.941-3.862,2-11.995-2.377-15.9" fill="#407bff"/>
                </g>
              </g>
            </g>
            <path id="Path_839032" data-name="Path 839032" d="M315.043,78.286c-.688,4-.837,16.2,5.417,53.162l37.2-.73c-.711-15.1-.782-24.423,6.277-55.586a109.388,109.388,0,0,0-15.811-1.768,118.557,118.557,0,0,0-16.893.332c-5.4.6-11.346,1.774-14.022,2.335a2.776,2.776,0,0,0-2.172,2.255" fill="#e6ff48"/>
            <path id="Path_839034" data-name="Path 839034" d="M345.976,43.236c.175,9.1.442,12.942-3.739,18.015-6.29,7.632-17.463,6.008-20.342-2.817-2.592-7.944-2.443-21.487,6.1-25.921a12.217,12.217,0,0,1,17.984,10.723" fill="#ff8b7b"/>
            <path id="Path_839035" data-name="Path 839035" d="M320.724,40.872c7.221-1.444,16.713-3.889,18.606-9.167s-19.508-9.4-18.606,9.167" fill="#263238"/>
            <path id="Path_839036" data-name="Path 839036" d="M326.278,43.261c-1.021-.51-2.889-3.685-1.722-9.2s9.889-10.463,16.722-6.574c-7.222,2.778-15,15.778-15,15.778" fill="#1fd27a"/>
            <path id="Path_839037" data-name="Path 839037" d="M325.667,37.538c-1.222,5.111.043,8.764,1.992,10.644,0,0-5.043,32.942,20.036,29.356s10.433-41.039,4.587-46.484-21.559-8.2-26.615,6.484" fill="#263238"/>
            <path id="Path_839038" data-name="Path 839038" d="M325.821,45.493a9.142,9.142,0,0,0-1.365,5.489c.184,2.439,2.089,2.442,3.492.984,1.264-1.313,2.629-4.468,1.923-6.329-.7-1.834-2.938-1.891-4.05-.144" fill="#ff8b7b"/>
            <path id="Path_839039" data-name="Path 839039" d="M330.285,131.255s5.676,62.66,11.395,97.925c4.619,28.482,8.526,95.118,8.526,95.118h12.482s4.07-65.041,1.646-93.255c-6.132-71.393,4.915-78.059-6.67-100.324Z" fill="#0a5e6b"/>
            <g id="Group_1072212" data-name="Group 1072212" opacity="0.4">
              <g id="Group_1072211" data-name="Group 1072211">
                <g id="Group_1072210" data-name="Group 1072210" clip-path="url(#clip-path-11)">
                  <path id="Path_839040" data-name="Path 839040" d="M342.982,152.2c-3.254,4.78-7.6,10.286-8.995,16.112,1.121,10.569,2.435,22.258,3.856,33.5,3.424-9.457,9.308-28.346,5.139-49.61"/>
                </g>
              </g>
            </g>
            <path id="Path_839041" data-name="Path 839041" d="M320.46,131.448s-14.909,67.423-20.015,94.9c-5.312,28.577-17.642,93.335-17.642,93.335l12.445,6.4s23.01-77.968,26.085-92.379c8.114-30.063,34.12-102.9,34.12-102.9Z" fill="#0a5e6b"/>
            <path id="Path_839042" data-name="Path 839042" d="M280.219,322.35l15.134,6.027,2.937-5.27L282.1,316.641Z" fill="#263238"/>
            <path id="Path_839043" data-name="Path 839043" d="M348.494,324.546h15.9l.913-5.577-16.815-.569Z" fill="#263238"/>
            <path id="Path_839044" data-name="Path 839044" d="M358.208,128.528l1.7,3.292c.131.255-.173.524-.6.532l-39.016.765c-.336.007-.614-.152-.637-.362l-.354-3.317c-.025-.23.265-.431.632-.438l37.674-.739a.665.665,0,0,1,.607.267" fill="#263238"/>
            <path id="Path_839045" data-name="Path 839045" d="M353.172,132.833l1.009-.02c.2,0,.353-.11.339-.236l-.5-4.31c-.015-.126-.191-.226-.392-.222l-1.009.019c-.2,0-.353.111-.339.237l.5,4.31c.015.126.191.226.392.222" fill="#1fd27a"/>
            <path id="Path_839046" data-name="Path 839046" d="M328.715,133.312l1.009-.02c.2,0,.353-.11.339-.236l-.5-4.31c-.015-.126-.191-.226-.392-.222l-1.009.019c-.2,0-.353.111-.339.237l.5,4.31c.015.126.191.226.392.222" fill="#1fd27a"/>
            <path id="Path_839047" data-name="Path 839047" d="M321.249,86.917A114.378,114.378,0,0,1,314.3,99.435c-1.282,2.017-2.6,4.02-4.072,5.955-.707.979-1.49,1.932-2.245,2.892-.813.94-1.6,1.884-2.483,2.8a24.7,24.7,0,0,1-2.96,2.77,31.117,31.117,0,0,1-3.258,2.222,47.477,47.477,0,0,1-6.7,3.279A68.513,68.513,0,0,1,278.7,123.2l-1.2-4.477a119.183,119.183,0,0,0,12.03-5.8,50.377,50.377,0,0,0,5.38-3.448,23.657,23.657,0,0,0,2.284-1.917,17.2,17.2,0,0,0,1.921-2.123,94.453,94.453,0,0,0,7.3-10.837c1.145-1.907,2.2-3.882,3.286-5.84,1.078-1.942,2.13-3.988,3.113-5.886Z" fill="#ff8b7b"/>
            <path id="Path_839048" data-name="Path 839048" d="M317.763,75.893c-8.789,1.9-11.754,14.76-11.754,14.76l11.224,9.667s11.417-11.737,11.02-18.789c-.294-5.239-5.7-6.674-10.49-5.638" fill="#e6ff48"/>
            <path id="Path_839050" data-name="Path 839050" d="M282.057,122.5l-8.892,4.512-3.3-7.6s7.865-1.818,11.246-.126Z" fill="#ff8b7b"/>
            <path id="Path_839051" data-name="Path 839051" d="M269.783,128.569l-3.45-5.15,3.536-4.008,3.3,7.6Z" fill="#ff8b7b"/>
          </g>
        </g>
      </g>
    </g>
  </g>
</svg>
