<svg xmlns="http://www.w3.org/2000/svg" width="114" height="114" viewBox="0 0 114 114">
  <g id="Group_1071989" data-name="Group 1071989" transform="translate(-269 -958)">
    <circle id="Ellipse_5614" data-name="Ellipse 5614" cx="57" cy="57" r="57" transform="translate(269 958)" fill="#0a5e6b"/>
    <g id="Group_1072114" data-name="Group 1072114" transform="translate(-2 1.44)">
      <g id="Group_1072113" data-name="Group 1072113" transform="translate(301.971 980.125)">
        <path id="Path_838691" data-name="Path 838691" d="M87.444,45.726a.959.959,0,0,0-.959.959V63.54H40.748V9.86h6.984A.959.959,0,0,0,48.69,8.9V1.918H69.919a.959.959,0,1,0,0-1.918H47.731a.96.96,0,0,0-.678.281L39.129,8.206a.956.956,0,0,0-.3.7V64.5a.959.959,0,0,0,.959.959H87.444A.959.959,0,0,0,88.4,64.5V46.685A.959.959,0,0,0,87.444,45.726ZM42.1,7.943l4.668-4.669V7.943Z" transform="translate(-38.83 0)" fill="#fff"/>
        <path id="Path_838692" data-name="Path 838692" d="M170.713,7.943h-1.034V.959A.959.959,0,0,0,168.72,0H155.373a.959.959,0,1,0,0,1.918h12.388V7.943H132.979a.959.959,0,0,0-.959.959V28.758a.959.959,0,0,0,.959.959h5.595a.959.959,0,1,0,0-1.918h-4.636V9.861h36.775a3.008,3.008,0,0,1,3,3V28.829a4.905,4.905,0,0,0-3.012-1.03H142.753a.959.959,0,0,0,0,1.918h25.008v12.79a.959.959,0,0,0,1.918,0V37.659h1.034a4.929,4.929,0,0,0,4.922-4.93V12.865a4.928,4.928,0,0,0-4.922-4.922Zm0,27.8h-1.034V29.717h1.027a3.016,3.016,0,0,1,3.012,3.012v.008A3.008,3.008,0,0,1,170.713,35.741Z" transform="translate(-120.106)" fill="#fff"/>
        <path id="Path_838693" data-name="Path 838693" d="M352.364,110.638a3,3,0,0,1,1.684.514.959.959,0,1,0,1.073-1.589,4.93,4.93,0,1,0-2.757,9.018,4.117,4.117,0,0,0,3.236-1.464.959.959,0,0,0-1.469-1.232,2.2,2.2,0,0,1-1.767.778,3.012,3.012,0,1,1,0-6.025Z" transform="translate(-307.98 -94.82)" fill="#fff"/>
        <path id="Path_838694" data-name="Path 838694" d="M269.638,113.65a4.93,4.93,0,1,0-4.93,4.93A4.936,4.936,0,0,0,269.638,113.65Zm-7.942,0a3.012,3.012,0,1,1,3.012,3.012A3.016,3.016,0,0,1,261.7,113.65Z" transform="translate(-231.53 -94.82)" fill="#fff"/>
        <path id="Path_838695" data-name="Path 838695" d="M194.5,118.58a4.93,4.93,0,1,0,0-9.86h-1.419a.959.959,0,0,0-.959.959v7.943a.959.959,0,0,0,.959.959H194.5Zm-.46-7.942a3.043,3.043,0,1,1,0,6.025Z" transform="translate(-172.524 -94.82)" fill="#fff"/>
        <path id="Path_838696" data-name="Path 838696" d="M100.954,373.342a.959.959,0,0,0,.959.959h31.77a.959.959,0,0,0,0-1.918h-31.77A.959.959,0,0,0,100.954,373.342Z" transform="translate(-93.012 -324.775)" fill="#fff"/>
        <path id="Path_838697" data-name="Path 838697" d="M134.642,404.4a.959.959,0,0,0-.959-.959h-31.77a.959.959,0,1,0,0,1.918h31.77A.959.959,0,0,0,134.642,404.4Z" transform="translate(-93.012 -351.866)" fill="#fff"/>
        <path id="Path_838698" data-name="Path 838698" d="M101.913,434.507a.959.959,0,0,0,0,1.918h17.871a.959.959,0,0,0,0-1.918Z" transform="translate(-93.012 -378.956)" fill="#fff"/>
        <path id="Path_838699" data-name="Path 838699" d="M241.694,281.114h13.9a.959.959,0,0,0,0-1.918h-13.9a.959.959,0,0,0,0,1.918Z" transform="translate(-214.922 -243.501)" fill="#fff"/>
        <path id="Path_838700" data-name="Path 838700" d="M241.694,312.176h13.9a.959.959,0,1,0,0-1.918h-13.9a.959.959,0,1,0,0,1.918Z" transform="translate(-214.922 -270.592)" fill="#fff"/>
        <path id="Path_838701" data-name="Path 838701" d="M241.694,343.239h13.9a.959.959,0,1,0,0-1.918h-13.9a.959.959,0,0,0,0,1.918Z" transform="translate(-214.922 -297.684)" fill="#fff"/>
        <path id="Path_838702" data-name="Path 838702" d="M138.194,279.08c-.365-1.168-1.6-.966-1.855.088l-1.479,4.778-.944-4.77a.959.959,0,1,0-1.881.372l1.547,7.823a1.143,1.143,0,0,0,2.2.1l1.5-4.847,1.494,4.848a1.143,1.143,0,0,0,2.2-.1l1.554-7.806a.959.959,0,1,0-1.881-.374l-.947,4.756Z" transform="translate(-120.102 -242.709)" fill="#fff"/>
      </g>
    </g>
  </g>
</svg>
