<svg xmlns="http://www.w3.org/2000/svg" width="114" height="114" viewBox="0 0 114 114">
  <g id="Group_1072109" data-name="Group 1072109" transform="translate(-269 -958)">
    <circle id="Ellipse_5614" data-name="Ellipse 5614" cx="57" cy="57" r="57" transform="translate(269 958)" fill="#0a5e6b"/>
    <g id="_9" data-name="9" transform="translate(288.806 974.059)">
      <path id="Path_839063" data-name="Path 839063" d="M34.219,53.287A1.192,1.192,0,0,1,35.411,52.1h2.384a1.192,1.192,0,1,1,0,2.384H35.411A1.192,1.192,0,0,1,34.219,53.287ZM66.4,24.685V41.369a3.575,3.575,0,0,1-3.575,3.575H60.438v9.534a3.575,3.575,0,0,1-3.575,3.575h-14.3v5.959h2.384a1.192,1.192,0,1,1,0,2.384H28.26a1.192,1.192,0,0,1,0-2.384h2.384V58.054h-14.3a3.575,3.575,0,0,1-3.575-3.575V37.794H11.575A3.575,3.575,0,0,1,8,34.219V17.534a3.575,3.575,0,0,1,3.575-3.575H22.3V11.575A3.575,3.575,0,0,1,25.876,8h28.6a3.575,3.575,0,0,1,3.575,3.575v9.534h4.767A3.575,3.575,0,0,1,66.4,24.685ZM24.685,28.26a1.192,1.192,0,0,0,1.192,1.192h4.767V28.26H28.26a1.192,1.192,0,0,1-1.192-1.192V13.959a1.192,1.192,0,0,1,1.192-1.192H40.178a1.192,1.192,0,0,1,1.192,1.192v7.151h14.3V11.575a1.192,1.192,0,0,0-1.192-1.192h-28.6a1.192,1.192,0,0,0-1.192,1.192Zm14.3-7.151V15.151H29.452V25.876h1.192V24.685a3.575,3.575,0,0,1,3.575-3.575Zm-27.411,14.3H30.644V31.835H25.876A3.575,3.575,0,0,1,22.3,28.26V16.342H11.575a1.192,1.192,0,0,0-1.192,1.192V34.219A1.192,1.192,0,0,0,11.575,35.411Zm28.6,22.644H33.027v5.959h7.151ZM58.054,50.9h-42.9v3.575a1.192,1.192,0,0,0,1.192,1.192h40.52a1.192,1.192,0,0,0,1.192-1.192Zm0-5.959H34.219a3.575,3.575,0,0,1-3.575-3.575V37.794H15.151V48.52h42.9Zm5.959-20.26a1.192,1.192,0,0,0-1.192-1.192h-28.6a1.192,1.192,0,0,0-1.037.6,1.3,1.3,0,0,0-.155.6V41.369a1.192,1.192,0,0,0,1.192,1.192h28.6a1.192,1.192,0,0,0,1.192-1.192Zm-14.3,8.342a7.151,7.151,0,1,1-7.151-7.151A7.151,7.151,0,0,1,49.712,33.027Zm-5.959-4.6v3.408h3.408A4.767,4.767,0,0,0,43.753,28.427Zm3.408,5.792h-4.6a1.192,1.192,0,0,1-1.192-1.192v-4.6a4.767,4.767,0,1,0,5.792,5.792Zm6.126,1.192a1.192,1.192,0,0,0,1.192-1.192V27.068a1.192,1.192,0,1,0-2.384,0v7.151A1.192,1.192,0,0,0,53.287,35.411Zm3.575,0a1.192,1.192,0,0,0,1.192-1.192V29.452a1.192,1.192,0,0,0-2.384,0v4.767A1.192,1.192,0,0,0,56.862,35.411Zm3.575-4.767a1.192,1.192,0,0,0-1.192,1.192v2.384a1.192,1.192,0,1,0,2.384,0V31.835A1.192,1.192,0,0,0,60.438,30.644Zm0,7.151H53.287a1.192,1.192,0,1,0,0,2.384h7.151a1.192,1.192,0,0,0,0-2.384ZM44.945,15.151H52.1a1.192,1.192,0,0,0,0-2.384H44.945a1.192,1.192,0,1,0,0,2.384Zm0,4.767H52.1a1.192,1.192,0,0,0,0-2.384H44.945a1.192,1.192,0,1,0,0,2.384ZM13.959,23.493h4.767a1.192,1.192,0,1,0,0-2.384H13.959a1.192,1.192,0,0,0,0,2.384Zm0,4.767h4.767a1.192,1.192,0,0,0,0-2.384H13.959a1.192,1.192,0,0,0,0,2.384Zm4.767,4.767a1.192,1.192,0,0,0,0-2.384H13.959a1.192,1.192,0,0,0,0,2.384Zm28.6,35.753H25.876a1.192,1.192,0,0,0,0,2.384H47.328a1.192,1.192,0,1,0,0-2.384Zm7.151,0H52.1a1.192,1.192,0,0,0,0,2.384h2.384a1.192,1.192,0,1,0,0-2.384Z" fill="#fff"/>
    </g>
  </g>
</svg>
