<svg xmlns="http://www.w3.org/2000/svg" width="114" height="114" viewBox="0 0 114 114">
  <g id="Group_1072289" data-name="Group 1072289" transform="translate(11598.996 8982.4)">
    <g id="Group_1072110" data-name="Group 1072110" transform="translate(-11867.996 -9940.4)">
      <circle id="Ellipse_5614" data-name="Ellipse 5614" cx="57" cy="57" r="57" transform="translate(269 958)" fill="#0a5e6b"/>
    </g>
    <g id="Group_1072228" data-name="Group 1072228" transform="translate(-11597.049 -8958.855)">
      <path id="Path_839064" data-name="Path 839064" d="M245,372.726h2.875v5.628H245Z" transform="translate(-190.889 -324.017)" fill="#fff"/>
      <g id="Group_1072227" data-name="Group 1072227" transform="translate(25.415)">
        <g id="Group_1072226" data-name="Group 1072226" transform="translate(2.875 2.875)">
          <path id="Path_839065" data-name="Path 839065" d="M109.278,177.9v-8.5a1.438,1.438,0,0,1,1.438-1.438h4.939v-6.69H96.211v6.69h4.939a1.438,1.438,0,0,1,1.438,1.438v8.5a1.438,1.438,0,0,1-1.438,1.438H96.211v6.69h19.444v-6.69h-4.939A1.438,1.438,0,0,1,109.278,177.9Z" transform="translate(-89.834 -143.073)" fill="none"/>
          <path id="Path_839066" data-name="Path 839066" d="M267,161.274v6.69h4.939a1.438,1.438,0,0,1,1.438,1.438v8.5a1.438,1.438,0,0,1-1.438,1.438H267v6.69h19.444v-6.69H281.5a1.438,1.438,0,0,1-1.438-1.438v-8.5a1.438,1.438,0,0,1,1.438-1.438h4.939v-6.69Z" transform="translate(-238.304 -143.073)" fill="none"/>
          <path id="Path_839067" data-name="Path 839067" d="M201.938,22h14.13v6.823h-14.13Z" transform="translate(-181.744 -22)" fill="none"/>
          <path id="Path_839068" data-name="Path 839068" d="M218.2,234.469h9.879V240.1H218.2Z" transform="translate(-195.884 -206.703)" fill="none"/>
          <path id="Path_839069" data-name="Path 839069" d="M201.938,437.789h14.13v6.823h-14.13Z" transform="translate(-181.744 -383.452)" fill="none"/>
          <path id="Path_839070" data-name="Path 839070" d="M388.992,234.469h9.879V240.1h-9.879Z" transform="translate(-344.353 -206.703)" fill="none"/>
          <path id="Path_839071" data-name="Path 839071" d="M47.415,234.469h9.879V240.1H47.415Z" transform="translate(-47.415 -206.703)" fill="none"/>
        </g>
        <path id="Path_839072" data-name="Path 839072" d="M77.086,104.714H96.53v6.69h2.875v-6.69H118.85v6.69h2.875v-8.128a1.438,1.438,0,0,0-1.438-1.438H99.405V96.211H96.53v5.628H75.649a1.438,1.438,0,0,0-1.438,1.438V111.4h2.875Z" transform="translate(-67.834 -83.638)" fill="#fff"/>
        <path id="Path_839073" data-name="Path 839073" d="M118.85,306.221H99.405v-6.69H96.53v6.69H77.086v-6.69H74.211v8.128a1.438,1.438,0,0,0,1.438,1.438H96.53v5.628h2.875V309.1h20.882a1.438,1.438,0,0,0,1.438-1.438v-8.128H118.85Z" transform="translate(-67.834 -260.387)" fill="#fff"/>
        <path id="Path_839074" data-name="Path 839074" d="M198.381,12.573a1.438,1.438,0,0,0,1.438-1.438v-9.7A1.438,1.438,0,0,0,198.381,0H181.376a1.438,1.438,0,0,0-1.438,1.438v9.7a1.438,1.438,0,0,0,1.438,1.438h17.005Zm-15.568-9.7h14.13V9.7h-14.13Z" transform="translate(-159.744)" fill="#fff"/>
        <path id="Path_839075" data-name="Path 839075" d="M181.376,415.789a1.438,1.438,0,0,0-1.438,1.438v9.7a1.438,1.438,0,0,0,1.438,1.438h17.005a1.438,1.438,0,0,0,1.438-1.438v-9.7a1.438,1.438,0,0,0-1.438-1.437H181.376Zm15.568,9.7h-14.13v-6.823h14.13v6.823Z" transform="translate(-159.744 -361.452)" fill="#fff"/>
        <path id="Path_839076" data-name="Path 839076" d="M381.183,212.469H368.43a1.438,1.438,0,0,0-1.438,1.438v8.5a1.438,1.438,0,0,0,1.438,1.438h12.754a1.438,1.438,0,0,0,1.438-1.438v-8.5A1.438,1.438,0,0,0,381.183,212.469Zm-1.438,8.5h-9.879v-5.628h9.879Z" transform="translate(-322.353 -184.703)" fill="#fff"/>
        <path id="Path_839077" data-name="Path 839077" d="M211.832,222.409v-8.5a1.438,1.438,0,0,0-1.438-1.438H197.641a1.438,1.438,0,0,0-1.438,1.438v8.5a1.438,1.438,0,0,0,1.438,1.438h12.754A1.438,1.438,0,0,0,211.832,222.409Zm-2.875-1.438h-9.879v-5.628h9.879Z" transform="translate(-173.884 -184.703)" fill="#fff"/>
        <path id="Path_839078" data-name="Path 839078" d="M39.606,223.847a1.438,1.438,0,0,0,1.438-1.438v-8.5a1.438,1.438,0,0,0-1.438-1.438H26.853a1.438,1.438,0,0,0-1.438,1.438v8.5a1.438,1.438,0,0,0,1.438,1.438H39.606Zm-11.316-8.5h9.879v5.628H28.29Z" transform="translate(-25.415 -184.703)" fill="#fff"/>
      </g>
    </g>
  </g>
</svg>
