<svg xmlns="http://www.w3.org/2000/svg" width="105" height="90.644" viewBox="0 0 105 90.644">
  <g id="Group_1072267" data-name="Group 1072267" transform="translate(0 -35)">
    <g id="Group_1072260" data-name="Group 1072260" transform="translate(0 43.972)">
      <path id="Path_839094" data-name="Path 839094" d="M237.048,118.792v6.247a2.256,2.256,0,0,0,.205,4.5h4.1a2.256,2.256,0,0,0,.205-4.5v-9.032a2.256,2.256,0,0,0-2.829-2.182l-2.051.538a2.256,2.256,0,0,0,.368,4.429Z" transform="translate(-186.804 -106.572)" fill="#0a5e6b"/>
      <path id="Path_839095" data-name="Path 839095" d="M247.253,83.262a2.256,2.256,0,0,0,0-4.512h0a2.256,2.256,0,0,0,0,4.512Z" transform="translate(-194.753 -78.75)" fill="#0a5e6b"/>
      <path id="Path_839096" data-name="Path 839096" d="M102.744,249.736H92.7V236.611a2.256,2.256,0,0,0-2.256-2.256H54.756v-12.1a2.256,2.256,0,1,0-4.512,0v12.1H14.561a2.256,2.256,0,0,0-2.256,2.256v13.125H2.256A2.256,2.256,0,0,0,0,251.992v18.457a2.256,2.256,0,0,0,2.256,2.256H26.865a2.256,2.256,0,0,0,2.256-2.256V251.992a2.256,2.256,0,0,0-2.256-2.256H16.816V238.867H50.244v10.869H40.2a2.256,2.256,0,0,0-2.256,2.256v18.457a2.256,2.256,0,0,0,2.256,2.256H64.8a2.256,2.256,0,0,0,2.256-2.256V251.992a2.256,2.256,0,0,0-2.256-2.256H54.756V238.867H88.184v10.869H78.135a2.256,2.256,0,0,0-2.256,2.256v18.457a2.256,2.256,0,0,0,2.256,2.256h24.609A2.256,2.256,0,0,0,105,270.449V251.992A2.256,2.256,0,0,0,102.744,249.736ZM24.609,268.193H4.512V254.248h20.1Zm37.939,0h-20.1V254.248h20.1Zm37.939,0h-20.1V254.248h20.1Z" transform="translate(0 -191.033)" fill="#0a5e6b"/>
    </g>
    <g id="Group_1072265" data-name="Group 1072265" transform="translate(9.229 35)">
      <g id="Group_1072261" data-name="Group 1072261" transform="translate(22.559)">
        <path id="Path_839097" data-name="Path 839097" d="M175.713,76.426a20.713,20.713,0,1,1,20.713-20.713A20.736,20.736,0,0,1,175.713,76.426Zm0-36.914a16.2,16.2,0,1,0,16.2,16.2A16.219,16.219,0,0,0,175.713,39.512Z" transform="translate(-155 -35)" fill="#0a5e6b"/>
      </g>
      <g id="Group_1072262" data-name="Group 1072262" transform="translate(0 76.904)">
        <path id="Path_839098" data-name="Path 839098" d="M53.408,414.512H47.256a2.256,2.256,0,1,1,0-4.512h6.152a2.256,2.256,0,1,1,0,4.512Z" transform="translate(-45 -410)" fill="#0a5e6b"/>
      </g>
      <g id="Group_1072263" data-name="Group 1072263" transform="translate(37.939 76.904)">
        <path id="Path_839099" data-name="Path 839099" d="M238.408,414.512h-6.152a2.256,2.256,0,1,1,0-4.512h6.152a2.256,2.256,0,1,1,0,4.512Z" transform="translate(-230 -410)" fill="#0a5e6b"/>
      </g>
      <g id="Group_1072264" data-name="Group 1072264" transform="translate(75.879 76.904)">
        <path id="Path_839100" data-name="Path 839100" d="M423.408,414.512h-6.152a2.256,2.256,0,1,1,0-4.512h6.152a2.256,2.256,0,0,1,0,4.512Z" transform="translate(-415 -410)" fill="#0a5e6b"/>
      </g>
    </g>
  </g>
</svg>
