<svg xmlns="http://www.w3.org/2000/svg" width="114" height="114" viewBox="0 0 114 114">
  <g id="Group_1072108" data-name="Group 1072108" transform="translate(-269 -958)">
    <circle id="Ellipse_5614" data-name="Ellipse 5614" cx="57" cy="57" r="57" transform="translate(269 958)" fill="#0a5e6b"/>
    <g id="Group_1072225" data-name="Group 1072225" transform="translate(291.147 978.836)">
      <path id="Path_839052" data-name="Path 839052" d="M11.242,47.947h1.875v1.868H11.242Z" transform="translate(0.484 5.472)" fill="#fff"/>
      <path id="Path_839053" data-name="Path 839053" d="M18.388,47.258H16.494v3.311H14.6V41.362h3.916a2.667,2.667,0,0,1,2.965,2.917,2.723,2.723,0,0,1-3.093,2.979Zm-.18-4.292H16.494v2.711h1.718a1.289,1.289,0,0,0,1.376-1.38,1.239,1.239,0,0,0-1.38-1.33Z" transform="translate(0.867 4.718)" fill="#fff"/>
      <path id="Path_839054" data-name="Path 839054" d="M26.036,47.258H24.142v3.311H22.248V41.362h3.916a2.667,2.667,0,0,1,2.965,2.917,2.723,2.723,0,0,1-3.093,2.979Zm-.182-4.292H24.136v2.711h1.718A1.289,1.289,0,0,0,27.23,44.3a1.239,1.239,0,0,0-1.376-1.33Z" transform="translate(1.74 4.718)" fill="#fff"/>
      <path id="Path_839055" data-name="Path 839055" d="M36.437,41.36v1.63h-2.73v7.576H31.79V42.99H29.048V41.36Z" transform="translate(2.516 4.72)" fill="#fff"/>
      <path id="Path_839056" data-name="Path 839056" d="M38.214,50.567H36l2.933-4.692L36.148,41.36h2.277l1.627,3,1.671-3h2.2L41.141,45.8l2.965,4.766H41.779l-1.734-3.14Z" transform="translate(3.31 4.72)" fill="#fff"/>
      <path id="Path_839057" data-name="Path 839057" d="M55.326,3.438H41.794L38.716.334A1.114,1.114,0,0,0,37.925,0H18.965a7.876,7.876,0,0,0-7.836,7.9V40.824A5.526,5.526,0,0,0,7,46.167v19.6A5.524,5.524,0,0,0,12.5,71.3H27.374a5.521,5.521,0,0,0,5.139-3.6H54.871a7.876,7.876,0,0,0,7.836-7.9V10.877a7.418,7.418,0,0,0-7.38-7.439ZM55.4,20.364H44.191a5.187,5.187,0,0,1-5.152-5.212V3.845ZM18.965,2.228H36.811V15.152a7.418,7.418,0,0,0,7.38,7.439H56.962V56.368a5.645,5.645,0,0,1-5.606,5.67H18.965a5.561,5.561,0,0,1-3.283-1.092l30.058-.051a5.524,5.524,0,0,0,5.492-5.538V46.167a5.524,5.524,0,0,0-5.5-5.538H13.357V7.9a5.645,5.645,0,0,1,5.607-5.67ZM9.228,46.167a3.293,3.293,0,0,1,3.269-3.31H45.739A3.293,3.293,0,0,1,49,46.167v9.189a3.293,3.293,0,0,1-3.27,3.31l-33.24.057a5.444,5.444,0,0,0-3.264,1.087ZM27.374,69.076H12.5a3.293,3.293,0,0,1-3.269-3.31v-1.5a3.293,3.293,0,0,1,3.271-3.31h.111a7.91,7.91,0,0,0,2.949,2.5,7.809,7.809,0,0,0,6.927,4.25h7.525a3.258,3.258,0,0,1-2.637,1.371Zm33.1-9.27a5.645,5.645,0,0,1-5.607,5.67H22.486a5.527,5.527,0,0,1-3.433-1.21h32.31a7.876,7.876,0,0,0,7.835-7.9V21.455a1.306,1.306,0,0,0-.323-.78L44,5.666H55.326a5.187,5.187,0,0,1,5.152,5.211Z" fill="#fff"/>
      <path id="Path_839058" data-name="Path 839058" d="M37.781,36.861a.759.759,0,0,1-.663-.39L34.481,31.74a.771.771,0,0,1,.291-1.043.753.753,0,0,1,1.033.292l2.645,4.736a.77.77,0,0,1-.29,1.043A.749.749,0,0,1,37.781,36.861Zm-11.743,0a.742.742,0,0,1-.37-.1.77.77,0,0,1-.291-1.043l2.637-4.731a.753.753,0,0,1,1.034-.292.77.77,0,0,1,.29,1.043L26.7,36.471a.755.755,0,0,1-.657.39Z" transform="translate(2.086 3.492)" fill="#fff"/>
      <path id="Path_839059" data-name="Path 839059" d="M31.319,20.182a.763.763,0,0,1-.76-.767V17.781a.76.76,0,1,1,1.519,0v1.637a.763.763,0,0,1-.759.764Z" transform="translate(2.689 1.939)" fill="#fff"/>
      <path id="Path_839060" data-name="Path 839060" d="M44.815,33.513h-24.5a.763.763,0,0,1-.759-.765v-13.5a.762.762,0,0,1,.759-.764h24.5a.762.762,0,0,1,.76.764v13.5A.763.763,0,0,1,44.815,33.513Zm-23.739-1.53h22.98V20.012H21.076Z" transform="translate(1.433 2.109)" fill="#fff"/>
      <path id="Path_839061" data-name="Path 839061" d="M40.316,30.339H22.976a.594.594,0,0,1-.59-.6V21.787a.592.592,0,1,1,1.182,0V29.14H40.316a.6.6,0,0,1,0,1.193Z" transform="translate(1.756 2.416)" fill="#fff"/>
      <path id="Path_839062" data-name="Path 839062" d="M24.391,28.832a.589.589,0,0,1-.418-.175.6.6,0,0,1,0-.845l1.576-1.591a.586.586,0,0,1,.682-.111l1.246.632,2.86-2.166a.585.585,0,0,1,.471-.111l3.658.739,5.3-4.585a.587.587,0,0,1,.833.065.6.6,0,0,1-.064.841L35.022,26.3a.587.587,0,0,1-.5.133l-3.677-.743L27.9,27.914a.587.587,0,0,1-.618.056l-1.2-.6-1.276,1.287a.587.587,0,0,1-.422.178Z" transform="translate(1.917 2.337)" fill="#fff"/>
    </g>
  </g>
</svg>
